<?xml version="1.0" encoding="us-ascii" standalone="no"?><svg xmlns="http://www.w3.org/2000/svg" xmlns:xlink="http://www.w3.org/1999/xlink" contentStyleType="text/css" height="2640px" preserveAspectRatio="none" style="width:1783px;height:2640px;background:#FFFFFF;" version="1.1" viewBox="0 0 1783 2640" width="1783px" zoomAndPan="magnify"><defs/><g><!--class Aspect--><g id="elem_Aspect"><rect codeLine="4" fill="#F1F1F1" height="96.8906" id="Aspect" rx="2.5" ry="2.5" style="stroke:#181818;stroke-width:0.5;" width="162" x="1113.8" y="1795.2969"/><ellipse cx="1165.05" cy="1811.2969" fill="#ADD1B2" rx="11" ry="11" style="stroke:#181818;stroke-width:1.0;"/><path d="M1167.3938,1806.9688 C1166.4563,1806.5313 1165.8625,1806.3906 1164.9875,1806.3906 C1162.3625,1806.3906 1160.3625,1808.4688 1160.3625,1811.1875 L1160.3625,1812.3125 C1160.3625,1814.8906 1162.4719,1816.7813 1165.3625,1816.7813 C1166.5813,1816.7813 1167.7375,1816.4844 1168.4875,1815.9375 C1169.0656,1815.5313 1169.3938,1815.0781 1169.3938,1814.6875 C1169.3938,1814.2344 1169.0031,1813.8438 1168.5344,1813.8438 C1168.3156,1813.8438 1168.1125,1813.9219 1167.925,1814.1094 C1167.4719,1814.5938 1167.4719,1814.5938 1167.2844,1814.6875 C1166.8625,1814.9531 1166.175,1815.0781 1165.4094,1815.0781 C1163.3625,1815.0781 1162.0656,1813.9844 1162.0656,1812.2813 L1162.0656,1811.1875 C1162.0656,1809.4063 1163.3156,1808.0938 1165.05,1808.0938 C1165.6281,1808.0938 1166.2375,1808.25 1166.7063,1808.5 C1167.1906,1808.7813 1167.3625,1809 1167.4563,1809.4063 C1167.5188,1809.8125 1167.55,1809.9375 1167.6906,1810.0625 C1167.8313,1810.2031 1168.0656,1810.3125 1168.2844,1810.3125 C1168.55,1810.3125 1168.8156,1810.1719 1168.9875,1809.9531 C1169.0969,1809.7969 1169.1281,1809.6094 1169.1281,1809.1875 L1169.1281,1807.7656 C1169.1281,1807.3281 1169.1125,1807.2031 1169.0188,1807.0469 C1168.8625,1806.7813 1168.5813,1806.6406 1168.2844,1806.6406 C1167.9875,1806.6406 1167.7844,1806.7344 1167.5656,1807.0469 L1167.3938,1806.9688 Z " fill="#000000"/><text fill="#000000" font-family="sans-serif" font-size="14" lengthAdjust="spacing" textLength="51" x="1185.55" y="1816.1436">Aspect</text><line style="stroke:#181818;stroke-width:0.5;" x1="1114.8" x2="1274.8" y1="1827.2969" y2="1827.2969"/><text fill="#000000" font-family="sans-serif" font-size="14" lengthAdjust="spacing" textLength="59" x="1119.8" y="1844.292">Id string</text><text fill="#000000" font-family="sans-serif" font-size="14" lengthAdjust="spacing" textLength="87" x="1119.8" y="1860.5889">Name string</text><text fill="#000000" font-family="sans-serif" font-size="14" lengthAdjust="spacing" textLength="150" x="1119.8" y="1876.8857">SubAspects []Aspect</text><line style="stroke:#181818;stroke-width:0.5;" x1="1114.8" x2="1274.8" y1="1884.1875" y2="1884.1875"/></g><!--class AspectNode--><g id="elem_AspectNode"><rect codeLine="12" fill="#F1F1F1" height="162.0781" id="AspectNode" rx="2.5" ry="2.5" style="stroke:#181818;stroke-width:0.5;" width="175" x="1345.45" y="12.418"/><ellipse cx="1385.2" cy="28.418" fill="#ADD1B2" rx="11" ry="11" style="stroke:#181818;stroke-width:1.0;"/><path d="M1387.5438,24.0898 C1386.6063,23.6523 1386.0125,23.5117 1385.1375,23.5117 C1382.5125,23.5117 1380.5125,25.5898 1380.5125,28.3086 L1380.5125,29.4336 C1380.5125,32.0117 1382.6219,33.9023 1385.5125,33.9023 C1386.7313,33.9023 1387.8875,33.6055 1388.6375,33.0586 C1389.2156,32.6523 1389.5438,32.1992 1389.5438,31.8086 C1389.5438,31.3555 1389.1531,30.9648 1388.6844,30.9648 C1388.4656,30.9648 1388.2625,31.043 1388.075,31.2305 C1387.6219,31.7148 1387.6219,31.7148 1387.4344,31.8086 C1387.0125,32.0742 1386.325,32.1992 1385.5594,32.1992 C1383.5125,32.1992 1382.2156,31.1055 1382.2156,29.4023 L1382.2156,28.3086 C1382.2156,26.5273 1383.4656,25.2148 1385.2,25.2148 C1385.7781,25.2148 1386.3875,25.3711 1386.8563,25.6211 C1387.3406,25.9023 1387.5125,26.1211 1387.6063,26.5273 C1387.6688,26.9336 1387.7,27.0586 1387.8406,27.1836 C1387.9813,27.3242 1388.2156,27.4336 1388.4344,27.4336 C1388.7,27.4336 1388.9656,27.293 1389.1375,27.0742 C1389.2469,26.918 1389.2781,26.7305 1389.2781,26.3086 L1389.2781,24.8867 C1389.2781,24.4492 1389.2625,24.3242 1389.1688,24.168 C1389.0125,23.9023 1388.7313,23.7617 1388.4344,23.7617 C1388.1375,23.7617 1387.9344,23.8555 1387.7156,24.168 L1387.5438,24.0898 Z " fill="#000000"/><text fill="#000000" font-family="sans-serif" font-size="14" lengthAdjust="spacing" textLength="88" x="1404.7" y="33.2646">AspectNode</text><line style="stroke:#181818;stroke-width:0.5;" x1="1346.45" x2="1519.45" y1="44.418" y2="44.418"/><text fill="#000000" font-family="sans-serif" font-size="14" lengthAdjust="spacing" textLength="59" x="1351.45" y="61.4131">Id string</text><text fill="#000000" font-family="sans-serif" font-size="14" lengthAdjust="spacing" textLength="87" x="1351.45" y="77.71">Name string</text><text fill="#000000" font-family="sans-serif" font-size="14" lengthAdjust="spacing" textLength="94" x="1351.45" y="94.0068">RootId string</text><text fill="#000000" font-family="sans-serif" font-size="14" lengthAdjust="spacing" textLength="107" x="1351.45" y="110.3037">ParentId string</text><text fill="#000000" font-family="sans-serif" font-size="14" lengthAdjust="spacing" textLength="112" x="1351.45" y="126.6006">ChildIds []string</text><text fill="#000000" font-family="sans-serif" font-size="14" lengthAdjust="spacing" textLength="141" x="1351.45" y="142.8975">AncestorIds []string</text><text fill="#000000" font-family="sans-serif" font-size="14" lengthAdjust="spacing" textLength="163" x="1351.45" y="159.1943">DescendentIds []string</text><line style="stroke:#181818;stroke-width:0.5;" x1="1346.45" x2="1519.45" y1="166.4961" y2="166.4961"/></g><!--class Attribute--><g id="elem_Attribute"><rect codeLine="24" fill="#F1F1F1" height="96.8906" id="Attribute" rx="2.5" ry="2.5" style="stroke:#181818;stroke-width:0.5;" width="101" x="174" y="1278.8516"/><ellipse cx="189.45" cy="1294.8516" fill="#ADD1B2" rx="11" ry="11" style="stroke:#181818;stroke-width:1.0;"/><path d="M191.7938,1290.5234 C190.8563,1290.0859 190.2625,1289.9453 189.3875,1289.9453 C186.7625,1289.9453 184.7625,1292.0234 184.7625,1294.7422 L184.7625,1295.8672 C184.7625,1298.4453 186.8719,1300.3359 189.7625,1300.3359 C190.9813,1300.3359 192.1375,1300.0391 192.8875,1299.4922 C193.4656,1299.0859 193.7938,1298.6328 193.7938,1298.2422 C193.7938,1297.7891 193.4031,1297.3984 192.9344,1297.3984 C192.7156,1297.3984 192.5125,1297.4766 192.325,1297.6641 C191.8719,1298.1484 191.8719,1298.1484 191.6844,1298.2422 C191.2625,1298.5078 190.575,1298.6328 189.8094,1298.6328 C187.7625,1298.6328 186.4656,1297.5391 186.4656,1295.8359 L186.4656,1294.7422 C186.4656,1292.9609 187.7156,1291.6484 189.45,1291.6484 C190.0281,1291.6484 190.6375,1291.8047 191.1063,1292.0547 C191.5906,1292.3359 191.7625,1292.5547 191.8563,1292.9609 C191.9188,1293.3672 191.95,1293.4922 192.0906,1293.6172 C192.2313,1293.7578 192.4656,1293.8672 192.6844,1293.8672 C192.95,1293.8672 193.2156,1293.7266 193.3875,1293.5078 C193.4969,1293.3516 193.5281,1293.1641 193.5281,1292.7422 L193.5281,1291.3203 C193.5281,1290.8828 193.5125,1290.7578 193.4188,1290.6016 C193.2625,1290.3359 192.9813,1290.1953 192.6844,1290.1953 C192.3875,1290.1953 192.1844,1290.2891 191.9656,1290.6016 L191.7938,1290.5234 Z " fill="#000000"/><text fill="#000000" font-family="sans-serif" font-size="14" lengthAdjust="spacing" textLength="68" x="203.55" y="1299.6982">Attribute</text><line style="stroke:#181818;stroke-width:0.5;" x1="175" x2="274" y1="1310.8516" y2="1310.8516"/><text fill="#000000" font-family="sans-serif" font-size="14" lengthAdjust="spacing" textLength="73" x="180" y="1327.8467">Key string</text><text fill="#000000" font-family="sans-serif" font-size="14" lengthAdjust="spacing" textLength="85" x="180" y="1344.1436">Value string</text><text fill="#000000" font-family="sans-serif" font-size="14" lengthAdjust="spacing" textLength="89" x="180" y="1360.4404">Origin string</text><line style="stroke:#181818;stroke-width:0.5;" x1="175" x2="274" y1="1367.7422" y2="1367.7422"/></g><!--class Characteristic--><g id="elem_Characteristic"><rect codeLine="32" fill="#F1F1F1" height="194.6719" id="Characteristic" rx="2.5" ry="2.5" style="stroke:#181818;stroke-width:0.5;" width="262" x="1197.4667" y="2219.0938"/><ellipse cx="1273.7167" cy="2235.0938" fill="#ADD1B2" rx="11" ry="11" style="stroke:#181818;stroke-width:1.0;"/><path d="M1276.0604,2230.7656 C1275.1229,2230.3281 1274.5292,2230.1875 1273.6542,2230.1875 C1271.0292,2230.1875 1269.0292,2232.2656 1269.0292,2234.9844 L1269.0292,2236.1094 C1269.0292,2238.6875 1271.1385,2240.5781 1274.0292,2240.5781 C1275.2479,2240.5781 1276.4042,2240.2813 1277.1542,2239.7344 C1277.7323,2239.3281 1278.0604,2238.875 1278.0604,2238.4844 C1278.0604,2238.0313 1277.6698,2237.6406 1277.201,2237.6406 C1276.9823,2237.6406 1276.7792,2237.7188 1276.5917,2237.9063 C1276.1385,2238.3906 1276.1385,2238.3906 1275.951,2238.4844 C1275.5292,2238.75 1274.8417,2238.875 1274.076,2238.875 C1272.0292,2238.875 1270.7323,2237.7813 1270.7323,2236.0781 L1270.7323,2234.9844 C1270.7323,2233.2031 1271.9823,2231.8906 1273.7167,2231.8906 C1274.2948,2231.8906 1274.9042,2232.0469 1275.3729,2232.2969 C1275.8573,2232.5781 1276.0292,2232.7969 1276.1229,2233.2031 C1276.1854,2233.6094 1276.2167,2233.7344 1276.3573,2233.8594 C1276.4979,2234 1276.7323,2234.1094 1276.951,2234.1094 C1277.2167,2234.1094 1277.4823,2233.9688 1277.6542,2233.75 C1277.7635,2233.5938 1277.7948,2233.4063 1277.7948,2232.9844 L1277.7948,2231.5625 C1277.7948,2231.125 1277.7792,2231 1277.6854,2230.8438 C1277.5292,2230.5781 1277.2479,2230.4375 1276.951,2230.4375 C1276.6542,2230.4375 1276.451,2230.5313 1276.2323,2230.8438 L1276.0604,2230.7656 Z " fill="#000000"/><text fill="#000000" font-family="sans-serif" font-size="14" lengthAdjust="spacing" textLength="101" x="1294.2167" y="2239.9404">Characteristic</text><line style="stroke:#181818;stroke-width:0.5;" x1="1198.4667" x2="1458.4667" y1="2251.0938" y2="2251.0938"/><text fill="#000000" font-family="sans-serif" font-size="14" lengthAdjust="spacing" textLength="59" x="1203.4667" y="2268.0889">Id string</text><text fill="#000000" font-family="sans-serif" font-size="14" lengthAdjust="spacing" textLength="87" x="1203.4667" y="2284.3857">Name string</text><text fill="#000000" font-family="sans-serif" font-size="14" lengthAdjust="spacing" textLength="127" x="1203.4667" y="2300.6826">DisplayUnit string</text><text fill="#000000" font-family="sans-serif" font-size="14" lengthAdjust="spacing" textLength="76" x="1203.4667" y="2316.9795">Type Type</text><text fill="#000000" font-family="sans-serif" font-size="14" lengthAdjust="spacing" textLength="93" x="1203.4667" y="2333.2764">MinValue any</text><text fill="#000000" font-family="sans-serif" font-size="14" lengthAdjust="spacing" textLength="96" x="1203.4667" y="2349.5732">MaxValue any</text><text fill="#000000" font-family="sans-serif" font-size="14" lengthAdjust="spacing" textLength="141" x="1203.4667" y="2365.8701">AllowedValues []any</text><text fill="#000000" font-family="sans-serif" font-size="14" lengthAdjust="spacing" textLength="68" x="1203.4667" y="2382.167">Value any</text><text fill="#000000" font-family="sans-serif" font-size="14" lengthAdjust="spacing" textLength="250" x="1203.4667" y="2398.4639">SubCharacteristics []Characteristic</text><line style="stroke:#181818;stroke-width:0.5;" x1="1198.4667" x2="1458.4667" y1="2405.7656" y2="2405.7656"/></g><!--class Type--><g id="elem_Type"><rect codeLine="259" fill="#F1F1F1" height="145.7813" id="Type" rx="2.5" ry="2.5" style="stroke:#181818;stroke-width:0.5;" width="286" x="1137.8" y="2488.0313"/><ellipse cx="1258.55" cy="2504.0313" fill="#EB937F" rx="11" ry="11" style="stroke:#181818;stroke-width:1.0;"/><path d="M1257.3469,2504.9063 L1258.8,2504.9063 L1258.8,2505.0156 C1258.8,2505.4219 1258.8313,2505.5781 1258.9094,2505.7344 C1259.0656,2505.9844 1259.3469,2506.1406 1259.6438,2506.1406 C1259.8938,2506.1406 1260.1594,2506 1260.3156,2505.7813 C1260.4406,2505.625 1260.4719,2505.4688 1260.4719,2505.0156 L1260.4719,2503.0938 C1260.4719,2502.9375 1260.4719,2502.8906 1260.4563,2502.7344 C1260.3938,2502.2656 1260.0813,2501.9531 1259.6281,2501.9531 C1259.3781,2501.9531 1259.1125,2502.0938 1258.9406,2502.3125 C1258.8313,2502.4844 1258.8,2502.6406 1258.8,2503.0938 L1258.8,2503.2188 L1257.3469,2503.2188 L1257.3469,2500.8125 L1261.3313,2500.8125 L1261.3313,2501.6719 C1261.3313,2502.0781 1261.3625,2502.25 1261.4406,2502.4063 C1261.6125,2502.6563 1261.8938,2502.8125 1262.175,2502.8125 C1262.4406,2502.8125 1262.7063,2502.6719 1262.8781,2502.4531 C1262.9875,2502.2813 1263.0188,2502.1406 1263.0188,2501.6719 L1263.0188,2499.125 L1255.3938,2499.125 C1254.9563,2499.125 1254.8313,2499.1406 1254.675,2499.2344 C1254.425,2499.3906 1254.2688,2499.6875 1254.2688,2499.9688 C1254.2688,2500.25 1254.4094,2500.5 1254.6281,2500.6719 C1254.7844,2500.7813 1254.9719,2500.8125 1255.3938,2500.8125 L1255.6438,2500.8125 L1255.6438,2507.3281 L1255.3938,2507.3281 C1254.9875,2507.3281 1254.8313,2507.3438 1254.675,2507.4531 C1254.425,2507.625 1254.2688,2507.8906 1254.2688,2508.1875 C1254.2688,2508.4531 1254.4094,2508.7031 1254.6281,2508.8594 C1254.7688,2508.9844 1255.0031,2509.0313 1255.3938,2509.0313 L1263.3938,2509.0313 L1263.3938,2506.4531 C1263.3938,2506.0156 1263.3625,2505.875 1263.2844,2505.7188 C1263.1125,2505.4688 1262.8313,2505.3125 1262.55,2505.3125 C1262.2844,2505.3125 1262.0188,2505.4219 1261.8469,2505.6719 C1261.7375,2505.8281 1261.7063,2505.9688 1261.7063,2506.4531 L1261.7063,2507.3281 L1257.3469,2507.3281 L1257.3469,2504.9063 Z " fill="#000000"/><text fill="#000000" font-family="sans-serif" font-size="14" lengthAdjust="spacing" textLength="36" x="1279.05" y="2508.8779">Type</text><line style="stroke:#181818;stroke-width:0.5;" x1="1138.8" x2="1422.8" y1="2520.0313" y2="2520.0313"/><text fill="#000000" font-family="sans-serif" font-size="14" lengthAdjust="spacing" textLength="191" x="1143.8" y="2537.0264">"https://schema.org/Text"</text><text fill="#000000" font-family="sans-serif" font-size="14" lengthAdjust="spacing" textLength="211" x="1143.8" y="2553.3232">"https://schema.org/Integer"</text><text fill="#000000" font-family="sans-serif" font-size="14" lengthAdjust="spacing" textLength="194" x="1143.8" y="2569.6201">"https://schema.org/Float"</text><text fill="#000000" font-family="sans-serif" font-size="14" lengthAdjust="spacing" textLength="216" x="1143.8" y="2585.917">"https://schema.org/Boolean"</text><text fill="#000000" font-family="sans-serif" font-size="14" lengthAdjust="spacing" textLength="218" x="1143.8" y="2602.2139">"https://schema.org/ItemList"</text><text fill="#000000" font-family="sans-serif" font-size="14" lengthAdjust="spacing" textLength="274" x="1143.8" y="2618.5107">"https://schema.org/StructuredValue"</text><line style="stroke:#181818;stroke-width:0.5;" x1="1138.8" x2="1422.8" y1="2625.8125" y2="2625.8125"/></g><!--class Concept--><g id="elem_Concept"><rect codeLine="47" fill="#F1F1F1" height="129.4844" id="Concept" rx="2.5" ry="2.5" style="stroke:#181818;stroke-width:0.5;" width="257" x="1242.8" y="2015.3438"/><ellipse cx="1336.05" cy="2031.3438" fill="#ADD1B2" rx="11" ry="11" style="stroke:#181818;stroke-width:1.0;"/><path d="M1338.3938,2027.0156 C1337.4563,2026.5781 1336.8625,2026.4375 1335.9875,2026.4375 C1333.3625,2026.4375 1331.3625,2028.5156 1331.3625,2031.2344 L1331.3625,2032.3594 C1331.3625,2034.9375 1333.4719,2036.8281 1336.3625,2036.8281 C1337.5813,2036.8281 1338.7375,2036.5313 1339.4875,2035.9844 C1340.0656,2035.5781 1340.3938,2035.125 1340.3938,2034.7344 C1340.3938,2034.2813 1340.0031,2033.8906 1339.5344,2033.8906 C1339.3156,2033.8906 1339.1125,2033.9688 1338.925,2034.1563 C1338.4719,2034.6406 1338.4719,2034.6406 1338.2844,2034.7344 C1337.8625,2035 1337.175,2035.125 1336.4094,2035.125 C1334.3625,2035.125 1333.0656,2034.0313 1333.0656,2032.3281 L1333.0656,2031.2344 C1333.0656,2029.4531 1334.3156,2028.1406 1336.05,2028.1406 C1336.6281,2028.1406 1337.2375,2028.2969 1337.7063,2028.5469 C1338.1906,2028.8281 1338.3625,2029.0469 1338.4563,2029.4531 C1338.5188,2029.8594 1338.55,2029.9844 1338.6906,2030.1094 C1338.8313,2030.25 1339.0656,2030.3594 1339.2844,2030.3594 C1339.55,2030.3594 1339.8156,2030.2188 1339.9875,2030 C1340.0969,2029.8438 1340.1281,2029.6563 1340.1281,2029.2344 L1340.1281,2027.8125 C1340.1281,2027.375 1340.1125,2027.25 1340.0188,2027.0938 C1339.8625,2026.8281 1339.5813,2026.6875 1339.2844,2026.6875 C1338.9875,2026.6875 1338.7844,2026.7813 1338.5656,2027.0938 L1338.3938,2027.0156 Z " fill="#000000"/><text fill="#000000" font-family="sans-serif" font-size="14" lengthAdjust="spacing" textLength="62" x="1356.55" y="2036.1904">Concept</text><line style="stroke:#181818;stroke-width:0.5;" x1="1243.8" x2="1498.8" y1="2047.3438" y2="2047.3438"/><text fill="#000000" font-family="sans-serif" font-size="14" lengthAdjust="spacing" textLength="59" x="1248.8" y="2064.3389">Id string</text><text fill="#000000" font-family="sans-serif" font-size="14" lengthAdjust="spacing" textLength="87" x="1248.8" y="2080.6357">Name string</text><text fill="#000000" font-family="sans-serif" font-size="14" lengthAdjust="spacing" textLength="177" x="1248.8" y="2096.9326">CharacteristicIds []string</text><text fill="#000000" font-family="sans-serif" font-size="14" lengthAdjust="spacing" textLength="194" x="1248.8" y="2113.2295">BaseCharacteristicId string</text><text fill="#000000" font-family="sans-serif" font-size="14" lengthAdjust="spacing" textLength="245" x="1248.8" y="2129.5264">Conversions []ConverterExtension</text><line style="stroke:#181818;stroke-width:0.5;" x1="1243.8" x2="1498.8" y1="2136.8281" y2="2136.8281"/></g><!--class ConverterExtension--><g id="elem_ConverterExtension"><rect codeLine="98" fill="#F1F1F1" height="129.4844" id="ConverterExtension" rx="2.5" ry="2.5" style="stroke:#181818;stroke-width:0.5;" width="183" x="1569.1333" y="2219.0938"/><ellipse cx="1587.2833" cy="2235.0938" fill="#ADD1B2" rx="11" ry="11" style="stroke:#181818;stroke-width:1.0;"/><path d="M1589.6271,2230.7656 C1588.6896,2230.3281 1588.0958,2230.1875 1587.2208,2230.1875 C1584.5958,2230.1875 1582.5958,2232.2656 1582.5958,2234.9844 L1582.5958,2236.1094 C1582.5958,2238.6875 1584.7052,2240.5781 1587.5958,2240.5781 C1588.8146,2240.5781 1589.9708,2240.2813 1590.7208,2239.7344 C1591.299,2239.3281 1591.6271,2238.875 1591.6271,2238.4844 C1591.6271,2238.0313 1591.2365,2237.6406 1590.7677,2237.6406 C1590.549,2237.6406 1590.3458,2237.7188 1590.1583,2237.9063 C1589.7052,2238.3906 1589.7052,2238.3906 1589.5177,2238.4844 C1589.0958,2238.75 1588.4083,2238.875 1587.6427,2238.875 C1585.5958,2238.875 1584.299,2237.7813 1584.299,2236.0781 L1584.299,2234.9844 C1584.299,2233.2031 1585.549,2231.8906 1587.2833,2231.8906 C1587.8615,2231.8906 1588.4708,2232.0469 1588.9396,2232.2969 C1589.424,2232.5781 1589.5958,2232.7969 1589.6896,2233.2031 C1589.7521,2233.6094 1589.7833,2233.7344 1589.924,2233.8594 C1590.0646,2234 1590.299,2234.1094 1590.5177,2234.1094 C1590.7833,2234.1094 1591.049,2233.9688 1591.2208,2233.75 C1591.3302,2233.5938 1591.3615,2233.4063 1591.3615,2232.9844 L1591.3615,2231.5625 C1591.3615,2231.125 1591.3458,2231 1591.2521,2230.8438 C1591.0958,2230.5781 1590.8146,2230.4375 1590.5177,2230.4375 C1590.2208,2230.4375 1590.0177,2230.5313 1589.799,2230.8438 L1589.6271,2230.7656 Z " fill="#000000"/><text fill="#000000" font-family="sans-serif" font-size="14" lengthAdjust="spacing" textLength="144" x="1601.9833" y="2239.9404">ConverterExtension</text><line style="stroke:#181818;stroke-width:0.5;" x1="1570.1333" x2="1751.1333" y1="2251.0938" y2="2251.0938"/><text fill="#000000" font-family="sans-serif" font-size="14" lengthAdjust="spacing" textLength="83" x="1575.1333" y="2268.0889">From string</text><text fill="#000000" font-family="sans-serif" font-size="14" lengthAdjust="spacing" textLength="64" x="1575.1333" y="2284.3857">To string</text><text fill="#000000" font-family="sans-serif" font-size="14" lengthAdjust="spacing" textLength="104" x="1575.1333" y="2300.6826">Distance int64</text><text fill="#000000" font-family="sans-serif" font-size="14" lengthAdjust="spacing" textLength="103" x="1575.1333" y="2316.9795">Formula string</text><text fill="#000000" font-family="sans-serif" font-size="14" lengthAdjust="spacing" textLength="171" x="1575.1333" y="2333.2764">PlaceholderName string</text><line style="stroke:#181818;stroke-width:0.5;" x1="1570.1333" x2="1751.1333" y1="2340.5781" y2="2340.5781"/></g><!--class ConceptWithCharacteristics--><g id="elem_ConceptWithCharacteristics"><rect codeLine="57" fill="#F1F1F1" height="129.4844" id="ConceptWithCharacteristics" rx="2.5" ry="2.5" style="stroke:#181818;stroke-width:0.5;" width="257" x="1519.8" y="2015.3438"/><ellipse cx="1544.25" cy="2031.3438" fill="#ADD1B2" rx="11" ry="11" style="stroke:#181818;stroke-width:1.0;"/><path d="M1546.5938,2027.0156 C1545.6563,2026.5781 1545.0625,2026.4375 1544.1875,2026.4375 C1541.5625,2026.4375 1539.5625,2028.5156 1539.5625,2031.2344 L1539.5625,2032.3594 C1539.5625,2034.9375 1541.6719,2036.8281 1544.5625,2036.8281 C1545.7813,2036.8281 1546.9375,2036.5313 1547.6875,2035.9844 C1548.2656,2035.5781 1548.5938,2035.125 1548.5938,2034.7344 C1548.5938,2034.2813 1548.2031,2033.8906 1547.7344,2033.8906 C1547.5156,2033.8906 1547.3125,2033.9688 1547.125,2034.1563 C1546.6719,2034.6406 1546.6719,2034.6406 1546.4844,2034.7344 C1546.0625,2035 1545.375,2035.125 1544.6094,2035.125 C1542.5625,2035.125 1541.2656,2034.0313 1541.2656,2032.3281 L1541.2656,2031.2344 C1541.2656,2029.4531 1542.5156,2028.1406 1544.25,2028.1406 C1544.8281,2028.1406 1545.4375,2028.2969 1545.9063,2028.5469 C1546.3906,2028.8281 1546.5625,2029.0469 1546.6563,2029.4531 C1546.7188,2029.8594 1546.75,2029.9844 1546.8906,2030.1094 C1547.0313,2030.25 1547.2656,2030.3594 1547.4844,2030.3594 C1547.75,2030.3594 1548.0156,2030.2188 1548.1875,2030 C1548.2969,2029.8438 1548.3281,2029.6563 1548.3281,2029.2344 L1548.3281,2027.8125 C1548.3281,2027.375 1548.3125,2027.25 1548.2188,2027.0938 C1548.0625,2026.8281 1547.7813,2026.6875 1547.4844,2026.6875 C1547.1875,2026.6875 1546.9844,2026.7813 1546.7656,2027.0938 L1546.5938,2027.0156 Z " fill="#000000"/><text fill="#000000" font-family="sans-serif" font-size="14" lengthAdjust="spacing" textLength="204" x="1560.35" y="2036.1904">ConceptWithCharacteristics</text><line style="stroke:#181818;stroke-width:0.5;" x1="1520.8" x2="1775.8" y1="2047.3438" y2="2047.3438"/><text fill="#000000" font-family="sans-serif" font-size="14" lengthAdjust="spacing" textLength="59" x="1525.8" y="2064.3389">Id string</text><text fill="#000000" font-family="sans-serif" font-size="14" lengthAdjust="spacing" textLength="87" x="1525.8" y="2080.6357">Name string</text><text fill="#000000" font-family="sans-serif" font-size="14" lengthAdjust="spacing" textLength="194" x="1525.8" y="2096.9326">BaseCharacteristicId string</text><text fill="#000000" font-family="sans-serif" font-size="14" lengthAdjust="spacing" textLength="223" x="1525.8" y="2113.2295">Characteristics []Characteristic</text><text fill="#000000" font-family="sans-serif" font-size="14" lengthAdjust="spacing" textLength="245" x="1525.8" y="2129.5264">Conversions []ConverterExtension</text><line style="stroke:#181818;stroke-width:0.5;" x1="1520.8" x2="1775.8" y1="2136.8281" y2="2136.8281"/></g><!--class Content--><g id="elem_Content"><rect codeLine="68" fill="#F1F1F1" height="113.1875" id="Content" rx="2.5" ry="2.5" style="stroke:#181818;stroke-width:0.5;" width="254" x="666.8" y="1275.9414"/><ellipse cx="759.55" cy="1291.9414" fill="#ADD1B2" rx="11" ry="11" style="stroke:#181818;stroke-width:1.0;"/><path d="M761.8938,1287.6133 C760.9563,1287.1758 760.3625,1287.0352 759.4875,1287.0352 C756.8625,1287.0352 754.8625,1289.1133 754.8625,1291.832 L754.8625,1292.957 C754.8625,1295.5352 756.9719,1297.4258 759.8625,1297.4258 C761.0813,1297.4258 762.2375,1297.1289 762.9875,1296.582 C763.5656,1296.1758 763.8938,1295.7227 763.8938,1295.332 C763.8938,1294.8789 763.5031,1294.4883 763.0344,1294.4883 C762.8156,1294.4883 762.6125,1294.5664 762.425,1294.7539 C761.9719,1295.2383 761.9719,1295.2383 761.7844,1295.332 C761.3625,1295.5977 760.675,1295.7227 759.9094,1295.7227 C757.8625,1295.7227 756.5656,1294.6289 756.5656,1292.9258 L756.5656,1291.832 C756.5656,1290.0508 757.8156,1288.7383 759.55,1288.7383 C760.1281,1288.7383 760.7375,1288.8945 761.2063,1289.1445 C761.6906,1289.4258 761.8625,1289.6445 761.9563,1290.0508 C762.0188,1290.457 762.05,1290.582 762.1906,1290.707 C762.3313,1290.8477 762.5656,1290.957 762.7844,1290.957 C763.05,1290.957 763.3156,1290.8164 763.4875,1290.5977 C763.5969,1290.4414 763.6281,1290.2539 763.6281,1289.832 L763.6281,1288.4102 C763.6281,1287.9727 763.6125,1287.8477 763.5188,1287.6914 C763.3625,1287.4258 763.0813,1287.2852 762.7844,1287.2852 C762.4875,1287.2852 762.2844,1287.3789 762.0656,1287.6914 L761.8938,1287.6133 Z " fill="#000000"/><text fill="#000000" font-family="sans-serif" font-size="14" lengthAdjust="spacing" textLength="60" x="780.05" y="1296.7881">Content</text><line style="stroke:#181818;stroke-width:0.5;" x1="667.8" x2="919.8" y1="1307.9414" y2="1307.9414"/><text fill="#000000" font-family="sans-serif" font-size="14" lengthAdjust="spacing" textLength="59" x="672.8" y="1324.9365">Id string</text><text fill="#000000" font-family="sans-serif" font-size="14" lengthAdjust="spacing" textLength="242" x="672.8" y="1341.2334">ContentVariable ContentVariable</text><text fill="#000000" font-family="sans-serif" font-size="14" lengthAdjust="spacing" textLength="182" x="672.8" y="1357.5303">Serialization Serialization</text><text fill="#000000" font-family="sans-serif" font-size="14" lengthAdjust="spacing" textLength="186" x="672.8" y="1373.8271">ProtocolSegmentId string</text><line style="stroke:#181818;stroke-width:0.5;" x1="667.8" x2="919.8" y1="1381.1289" y2="1381.1289"/></g><!--class ContentVariable--><g id="elem_ContentVariable"><rect codeLine="78" fill="#F1F1F1" height="243.5625" id="ContentVariable" rx="2.5" ry="2.5" style="stroke:#181818;stroke-width:0.5;" width="298" x="708.3" y="1477.4688"/><ellipse cx="793.55" cy="1493.4688" fill="#ADD1B2" rx="11" ry="11" style="stroke:#181818;stroke-width:1.0;"/><path d="M795.8938,1489.1406 C794.9563,1488.7031 794.3625,1488.5625 793.4875,1488.5625 C790.8625,1488.5625 788.8625,1490.6406 788.8625,1493.3594 L788.8625,1494.4844 C788.8625,1497.0625 790.9719,1498.9531 793.8625,1498.9531 C795.0813,1498.9531 796.2375,1498.6563 796.9875,1498.1094 C797.5656,1497.7031 797.8938,1497.25 797.8938,1496.8594 C797.8938,1496.4063 797.5031,1496.0156 797.0344,1496.0156 C796.8156,1496.0156 796.6125,1496.0938 796.425,1496.2813 C795.9719,1496.7656 795.9719,1496.7656 795.7844,1496.8594 C795.3625,1497.125 794.675,1497.25 793.9094,1497.25 C791.8625,1497.25 790.5656,1496.1563 790.5656,1494.4531 L790.5656,1493.3594 C790.5656,1491.5781 791.8156,1490.2656 793.55,1490.2656 C794.1281,1490.2656 794.7375,1490.4219 795.2063,1490.6719 C795.6906,1490.9531 795.8625,1491.1719 795.9563,1491.5781 C796.0188,1491.9844 796.05,1492.1094 796.1906,1492.2344 C796.3313,1492.375 796.5656,1492.4844 796.7844,1492.4844 C797.05,1492.4844 797.3156,1492.3438 797.4875,1492.125 C797.5969,1491.9688 797.6281,1491.7813 797.6281,1491.3594 L797.6281,1489.9375 C797.6281,1489.5 797.6125,1489.375 797.5188,1489.2188 C797.3625,1488.9531 797.0813,1488.8125 796.7844,1488.8125 C796.4875,1488.8125 796.2844,1488.9063 796.0656,1489.2188 L795.8938,1489.1406 Z " fill="#000000"/><text fill="#000000" font-family="sans-serif" font-size="14" lengthAdjust="spacing" textLength="119" x="814.05" y="1498.3154">ContentVariable</text><line style="stroke:#181818;stroke-width:0.5;" x1="709.3" x2="1005.3" y1="1509.4688" y2="1509.4688"/><text fill="#000000" font-family="sans-serif" font-size="14" lengthAdjust="spacing" textLength="59" x="714.3" y="1526.4639">Id string</text><text fill="#000000" font-family="sans-serif" font-size="14" lengthAdjust="spacing" textLength="87" x="714.3" y="1542.7607">Name string</text><text fill="#000000" font-family="sans-serif" font-size="14" lengthAdjust="spacing" textLength="79" x="714.3" y="1559.0576">IsVoid bool</text><text fill="#000000" font-family="sans-serif" font-size="14" lengthAdjust="spacing" textLength="120" x="714.3" y="1575.3545">OmitEmpty bool</text><text fill="#000000" font-family="sans-serif" font-size="14" lengthAdjust="spacing" textLength="76" x="714.3" y="1591.6514">Type Type</text><text fill="#000000" font-family="sans-serif" font-size="14" lengthAdjust="spacing" textLength="286" x="714.3" y="1607.9482">SubContentVariables []ContentVariable</text><text fill="#000000" font-family="sans-serif" font-size="14" lengthAdjust="spacing" textLength="160" x="714.3" y="1624.2451">CharacteristicId string</text><text fill="#000000" font-family="sans-serif" font-size="14" lengthAdjust="spacing" textLength="68" x="714.3" y="1640.542">Value any</text><text fill="#000000" font-family="sans-serif" font-size="14" lengthAdjust="spacing" textLength="202" x="714.3" y="1656.8389">SerializationOptions []string</text><text fill="#000000" font-family="sans-serif" font-size="14" lengthAdjust="spacing" textLength="150" x="714.3" y="1673.1357">UnitReference string</text><text fill="#000000" font-family="sans-serif" font-size="14" lengthAdjust="spacing" textLength="121" x="714.3" y="1689.4326">FunctionId string</text><text fill="#000000" font-family="sans-serif" font-size="14" lengthAdjust="spacing" textLength="110" x="714.3" y="1705.7295">AspectId string</text><line style="stroke:#181818;stroke-width:0.5;" x1="709.3" x2="1005.3" y1="1713.0313" y2="1713.0313"/></g><!--class Serialization--><g id="elem_Serialization"><rect codeLine="254" fill="#F1F1F1" height="96.8906" id="Serialization" rx="2.5" ry="2.5" style="stroke:#181818;stroke-width:0.5;" width="121" x="531.3" y="1477.4688"/><ellipse cx="546.3" cy="1493.4688" fill="#EB937F" rx="11" ry="11" style="stroke:#181818;stroke-width:1.0;"/><path d="M545.0969,1494.3438 L546.55,1494.3438 L546.55,1494.4531 C546.55,1494.8594 546.5813,1495.0156 546.6594,1495.1719 C546.8156,1495.4219 547.0969,1495.5781 547.3938,1495.5781 C547.6438,1495.5781 547.9094,1495.4375 548.0656,1495.2188 C548.1906,1495.0625 548.2219,1494.9063 548.2219,1494.4531 L548.2219,1492.5313 C548.2219,1492.375 548.2219,1492.3281 548.2063,1492.1719 C548.1438,1491.7031 547.8313,1491.3906 547.3781,1491.3906 C547.1281,1491.3906 546.8625,1491.5313 546.6906,1491.75 C546.5813,1491.9219 546.55,1492.0781 546.55,1492.5313 L546.55,1492.6563 L545.0969,1492.6563 L545.0969,1490.25 L549.0813,1490.25 L549.0813,1491.1094 C549.0813,1491.5156 549.1125,1491.6875 549.1906,1491.8438 C549.3625,1492.0938 549.6438,1492.25 549.925,1492.25 C550.1906,1492.25 550.4563,1492.1094 550.6281,1491.8906 C550.7375,1491.7188 550.7688,1491.5781 550.7688,1491.1094 L550.7688,1488.5625 L543.1438,1488.5625 C542.7063,1488.5625 542.5813,1488.5781 542.425,1488.6719 C542.175,1488.8281 542.0188,1489.125 542.0188,1489.4063 C542.0188,1489.6875 542.1594,1489.9375 542.3781,1490.1094 C542.5344,1490.2188 542.7219,1490.25 543.1438,1490.25 L543.3938,1490.25 L543.3938,1496.7656 L543.1438,1496.7656 C542.7375,1496.7656 542.5813,1496.7813 542.425,1496.8906 C542.175,1497.0625 542.0188,1497.3281 542.0188,1497.625 C542.0188,1497.8906 542.1594,1498.1406 542.3781,1498.2969 C542.5188,1498.4219 542.7531,1498.4688 543.1438,1498.4688 L551.1438,1498.4688 L551.1438,1495.8906 C551.1438,1495.4531 551.1125,1495.3125 551.0344,1495.1563 C550.8625,1494.9063 550.5813,1494.75 550.3,1494.75 C550.0344,1494.75 549.7688,1494.8594 549.5969,1495.1094 C549.4875,1495.2656 549.4563,1495.4063 549.4563,1495.8906 L549.4563,1496.7656 L545.0969,1496.7656 L545.0969,1494.3438 Z " fill="#000000"/><text fill="#000000" font-family="sans-serif" font-size="14" lengthAdjust="spacing" textLength="89" x="560.3" y="1498.3154">Serialization</text><line style="stroke:#181818;stroke-width:0.5;" x1="532.3" x2="651.3" y1="1509.4688" y2="1509.4688"/><text fill="#000000" font-family="sans-serif" font-size="14" lengthAdjust="spacing" textLength="40" x="537.3" y="1526.4639">"xml"</text><text fill="#000000" font-family="sans-serif" font-size="14" lengthAdjust="spacing" textLength="43" x="537.3" y="1542.7607">"json"</text><text fill="#000000" font-family="sans-serif" font-size="14" lengthAdjust="spacing" textLength="86" x="537.3" y="1559.0576">"plain-text"</text><line style="stroke:#181818;stroke-width:0.5;" x1="532.3" x2="651.3" y1="1566.3594" y2="1566.3594"/></g><!--class ProtocolSegment--><g id="elem_ProtocolSegment"><rect codeLine="216" fill="#F1F1F1" height="80.5938" id="ProtocolSegment" rx="2.5" ry="2.5" style="stroke:#181818;stroke-width:0.5;" width="159" x="352.3" y="1477.4688"/><ellipse cx="367.3" cy="1493.4688" fill="#ADD1B2" rx="11" ry="11" style="stroke:#181818;stroke-width:1.0;"/><path d="M369.6438,1489.1406 C368.7063,1488.7031 368.1125,1488.5625 367.2375,1488.5625 C364.6125,1488.5625 362.6125,1490.6406 362.6125,1493.3594 L362.6125,1494.4844 C362.6125,1497.0625 364.7219,1498.9531 367.6125,1498.9531 C368.8313,1498.9531 369.9875,1498.6563 370.7375,1498.1094 C371.3156,1497.7031 371.6438,1497.25 371.6438,1496.8594 C371.6438,1496.4063 371.2531,1496.0156 370.7844,1496.0156 C370.5656,1496.0156 370.3625,1496.0938 370.175,1496.2813 C369.7219,1496.7656 369.7219,1496.7656 369.5344,1496.8594 C369.1125,1497.125 368.425,1497.25 367.6594,1497.25 C365.6125,1497.25 364.3156,1496.1563 364.3156,1494.4531 L364.3156,1493.3594 C364.3156,1491.5781 365.5656,1490.2656 367.3,1490.2656 C367.8781,1490.2656 368.4875,1490.4219 368.9563,1490.6719 C369.4406,1490.9531 369.6125,1491.1719 369.7063,1491.5781 C369.7688,1491.9844 369.8,1492.1094 369.9406,1492.2344 C370.0813,1492.375 370.3156,1492.4844 370.5344,1492.4844 C370.8,1492.4844 371.0656,1492.3438 371.2375,1492.125 C371.3469,1491.9688 371.3781,1491.7813 371.3781,1491.3594 L371.3781,1489.9375 C371.3781,1489.5 371.3625,1489.375 371.2688,1489.2188 C371.1125,1488.9531 370.8313,1488.8125 370.5344,1488.8125 C370.2375,1488.8125 370.0344,1488.9063 369.8156,1489.2188 L369.6438,1489.1406 Z " fill="#000000"/><text fill="#000000" font-family="sans-serif" font-size="14" lengthAdjust="spacing" textLength="127" x="381.3" y="1498.3154">ProtocolSegment</text><line style="stroke:#181818;stroke-width:0.5;" x1="353.3" x2="510.3" y1="1509.4688" y2="1509.4688"/><text fill="#000000" font-family="sans-serif" font-size="14" lengthAdjust="spacing" textLength="59" x="358.3" y="1526.4639">Id string</text><text fill="#000000" font-family="sans-serif" font-size="14" lengthAdjust="spacing" textLength="87" x="358.3" y="1542.7607">Name string</text><line style="stroke:#181818;stroke-width:0.5;" x1="353.3" x2="510.3" y1="1550.0625" y2="1550.0625"/></g><!--class Function--><g id="elem_Function"><rect codeLine="164" fill="#F1F1F1" height="145.7813" id="Function" rx="2.5" ry="2.5" style="stroke:#181818;stroke-width:0.5;" width="151" x="1295.8" y="1795.2969"/><ellipse cx="1336.45" cy="1811.2969" fill="#ADD1B2" rx="11" ry="11" style="stroke:#181818;stroke-width:1.0;"/><path d="M1338.7938,1806.9688 C1337.8563,1806.5313 1337.2625,1806.3906 1336.3875,1806.3906 C1333.7625,1806.3906 1331.7625,1808.4688 1331.7625,1811.1875 L1331.7625,1812.3125 C1331.7625,1814.8906 1333.8719,1816.7813 1336.7625,1816.7813 C1337.9813,1816.7813 1339.1375,1816.4844 1339.8875,1815.9375 C1340.4656,1815.5313 1340.7938,1815.0781 1340.7938,1814.6875 C1340.7938,1814.2344 1340.4031,1813.8438 1339.9344,1813.8438 C1339.7156,1813.8438 1339.5125,1813.9219 1339.325,1814.1094 C1338.8719,1814.5938 1338.8719,1814.5938 1338.6844,1814.6875 C1338.2625,1814.9531 1337.575,1815.0781 1336.8094,1815.0781 C1334.7625,1815.0781 1333.4656,1813.9844 1333.4656,1812.2813 L1333.4656,1811.1875 C1333.4656,1809.4063 1334.7156,1808.0938 1336.45,1808.0938 C1337.0281,1808.0938 1337.6375,1808.25 1338.1063,1808.5 C1338.5906,1808.7813 1338.7625,1809 1338.8563,1809.4063 C1338.9188,1809.8125 1338.95,1809.9375 1339.0906,1810.0625 C1339.2313,1810.2031 1339.4656,1810.3125 1339.6844,1810.3125 C1339.95,1810.3125 1340.2156,1810.1719 1340.3875,1809.9531 C1340.4969,1809.7969 1340.5281,1809.6094 1340.5281,1809.1875 L1340.5281,1807.7656 C1340.5281,1807.3281 1340.5125,1807.2031 1340.4188,1807.0469 C1340.2625,1806.7813 1339.9813,1806.6406 1339.6844,1806.6406 C1339.3875,1806.6406 1339.1844,1806.7344 1338.9656,1807.0469 L1338.7938,1806.9688 Z " fill="#000000"/><text fill="#000000" font-family="sans-serif" font-size="14" lengthAdjust="spacing" textLength="62" x="1356.15" y="1816.1436">Function</text><line style="stroke:#181818;stroke-width:0.5;" x1="1296.8" x2="1445.8" y1="1827.2969" y2="1827.2969"/><text fill="#000000" font-family="sans-serif" font-size="14" lengthAdjust="spacing" textLength="59" x="1301.8" y="1844.292">Id string</text><text fill="#000000" font-family="sans-serif" font-size="14" lengthAdjust="spacing" textLength="87" x="1301.8" y="1860.5889">Name string</text><text fill="#000000" font-family="sans-serif" font-size="14" lengthAdjust="spacing" textLength="139" x="1301.8" y="1876.8857">DisplayName string</text><text fill="#000000" font-family="sans-serif" font-size="14" lengthAdjust="spacing" textLength="130" x="1301.8" y="1893.1826">Description string</text><text fill="#000000" font-family="sans-serif" font-size="14" lengthAdjust="spacing" textLength="121" x="1301.8" y="1909.4795">ConceptId string</text><text fill="#000000" font-family="sans-serif" font-size="14" lengthAdjust="spacing" textLength="107" x="1301.8" y="1925.7764">RdfType string</text><line style="stroke:#181818;stroke-width:0.5;" x1="1296.8" x2="1445.8" y1="1933.0781" y2="1933.0781"/></g><!--class Device--><g id="elem_Device"><rect codeLine="108" fill="#F1F1F1" height="129.4844" id="Device" rx="2.5" ry="2.5" style="stroke:#181818;stroke-width:0.5;" width="169" x="924.2167" y="478.3906"/><ellipse cx="979.9667" cy="494.3906" fill="#ADD1B2" rx="11" ry="11" style="stroke:#181818;stroke-width:1.0;"/><path d="M982.3104,490.0625 C981.3729,489.625 980.7792,489.4844 979.9042,489.4844 C977.2792,489.4844 975.2792,491.5625 975.2792,494.2813 L975.2792,495.4063 C975.2792,497.9844 977.3885,499.875 980.2792,499.875 C981.4979,499.875 982.6542,499.5781 983.4042,499.0313 C983.9823,498.625 984.3104,498.1719 984.3104,497.7813 C984.3104,497.3281 983.9198,496.9375 983.451,496.9375 C983.2323,496.9375 983.0292,497.0156 982.8417,497.2031 C982.3885,497.6875 982.3885,497.6875 982.201,497.7813 C981.7792,498.0469 981.0917,498.1719 980.326,498.1719 C978.2792,498.1719 976.9823,497.0781 976.9823,495.375 L976.9823,494.2813 C976.9823,492.5 978.2323,491.1875 979.9667,491.1875 C980.5448,491.1875 981.1542,491.3438 981.6229,491.5938 C982.1073,491.875 982.2792,492.0938 982.3729,492.5 C982.4354,492.9063 982.4667,493.0313 982.6073,493.1563 C982.7479,493.2969 982.9823,493.4063 983.201,493.4063 C983.4667,493.4063 983.7323,493.2656 983.9042,493.0469 C984.0135,492.8906 984.0448,492.7031 984.0448,492.2813 L984.0448,490.8594 C984.0448,490.4219 984.0292,490.2969 983.9354,490.1406 C983.7792,489.875 983.4979,489.7344 983.201,489.7344 C982.9042,489.7344 982.701,489.8281 982.4823,490.1406 L982.3104,490.0625 Z " fill="#000000"/><text fill="#000000" font-family="sans-serif" font-size="14" lengthAdjust="spacing" textLength="49" x="1000.4667" y="499.2373">Device</text><line style="stroke:#181818;stroke-width:0.5;" x1="925.2167" x2="1092.2167" y1="510.3906" y2="510.3906"/><text fill="#000000" font-family="sans-serif" font-size="14" lengthAdjust="spacing" textLength="59" x="930.2167" y="527.3857">Id string</text><text fill="#000000" font-family="sans-serif" font-size="14" lengthAdjust="spacing" textLength="96" x="930.2167" y="543.6826">LocalId string</text><text fill="#000000" font-family="sans-serif" font-size="14" lengthAdjust="spacing" textLength="87" x="930.2167" y="559.9795">Name string</text><text fill="#000000" font-family="sans-serif" font-size="14" lengthAdjust="spacing" textLength="157" x="930.2167" y="576.2764">Attributes []Attribute</text><text fill="#000000" font-family="sans-serif" font-size="14" lengthAdjust="spacing" textLength="144" x="930.2167" y="592.5732">DeviceTypeId string</text><line style="stroke:#181818;stroke-width:0.5;" x1="925.2167" x2="1092.2167" y1="599.875" y2="599.875"/></g><!--class DeviceType--><g id="elem_DeviceType"><rect codeLine="150" fill="#F1F1F1" height="162.0781" id="DeviceType" rx="2.5" ry="2.5" style="stroke:#181818;stroke-width:0.5;" width="227" x="923.3833" y="682.1406"/><ellipse cx="990.1333" cy="698.1406" fill="#ADD1B2" rx="11" ry="11" style="stroke:#181818;stroke-width:1.0;"/><path d="M992.4771,693.8125 C991.5396,693.375 990.9458,693.2344 990.0708,693.2344 C987.4458,693.2344 985.4458,695.3125 985.4458,698.0313 L985.4458,699.1563 C985.4458,701.7344 987.5552,703.625 990.4458,703.625 C991.6646,703.625 992.8208,703.3281 993.5708,702.7813 C994.149,702.375 994.4771,701.9219 994.4771,701.5313 C994.4771,701.0781 994.0865,700.6875 993.6177,700.6875 C993.399,700.6875 993.1958,700.7656 993.0083,700.9531 C992.5552,701.4375 992.5552,701.4375 992.3677,701.5313 C991.9458,701.7969 991.2583,701.9219 990.4927,701.9219 C988.4458,701.9219 987.149,700.8281 987.149,699.125 L987.149,698.0313 C987.149,696.25 988.399,694.9375 990.1333,694.9375 C990.7115,694.9375 991.3208,695.0938 991.7896,695.3438 C992.274,695.625 992.4458,695.8438 992.5396,696.25 C992.6021,696.6563 992.6333,696.7813 992.774,696.9063 C992.9146,697.0469 993.149,697.1563 993.3677,697.1563 C993.6333,697.1563 993.899,697.0156 994.0708,696.7969 C994.1802,696.6406 994.2115,696.4531 994.2115,696.0313 L994.2115,694.6094 C994.2115,694.1719 994.1958,694.0469 994.1021,693.8906 C993.9458,693.625 993.6646,693.4844 993.3677,693.4844 C993.0708,693.4844 992.8677,693.5781 992.649,693.8906 L992.4771,693.8125 Z " fill="#000000"/><text fill="#000000" font-family="sans-serif" font-size="14" lengthAdjust="spacing" textLength="85" x="1010.6333" y="702.9873">DeviceType</text><line style="stroke:#181818;stroke-width:0.5;" x1="924.3833" x2="1149.3833" y1="714.1406" y2="714.1406"/><text fill="#000000" font-family="sans-serif" font-size="14" lengthAdjust="spacing" textLength="59" x="929.3833" y="731.1357">Id string</text><text fill="#000000" font-family="sans-serif" font-size="14" lengthAdjust="spacing" textLength="87" x="929.3833" y="747.4326">Name string</text><text fill="#000000" font-family="sans-serif" font-size="14" lengthAdjust="spacing" textLength="130" x="929.3833" y="763.7295">Description string</text><text fill="#000000" font-family="sans-serif" font-size="14" lengthAdjust="spacing" textLength="215" x="929.3833" y="780.0264">ServiceGroups []ServiceGroup</text><text fill="#000000" font-family="sans-serif" font-size="14" lengthAdjust="spacing" textLength="127" x="929.3833" y="796.3232">Services []Service</text><text fill="#000000" font-family="sans-serif" font-size="14" lengthAdjust="spacing" textLength="144" x="929.3833" y="812.6201">DeviceClassId string</text><text fill="#000000" font-family="sans-serif" font-size="14" lengthAdjust="spacing" textLength="157" x="929.3833" y="828.917">Attributes []Attribute</text><line style="stroke:#181818;stroke-width:0.5;" x1="924.3833" x2="1149.3833" y1="836.2188" y2="836.2188"/></g><!--class DeviceClass--><g id="elem_DeviceClass"><rect codeLine="118" fill="#F1F1F1" height="96.8906" id="DeviceClass" rx="2.5" ry="2.5" style="stroke:#181818;stroke-width:0.5;" width="117" x="1094.8" y="1278.8516"/><ellipse cx="1109.8" cy="1294.8516" fill="#ADD1B2" rx="11" ry="11" style="stroke:#181818;stroke-width:1.0;"/><path d="M1112.1438,1290.5234 C1111.2063,1290.0859 1110.6125,1289.9453 1109.7375,1289.9453 C1107.1125,1289.9453 1105.1125,1292.0234 1105.1125,1294.7422 L1105.1125,1295.8672 C1105.1125,1298.4453 1107.2219,1300.3359 1110.1125,1300.3359 C1111.3313,1300.3359 1112.4875,1300.0391 1113.2375,1299.4922 C1113.8156,1299.0859 1114.1438,1298.6328 1114.1438,1298.2422 C1114.1438,1297.7891 1113.7531,1297.3984 1113.2844,1297.3984 C1113.0656,1297.3984 1112.8625,1297.4766 1112.675,1297.6641 C1112.2219,1298.1484 1112.2219,1298.1484 1112.0344,1298.2422 C1111.6125,1298.5078 1110.925,1298.6328 1110.1594,1298.6328 C1108.1125,1298.6328 1106.8156,1297.5391 1106.8156,1295.8359 L1106.8156,1294.7422 C1106.8156,1292.9609 1108.0656,1291.6484 1109.8,1291.6484 C1110.3781,1291.6484 1110.9875,1291.8047 1111.4563,1292.0547 C1111.9406,1292.3359 1112.1125,1292.5547 1112.2063,1292.9609 C1112.2688,1293.3672 1112.3,1293.4922 1112.4406,1293.6172 C1112.5813,1293.7578 1112.8156,1293.8672 1113.0344,1293.8672 C1113.3,1293.8672 1113.5656,1293.7266 1113.7375,1293.5078 C1113.8469,1293.3516 1113.8781,1293.1641 1113.8781,1292.7422 L1113.8781,1291.3203 C1113.8781,1290.8828 1113.8625,1290.7578 1113.7688,1290.6016 C1113.6125,1290.3359 1113.3313,1290.1953 1113.0344,1290.1953 C1112.7375,1290.1953 1112.5344,1290.2891 1112.3156,1290.6016 L1112.1438,1290.5234 Z " fill="#000000"/><text fill="#000000" font-family="sans-serif" font-size="14" lengthAdjust="spacing" textLength="85" x="1123.8" y="1299.6982">DeviceClass</text><line style="stroke:#181818;stroke-width:0.5;" x1="1095.8" x2="1210.8" y1="1310.8516" y2="1310.8516"/><text fill="#000000" font-family="sans-serif" font-size="14" lengthAdjust="spacing" textLength="59" x="1100.8" y="1327.8467">Id string</text><text fill="#000000" font-family="sans-serif" font-size="14" lengthAdjust="spacing" textLength="90" x="1100.8" y="1344.1436">Image string</text><text fill="#000000" font-family="sans-serif" font-size="14" lengthAdjust="spacing" textLength="87" x="1100.8" y="1360.4404">Name string</text><line style="stroke:#181818;stroke-width:0.5;" x1="1095.8" x2="1210.8" y1="1367.7422" y2="1367.7422"/></g><!--class DeviceGroup--><g id="elem_DeviceGroup"><rect codeLine="126" fill="#F1F1F1" height="162.0781" id="DeviceGroup" rx="2.5" ry="2.5" style="stroke:#181818;stroke-width:0.5;" width="265" x="1132.6167" y="232.0469"/><ellipse cx="1214.3667" cy="248.0469" fill="#ADD1B2" rx="11" ry="11" style="stroke:#181818;stroke-width:1.0;"/><path d="M1216.7104,243.7188 C1215.7729,243.2813 1215.1792,243.1406 1214.3042,243.1406 C1211.6792,243.1406 1209.6792,245.2188 1209.6792,247.9375 L1209.6792,249.0625 C1209.6792,251.6406 1211.7885,253.5313 1214.6792,253.5313 C1215.8979,253.5313 1217.0542,253.2344 1217.8042,252.6875 C1218.3823,252.2813 1218.7104,251.8281 1218.7104,251.4375 C1218.7104,250.9844 1218.3198,250.5938 1217.851,250.5938 C1217.6323,250.5938 1217.4292,250.6719 1217.2417,250.8594 C1216.7885,251.3438 1216.7885,251.3438 1216.601,251.4375 C1216.1792,251.7031 1215.4917,251.8281 1214.726,251.8281 C1212.6792,251.8281 1211.3823,250.7344 1211.3823,249.0313 L1211.3823,247.9375 C1211.3823,246.1563 1212.6323,244.8438 1214.3667,244.8438 C1214.9448,244.8438 1215.5542,245 1216.0229,245.25 C1216.5073,245.5313 1216.6792,245.75 1216.7729,246.1563 C1216.8354,246.5625 1216.8667,246.6875 1217.0073,246.8125 C1217.1479,246.9531 1217.3823,247.0625 1217.601,247.0625 C1217.8667,247.0625 1218.1323,246.9219 1218.3042,246.7031 C1218.4135,246.5469 1218.4448,246.3594 1218.4448,245.9375 L1218.4448,244.5156 C1218.4448,244.0781 1218.4292,243.9531 1218.3354,243.7969 C1218.1792,243.5313 1217.8979,243.3906 1217.601,243.3906 C1217.3042,243.3906 1217.101,243.4844 1216.8823,243.7969 L1216.7104,243.7188 Z " fill="#000000"/><text fill="#000000" font-family="sans-serif" font-size="14" lengthAdjust="spacing" textLength="93" x="1234.8667" y="252.8936">DeviceGroup</text><line style="stroke:#181818;stroke-width:0.5;" x1="1133.6167" x2="1396.6167" y1="264.0469" y2="264.0469"/><text fill="#000000" font-family="sans-serif" font-size="14" lengthAdjust="spacing" textLength="59" x="1138.6167" y="281.042">Id string</text><text fill="#000000" font-family="sans-serif" font-size="14" lengthAdjust="spacing" textLength="87" x="1138.6167" y="297.3389">Name string</text><text fill="#000000" font-family="sans-serif" font-size="14" lengthAdjust="spacing" textLength="90" x="1138.6167" y="313.6357">Image string</text><text fill="#000000" font-family="sans-serif" font-size="14" lengthAdjust="spacing" textLength="253" x="1138.6167" y="329.9326">Criteria []DeviceGroupFilterCriteria</text><text fill="#000000" font-family="sans-serif" font-size="14" lengthAdjust="spacing" textLength="125" x="1138.6167" y="346.2295">DeviceIds []string</text><text fill="#000000" font-family="sans-serif" font-size="14" lengthAdjust="spacing" textLength="150" x="1138.6167" y="362.5264">CriteriaShort []string</text><text fill="#000000" font-family="sans-serif" font-size="14" lengthAdjust="spacing" textLength="157" x="1138.6167" y="378.8232">Attributes []Attribute</text><line style="stroke:#181818;stroke-width:0.5;" x1="1133.6167" x2="1396.6167" y1="386.125" y2="386.125"/></g><!--class DeviceGroupFilterCriteria--><g id="elem_DeviceGroupFilterCriteria"><rect codeLine="139" fill="#F1F1F1" height="113.1875" id="DeviceGroupFilterCriteria" rx="2.5" ry="2.5" style="stroke:#181818;stroke-width:0.5;" width="217" x="1222.8667" y="1026.7094"/><ellipse cx="1237.8667" cy="1042.7094" fill="#ADD1B2" rx="11" ry="11" style="stroke:#181818;stroke-width:1.0;"/><path d="M1240.2104,1038.3813 C1239.2729,1037.9438 1238.6792,1037.8031 1237.8042,1037.8031 C1235.1792,1037.8031 1233.1792,1039.8813 1233.1792,1042.6 L1233.1792,1043.725 C1233.1792,1046.3031 1235.2885,1048.1938 1238.1792,1048.1938 C1239.3979,1048.1938 1240.5542,1047.8969 1241.3042,1047.35 C1241.8823,1046.9438 1242.2104,1046.4906 1242.2104,1046.1 C1242.2104,1045.6469 1241.8198,1045.2563 1241.351,1045.2563 C1241.1323,1045.2563 1240.9292,1045.3344 1240.7417,1045.5219 C1240.2885,1046.0063 1240.2885,1046.0063 1240.101,1046.1 C1239.6792,1046.3656 1238.9917,1046.4906 1238.226,1046.4906 C1236.1792,1046.4906 1234.8823,1045.3969 1234.8823,1043.6938 L1234.8823,1042.6 C1234.8823,1040.8188 1236.1323,1039.5063 1237.8667,1039.5063 C1238.4448,1039.5063 1239.0542,1039.6625 1239.5229,1039.9125 C1240.0073,1040.1938 1240.1792,1040.4125 1240.2729,1040.8188 C1240.3354,1041.225 1240.3667,1041.35 1240.5073,1041.475 C1240.6479,1041.6156 1240.8823,1041.725 1241.101,1041.725 C1241.3667,1041.725 1241.6323,1041.5844 1241.8042,1041.3656 C1241.9135,1041.2094 1241.9448,1041.0219 1241.9448,1040.6 L1241.9448,1039.1781 C1241.9448,1038.7406 1241.9292,1038.6156 1241.8354,1038.4594 C1241.6792,1038.1938 1241.3979,1038.0531 1241.101,1038.0531 C1240.8042,1038.0531 1240.601,1038.1469 1240.3823,1038.4594 L1240.2104,1038.3813 Z " fill="#000000"/><text fill="#000000" font-family="sans-serif" font-size="14" lengthAdjust="spacing" textLength="185" x="1251.8667" y="1047.5561">DeviceGroupFilterCriteria</text><line style="stroke:#181818;stroke-width:0.5;" x1="1223.8667" x2="1438.8667" y1="1058.7094" y2="1058.7094"/><text fill="#000000" font-family="sans-serif" font-size="14" lengthAdjust="spacing" textLength="164" x="1228.8667" y="1075.7045">Interaction Interaction</text><text fill="#000000" font-family="sans-serif" font-size="14" lengthAdjust="spacing" textLength="121" x="1228.8667" y="1092.0014">FunctionId string</text><text fill="#000000" font-family="sans-serif" font-size="14" lengthAdjust="spacing" textLength="110" x="1228.8667" y="1108.2982">AspectId string</text><text fill="#000000" font-family="sans-serif" font-size="14" lengthAdjust="spacing" textLength="144" x="1228.8667" y="1124.5951">DeviceClassId string</text><line style="stroke:#181818;stroke-width:0.5;" x1="1223.8667" x2="1438.8667" y1="1131.8969" y2="1131.8969"/></g><!--class Interaction--><g id="elem_Interaction"><rect codeLine="249" fill="#F1F1F1" height="96.8906" id="Interaction" rx="2.5" ry="2.5" style="stroke:#181818;stroke-width:0.5;" width="134" x="940.8" y="1278.8516"/><ellipse cx="965.7" cy="1294.8516" fill="#EB937F" rx="11" ry="11" style="stroke:#181818;stroke-width:1.0;"/><path d="M964.4969,1295.7266 L965.95,1295.7266 L965.95,1295.8359 C965.95,1296.2422 965.9813,1296.3984 966.0594,1296.5547 C966.2156,1296.8047 966.4969,1296.9609 966.7938,1296.9609 C967.0438,1296.9609 967.3094,1296.8203 967.4656,1296.6016 C967.5906,1296.4453 967.6219,1296.2891 967.6219,1295.8359 L967.6219,1293.9141 C967.6219,1293.7578 967.6219,1293.7109 967.6063,1293.5547 C967.5438,1293.0859 967.2313,1292.7734 966.7781,1292.7734 C966.5281,1292.7734 966.2625,1292.9141 966.0906,1293.1328 C965.9813,1293.3047 965.95,1293.4609 965.95,1293.9141 L965.95,1294.0391 L964.4969,1294.0391 L964.4969,1291.6328 L968.4813,1291.6328 L968.4813,1292.4922 C968.4813,1292.8984 968.5125,1293.0703 968.5906,1293.2266 C968.7625,1293.4766 969.0438,1293.6328 969.325,1293.6328 C969.5906,1293.6328 969.8563,1293.4922 970.0281,1293.2734 C970.1375,1293.1016 970.1688,1292.9609 970.1688,1292.4922 L970.1688,1289.9453 L962.5438,1289.9453 C962.1063,1289.9453 961.9813,1289.9609 961.825,1290.0547 C961.575,1290.2109 961.4188,1290.5078 961.4188,1290.7891 C961.4188,1291.0703 961.5594,1291.3203 961.7781,1291.4922 C961.9344,1291.6016 962.1219,1291.6328 962.5438,1291.6328 L962.7938,1291.6328 L962.7938,1298.1484 L962.5438,1298.1484 C962.1375,1298.1484 961.9813,1298.1641 961.825,1298.2734 C961.575,1298.4453 961.4188,1298.7109 961.4188,1299.0078 C961.4188,1299.2734 961.5594,1299.5234 961.7781,1299.6797 C961.9188,1299.8047 962.1531,1299.8516 962.5438,1299.8516 L970.5438,1299.8516 L970.5438,1297.2734 C970.5438,1296.8359 970.5125,1296.6953 970.4344,1296.5391 C970.2625,1296.2891 969.9813,1296.1328 969.7,1296.1328 C969.4344,1296.1328 969.1688,1296.2422 968.9969,1296.4922 C968.8875,1296.6484 968.8563,1296.7891 968.8563,1297.2734 L968.8563,1298.1484 L964.4969,1298.1484 L964.4969,1295.7266 Z " fill="#000000"/><text fill="#000000" font-family="sans-serif" font-size="14" lengthAdjust="spacing" textLength="80" x="981.9" y="1299.6982">Interaction</text><line style="stroke:#181818;stroke-width:0.5;" x1="941.8" x2="1073.8" y1="1310.8516" y2="1310.8516"/><text fill="#000000" font-family="sans-serif" font-size="14" lengthAdjust="spacing" textLength="56" x="946.8" y="1327.8467">"event"</text><text fill="#000000" font-family="sans-serif" font-size="14" lengthAdjust="spacing" textLength="69" x="946.8" y="1344.1436">"request"</text><text fill="#000000" font-family="sans-serif" font-size="14" lengthAdjust="spacing" textLength="122" x="946.8" y="1360.4404">"event+request"</text><line style="stroke:#181818;stroke-width:0.5;" x1="941.8" x2="1073.8" y1="1367.7422" y2="1367.7422"/></g><!--class Service--><g id="elem_Service"><rect codeLine="223" fill="#F1F1F1" height="210.9688" id="Service" rx="2.5" ry="2.5" style="stroke:#181818;stroke-width:0.5;" width="182" x="864.4667" y="948.4844"/><ellipse cx="924.7167" cy="964.4844" fill="#ADD1B2" rx="11" ry="11" style="stroke:#181818;stroke-width:1.0;"/><path d="M927.0604,960.1563 C926.1229,959.7188 925.5292,959.5781 924.6542,959.5781 C922.0292,959.5781 920.0292,961.6563 920.0292,964.375 L920.0292,965.5 C920.0292,968.0781 922.1385,969.9688 925.0292,969.9688 C926.2479,969.9688 927.4042,969.6719 928.1542,969.125 C928.7323,968.7188 929.0604,968.2656 929.0604,967.875 C929.0604,967.4219 928.6698,967.0313 928.201,967.0313 C927.9823,967.0313 927.7792,967.1094 927.5917,967.2969 C927.1385,967.7813 927.1385,967.7813 926.951,967.875 C926.5292,968.1406 925.8417,968.2656 925.076,968.2656 C923.0292,968.2656 921.7323,967.1719 921.7323,965.4688 L921.7323,964.375 C921.7323,962.5938 922.9823,961.2813 924.7167,961.2813 C925.2948,961.2813 925.9042,961.4375 926.3729,961.6875 C926.8573,961.9688 927.0292,962.1875 927.1229,962.5938 C927.1854,963 927.2167,963.125 927.3573,963.25 C927.4979,963.3906 927.7323,963.5 927.951,963.5 C928.2167,963.5 928.4823,963.3594 928.6542,963.1406 C928.7635,962.9844 928.7948,962.7969 928.7948,962.375 L928.7948,960.9531 C928.7948,960.5156 928.7792,960.3906 928.6854,960.2344 C928.5292,959.9688 928.2479,959.8281 927.951,959.8281 C927.6542,959.8281 927.451,959.9219 927.2323,960.2344 L927.0604,960.1563 Z " fill="#000000"/><text fill="#000000" font-family="sans-serif" font-size="14" lengthAdjust="spacing" textLength="53" x="945.2167" y="969.3311">Service</text><line style="stroke:#181818;stroke-width:0.5;" x1="865.4667" x2="1045.4667" y1="980.4844" y2="980.4844"/><text fill="#000000" font-family="sans-serif" font-size="14" lengthAdjust="spacing" textLength="59" x="870.4667" y="997.4795">Id string</text><text fill="#000000" font-family="sans-serif" font-size="14" lengthAdjust="spacing" textLength="96" x="870.4667" y="1013.7764">LocalId string</text><text fill="#000000" font-family="sans-serif" font-size="14" lengthAdjust="spacing" textLength="87" x="870.4667" y="1030.0732">Name string</text><text fill="#000000" font-family="sans-serif" font-size="14" lengthAdjust="spacing" textLength="130" x="870.4667" y="1046.3701">Description string</text><text fill="#000000" font-family="sans-serif" font-size="14" lengthAdjust="spacing" textLength="164" x="870.4667" y="1062.667">Interaction Interaction</text><text fill="#000000" font-family="sans-serif" font-size="14" lengthAdjust="spacing" textLength="120" x="870.4667" y="1078.9639">ProtocolId string</text><text fill="#000000" font-family="sans-serif" font-size="14" lengthAdjust="spacing" textLength="119" x="870.4667" y="1095.2607">Inputs []Content</text><text fill="#000000" font-family="sans-serif" font-size="14" lengthAdjust="spacing" textLength="132" x="870.4667" y="1111.5576">Outputs []Content</text><text fill="#000000" font-family="sans-serif" font-size="14" lengthAdjust="spacing" textLength="157" x="870.4667" y="1127.8545">Attributes []Attribute</text><text fill="#000000" font-family="sans-serif" font-size="14" lengthAdjust="spacing" textLength="170" x="870.4667" y="1144.1514">ServiceGroupKey string</text><line style="stroke:#181818;stroke-width:0.5;" x1="865.4667" x2="1045.4667" y1="1151.4531" y2="1151.4531"/></g><!--class ServiceGroup--><g id="elem_ServiceGroup"><rect codeLine="241" fill="#F1F1F1" height="96.8906" id="ServiceGroup" rx="2.5" ry="2.5" style="stroke:#181818;stroke-width:0.5;" width="142" x="12" y="1278.8516"/><ellipse cx="32.85" cy="1294.8516" fill="#ADD1B2" rx="11" ry="11" style="stroke:#181818;stroke-width:1.0;"/><path d="M35.1938,1290.5234 C34.2563,1290.0859 33.6625,1289.9453 32.7875,1289.9453 C30.1625,1289.9453 28.1625,1292.0234 28.1625,1294.7422 L28.1625,1295.8672 C28.1625,1298.4453 30.2719,1300.3359 33.1625,1300.3359 C34.3813,1300.3359 35.5375,1300.0391 36.2875,1299.4922 C36.8656,1299.0859 37.1938,1298.6328 37.1938,1298.2422 C37.1938,1297.7891 36.8031,1297.3984 36.3344,1297.3984 C36.1156,1297.3984 35.9125,1297.4766 35.725,1297.6641 C35.2719,1298.1484 35.2719,1298.1484 35.0844,1298.2422 C34.6625,1298.5078 33.975,1298.6328 33.2094,1298.6328 C31.1625,1298.6328 29.8656,1297.5391 29.8656,1295.8359 L29.8656,1294.7422 C29.8656,1292.9609 31.1156,1291.6484 32.85,1291.6484 C33.4281,1291.6484 34.0375,1291.8047 34.5063,1292.0547 C34.9906,1292.3359 35.1625,1292.5547 35.2563,1292.9609 C35.3188,1293.3672 35.35,1293.4922 35.4906,1293.6172 C35.6313,1293.7578 35.8656,1293.8672 36.0844,1293.8672 C36.35,1293.8672 36.6156,1293.7266 36.7875,1293.5078 C36.8969,1293.3516 36.9281,1293.1641 36.9281,1292.7422 L36.9281,1291.3203 C36.9281,1290.8828 36.9125,1290.7578 36.8188,1290.6016 C36.6625,1290.3359 36.3813,1290.1953 36.0844,1290.1953 C35.7875,1290.1953 35.5844,1290.2891 35.3656,1290.6016 L35.1938,1290.5234 Z " fill="#000000"/><text fill="#000000" font-family="sans-serif" font-size="14" lengthAdjust="spacing" textLength="97" x="48.15" y="1299.6982">ServiceGroup</text><line style="stroke:#181818;stroke-width:0.5;" x1="13" x2="153" y1="1310.8516" y2="1310.8516"/><text fill="#000000" font-family="sans-serif" font-size="14" lengthAdjust="spacing" textLength="73" x="18" y="1327.8467">Key string</text><text fill="#000000" font-family="sans-serif" font-size="14" lengthAdjust="spacing" textLength="87" x="18" y="1344.1436">Name string</text><text fill="#000000" font-family="sans-serif" font-size="14" lengthAdjust="spacing" textLength="130" x="18" y="1360.4404">Description string</text><line style="stroke:#181818;stroke-width:0.5;" x1="13" x2="153" y1="1367.7422" y2="1367.7422"/></g><!--class Hub--><g id="elem_Hub"><rect codeLine="175" fill="#F1F1F1" height="129.4844" id="Hub" rx="2.5" ry="2.5" style="stroke:#181818;stroke-width:0.5;" width="174" x="744.6167" y="264.6406"/><ellipse cx="813.3667" cy="280.6406" fill="#ADD1B2" rx="11" ry="11" style="stroke:#181818;stroke-width:1.0;"/><path d="M815.7104,276.3125 C814.7729,275.875 814.1792,275.7344 813.3042,275.7344 C810.6792,275.7344 808.6792,277.8125 808.6792,280.5313 L808.6792,281.6563 C808.6792,284.2344 810.7885,286.125 813.6792,286.125 C814.8979,286.125 816.0542,285.8281 816.8042,285.2813 C817.3823,284.875 817.7104,284.4219 817.7104,284.0313 C817.7104,283.5781 817.3198,283.1875 816.851,283.1875 C816.6323,283.1875 816.4292,283.2656 816.2417,283.4531 C815.7885,283.9375 815.7885,283.9375 815.601,284.0313 C815.1792,284.2969 814.4917,284.4219 813.726,284.4219 C811.6792,284.4219 810.3823,283.3281 810.3823,281.625 L810.3823,280.5313 C810.3823,278.75 811.6323,277.4375 813.3667,277.4375 C813.9448,277.4375 814.5542,277.5938 815.0229,277.8438 C815.5073,278.125 815.6792,278.3438 815.7729,278.75 C815.8354,279.1563 815.8667,279.2813 816.0073,279.4063 C816.1479,279.5469 816.3823,279.6563 816.601,279.6563 C816.8667,279.6563 817.1323,279.5156 817.3042,279.2969 C817.4135,279.1406 817.4448,278.9531 817.4448,278.5313 L817.4448,277.1094 C817.4448,276.6719 817.4292,276.5469 817.3354,276.3906 C817.1792,276.125 816.8979,275.9844 816.601,275.9844 C816.3042,275.9844 816.101,276.0781 815.8823,276.3906 L815.7104,276.3125 Z " fill="#000000"/><text fill="#000000" font-family="sans-serif" font-size="14" lengthAdjust="spacing" textLength="28" x="833.8667" y="285.4873">Hub</text><line style="stroke:#181818;stroke-width:0.5;" x1="745.6167" x2="917.6167" y1="296.6406" y2="296.6406"/><text fill="#000000" font-family="sans-serif" font-size="14" lengthAdjust="spacing" textLength="59" x="750.6167" y="313.6357">Id string</text><text fill="#000000" font-family="sans-serif" font-size="14" lengthAdjust="spacing" textLength="87" x="750.6167" y="329.9326">Name string</text><text fill="#000000" font-family="sans-serif" font-size="14" lengthAdjust="spacing" textLength="80" x="750.6167" y="346.2295">Hash string</text><text fill="#000000" font-family="sans-serif" font-size="14" lengthAdjust="spacing" textLength="162" x="750.6167" y="362.5264">DeviceLocalIds []string</text><text fill="#000000" font-family="sans-serif" font-size="14" lengthAdjust="spacing" textLength="125" x="750.6167" y="378.8232">DeviceIds []string</text><line style="stroke:#181818;stroke-width:0.5;" x1="745.6167" x2="917.6167" y1="386.125" y2="386.125"/></g><!--class HubEdit--><g id="elem_HubEdit"><rect codeLine="185" fill="#F1F1F1" height="113.1875" id="HubEdit" rx="2.5" ry="2.5" style="stroke:#181818;stroke-width:0.5;" width="174" x="938.6167" y="280.9375"/><ellipse cx="992.8667" cy="296.9375" fill="#ADD1B2" rx="11" ry="11" style="stroke:#181818;stroke-width:1.0;"/><path d="M995.2104,292.6094 C994.2729,292.1719 993.6792,292.0313 992.8042,292.0313 C990.1792,292.0313 988.1792,294.1094 988.1792,296.8281 L988.1792,297.9531 C988.1792,300.5313 990.2885,302.4219 993.1792,302.4219 C994.3979,302.4219 995.5542,302.125 996.3042,301.5781 C996.8823,301.1719 997.2104,300.7188 997.2104,300.3281 C997.2104,299.875 996.8198,299.4844 996.351,299.4844 C996.1323,299.4844 995.9292,299.5625 995.7417,299.75 C995.2885,300.2344 995.2885,300.2344 995.101,300.3281 C994.6792,300.5938 993.9917,300.7188 993.226,300.7188 C991.1792,300.7188 989.8823,299.625 989.8823,297.9219 L989.8823,296.8281 C989.8823,295.0469 991.1323,293.7344 992.8667,293.7344 C993.4448,293.7344 994.0542,293.8906 994.5229,294.1406 C995.0073,294.4219 995.1792,294.6406 995.2729,295.0469 C995.3354,295.4531 995.3667,295.5781 995.5073,295.7031 C995.6479,295.8438 995.8823,295.9531 996.101,295.9531 C996.3667,295.9531 996.6323,295.8125 996.8042,295.5938 C996.9135,295.4375 996.9448,295.25 996.9448,294.8281 L996.9448,293.4063 C996.9448,292.9688 996.9292,292.8438 996.8354,292.6875 C996.6792,292.4219 996.3979,292.2813 996.101,292.2813 C995.8042,292.2813 995.601,292.375 995.3823,292.6875 L995.2104,292.6094 Z " fill="#000000"/><text fill="#000000" font-family="sans-serif" font-size="14" lengthAdjust="spacing" textLength="57" x="1013.3667" y="301.7842">HubEdit</text><line style="stroke:#181818;stroke-width:0.5;" x1="939.6167" x2="1111.6167" y1="312.9375" y2="312.9375"/><text fill="#000000" font-family="sans-serif" font-size="14" lengthAdjust="spacing" textLength="59" x="944.6167" y="329.9326">Id string</text><text fill="#000000" font-family="sans-serif" font-size="14" lengthAdjust="spacing" textLength="87" x="944.6167" y="346.2295">Name string</text><text fill="#000000" font-family="sans-serif" font-size="14" lengthAdjust="spacing" textLength="80" x="944.6167" y="362.5264">Hash string</text><text fill="#000000" font-family="sans-serif" font-size="14" lengthAdjust="spacing" textLength="162" x="944.6167" y="378.8232">DeviceLocalIds []string</text><line style="stroke:#181818;stroke-width:0.5;" x1="939.6167" x2="1111.6167" y1="386.125" y2="386.125"/></g><!--class Location--><g id="elem_Location"><rect codeLine="194" fill="#F1F1F1" height="145.7813" id="Location" rx="2.5" ry="2.5" style="stroke:#181818;stroke-width:0.5;" width="181" x="1144.45" y="12"/><ellipse cx="1199.7" cy="28" fill="#ADD1B2" rx="11" ry="11" style="stroke:#181818;stroke-width:1.0;"/><path d="M1202.0438,23.6719 C1201.1063,23.2344 1200.5125,23.0938 1199.6375,23.0938 C1197.0125,23.0938 1195.0125,25.1719 1195.0125,27.8906 L1195.0125,29.0156 C1195.0125,31.5938 1197.1219,33.4844 1200.0125,33.4844 C1201.2313,33.4844 1202.3875,33.1875 1203.1375,32.6406 C1203.7156,32.2344 1204.0438,31.7813 1204.0438,31.3906 C1204.0438,30.9375 1203.6531,30.5469 1203.1844,30.5469 C1202.9656,30.5469 1202.7625,30.625 1202.575,30.8125 C1202.1219,31.2969 1202.1219,31.2969 1201.9344,31.3906 C1201.5125,31.6563 1200.825,31.7813 1200.0594,31.7813 C1198.0125,31.7813 1196.7156,30.6875 1196.7156,28.9844 L1196.7156,27.8906 C1196.7156,26.1094 1197.9656,24.7969 1199.7,24.7969 C1200.2781,24.7969 1200.8875,24.9531 1201.3563,25.2031 C1201.8406,25.4844 1202.0125,25.7031 1202.1063,26.1094 C1202.1688,26.5156 1202.2,26.6406 1202.3406,26.7656 C1202.4813,26.9063 1202.7156,27.0156 1202.9344,27.0156 C1203.2,27.0156 1203.4656,26.875 1203.6375,26.6563 C1203.7469,26.5 1203.7781,26.3125 1203.7781,25.8906 L1203.7781,24.4688 C1203.7781,24.0313 1203.7625,23.9063 1203.6688,23.75 C1203.5125,23.4844 1203.2313,23.3438 1202.9344,23.3438 C1202.6375,23.3438 1202.4344,23.4375 1202.2156,23.75 L1202.0438,23.6719 Z " fill="#000000"/><text fill="#000000" font-family="sans-serif" font-size="14" lengthAdjust="spacing" textLength="62" x="1220.2" y="32.8467">Location</text><line style="stroke:#181818;stroke-width:0.5;" x1="1145.45" x2="1324.45" y1="44" y2="44"/><text fill="#000000" font-family="sans-serif" font-size="14" lengthAdjust="spacing" textLength="59" x="1150.45" y="60.9951">Id string</text><text fill="#000000" font-family="sans-serif" font-size="14" lengthAdjust="spacing" textLength="87" x="1150.45" y="77.292">Name string</text><text fill="#000000" font-family="sans-serif" font-size="14" lengthAdjust="spacing" textLength="130" x="1150.45" y="93.5889">Description string</text><text fill="#000000" font-family="sans-serif" font-size="14" lengthAdjust="spacing" textLength="90" x="1150.45" y="109.8857">Image string</text><text fill="#000000" font-family="sans-serif" font-size="14" lengthAdjust="spacing" textLength="125" x="1150.45" y="126.1826">DeviceIds []string</text><text fill="#000000" font-family="sans-serif" font-size="14" lengthAdjust="spacing" textLength="169" x="1150.45" y="142.4795">DeviceGroupIds []string</text><line style="stroke:#181818;stroke-width:0.5;" x1="1145.45" x2="1324.45" y1="149.7813" y2="149.7813"/></g><!--class Protocol--><g id="elem_Protocol"><rect codeLine="206" fill="#F1F1F1" height="129.4844" id="Protocol" rx="2.5" ry="2.5" style="stroke:#181818;stroke-width:0.5;" width="287" x="300.8" y="1263.7188"/><ellipse cx="409.55" cy="1279.7188" fill="#ADD1B2" rx="11" ry="11" style="stroke:#181818;stroke-width:1.0;"/><path d="M411.8937,1275.3906 C410.9562,1274.9531 410.3625,1274.8125 409.4875,1274.8125 C406.8625,1274.8125 404.8625,1276.8906 404.8625,1279.6094 L404.8625,1280.7344 C404.8625,1283.3125 406.9719,1285.2031 409.8625,1285.2031 C411.0812,1285.2031 412.2375,1284.9063 412.9875,1284.3594 C413.5656,1283.9531 413.8937,1283.5 413.8937,1283.1094 C413.8937,1282.6563 413.5031,1282.2656 413.0344,1282.2656 C412.8156,1282.2656 412.6125,1282.3438 412.425,1282.5313 C411.9719,1283.0156 411.9719,1283.0156 411.7844,1283.1094 C411.3625,1283.375 410.675,1283.5 409.9094,1283.5 C407.8625,1283.5 406.5656,1282.4063 406.5656,1280.7031 L406.5656,1279.6094 C406.5656,1277.8281 407.8156,1276.5156 409.55,1276.5156 C410.1281,1276.5156 410.7375,1276.6719 411.2062,1276.9219 C411.6906,1277.2031 411.8625,1277.4219 411.9562,1277.8281 C412.0187,1278.2344 412.05,1278.3594 412.1906,1278.4844 C412.3312,1278.625 412.5656,1278.7344 412.7844,1278.7344 C413.05,1278.7344 413.3156,1278.5938 413.4875,1278.375 C413.5969,1278.2188 413.6281,1278.0313 413.6281,1277.6094 L413.6281,1276.1875 C413.6281,1275.75 413.6125,1275.625 413.5187,1275.4688 C413.3625,1275.2031 413.0812,1275.0625 412.7844,1275.0625 C412.4875,1275.0625 412.2844,1275.1563 412.0656,1275.4688 L411.8937,1275.3906 Z " fill="#000000"/><text fill="#000000" font-family="sans-serif" font-size="14" lengthAdjust="spacing" textLength="61" x="430.05" y="1284.5654">Protocol</text><line style="stroke:#181818;stroke-width:0.5;" x1="301.8" x2="586.8" y1="1295.7188" y2="1295.7188"/><text fill="#000000" font-family="sans-serif" font-size="14" lengthAdjust="spacing" textLength="59" x="306.8" y="1312.7139">Id string</text><text fill="#000000" font-family="sans-serif" font-size="14" lengthAdjust="spacing" textLength="87" x="306.8" y="1329.0107">Name string</text><text fill="#000000" font-family="sans-serif" font-size="14" lengthAdjust="spacing" textLength="101" x="306.8" y="1345.3076">Handler string</text><text fill="#000000" font-family="sans-serif" font-size="14" lengthAdjust="spacing" textLength="275" x="306.8" y="1361.6045">ProtocolSegments []ProtocolSegment</text><text fill="#000000" font-family="sans-serif" font-size="14" lengthAdjust="spacing" textLength="139" x="306.8" y="1377.9014">Constraints []string</text><line style="stroke:#181818;stroke-width:0.5;" x1="301.8" x2="586.8" y1="1385.2031" y2="1385.2031"/></g><line style="stroke:#181818;stroke-width:1.0;" x1="1113.8" x2="1103.8" y1="1827.5938" y2="1827.5938"/><line style="stroke:#181818;stroke-width:1.0;" x1="1103.8" x2="1103.8" y1="1827.5938" y2="1859.8906"/><line style="stroke:#181818;stroke-width:1.0;" x1="1103.8" x2="1113.8" y1="1859.8906" y2="1859.8906"/><polygon fill="none" points="1113.8,1827.5938,1109.8,1833.5938,1113.8,1839.5938,1117.8,1833.5938,1113.8,1827.5938" style="stroke:#181818;stroke-width:1.0;"/><text fill="#000000" font-family="sans-serif" font-size="13" lengthAdjust="spacing" textLength="8" x="1093.8" y="1840.6763">1</text><text fill="#000000" font-family="sans-serif" font-size="13" lengthAdjust="spacing" textLength="23" x="1078.8" y="1855.8091">0..*</text><line style="stroke:#181818;stroke-width:1.0;" x1="1197.4667" x2="1187.4667" y1="2283.9844" y2="2283.9844"/><line style="stroke:#181818;stroke-width:1.0;" x1="1187.4667" x2="1187.4667" y1="2283.9844" y2="2348.875"/><line style="stroke:#181818;stroke-width:1.0;" x1="1187.4667" x2="1197.4667" y1="2348.875" y2="2348.875"/><polygon fill="none" points="1197.4667,2283.9844,1193.4667,2289.9844,1197.4667,2295.9844,1201.4667,2289.9844,1197.4667,2283.9844" style="stroke:#181818;stroke-width:1.0;"/><text fill="#000000" font-family="sans-serif" font-size="13" lengthAdjust="spacing" textLength="24" x="1161.4667" y="2313.3638">0..1</text><text fill="#000000" font-family="sans-serif" font-size="13" lengthAdjust="spacing" textLength="23" x="1162.4667" y="2328.4966">0..*</text><line style="stroke:#181818;stroke-width:1.0;" x1="1328.4667" x2="1328.4667" y1="2413.7656" y2="2488.0313"/><polygon fill="none" points="1328.4667,2413.7656,1324.4667,2419.7656,1328.4667,2425.7656,1332.4667,2419.7656,1328.4667,2413.7656" style="stroke:#181818;stroke-width:1.0;"/><text fill="#000000" font-family="sans-serif" font-size="13" lengthAdjust="spacing" textLength="23" x="1331.4667" y="2427.8325">0..*</text><text fill="#000000" font-family="sans-serif" font-size="13" lengthAdjust="spacing" textLength="8" x="1331.4667" y="2482.9653">1</text><line style="stroke:#181818;stroke-width:1.0;" x1="1414.1333" x2="1414.1333" y1="2144.8281" y2="2191.9609"/><line style="stroke:#181818;stroke-width:1.0;" x1="1414.1333" x2="1630.1333" y1="2191.9609" y2="2191.9609"/><line style="stroke:#181818;stroke-width:1.0;" x1="1630.1333" x2="1630.1333" y1="2191.9609" y2="2219.0938"/><polygon fill="none" points="1414.1333,2144.8281,1410.1333,2150.8281,1414.1333,2156.8281,1418.1333,2150.8281,1414.1333,2144.8281" style="stroke:#181818;stroke-width:1.0;"/><text fill="#000000" font-family="sans-serif" font-size="13" lengthAdjust="spacing" textLength="24" x="1417.1333" y="2158.895">0..1</text><text fill="#000000" font-family="sans-serif" font-size="13" lengthAdjust="spacing" textLength="23" x="1633.1333" y="2214.0278">0..*</text><line style="stroke:#181818;stroke-width:1.0;" x1="1328.4667" x2="1328.4667" y1="2144.8281" y2="2219.0938"/><text fill="#000000" font-family="sans-serif" font-size="13" lengthAdjust="spacing" textLength="23" x="1331.4667" y="2158.895">0..*</text><text fill="#000000" font-family="sans-serif" font-size="13" lengthAdjust="spacing" textLength="23" x="1331.4667" y="2214.0278">0..*</text><line style="stroke:#181818;stroke-width:1.0;" x1="1605.4667" x2="1605.4667" y1="2144.8281" y2="2171.9609"/><line style="stroke:#181818;stroke-width:1.0;" x1="1605.4667" x2="1400.1333" y1="2171.9609" y2="2171.9609"/><line style="stroke:#181818;stroke-width:1.0;" x1="1400.1333" x2="1400.1333" y1="2171.9609" y2="2191.9609"/><line style="stroke:#181818;stroke-width:1.0;" x1="1400.1333" x2="1393.9667" y1="2191.9609" y2="2191.9609"/><line style="stroke:#181818;stroke-width:1.0;" x1="1393.9667" x2="1393.9667" y1="2191.9609" y2="2219.0938"/><polygon fill="none" points="1605.4667,2144.8281,1601.4667,2150.8281,1605.4667,2156.8281,1609.4667,2150.8281,1605.4667,2144.8281" style="stroke:#181818;stroke-width:1.0;"/><text fill="#000000" font-family="sans-serif" font-size="13" lengthAdjust="spacing" textLength="24" x="1608.4667" y="2158.895">0..1</text><text fill="#000000" font-family="sans-serif" font-size="13" lengthAdjust="spacing" textLength="23" x="1396.9667" y="2214.0278">0..*</text><line style="stroke:#181818;stroke-width:1.0;" x1="1691.1333" x2="1691.1333" y1="2144.8281" y2="2219.0938"/><polygon fill="none" points="1691.1333,2144.8281,1687.1333,2150.8281,1691.1333,2156.8281,1695.1333,2150.8281,1691.1333,2144.8281" style="stroke:#181818;stroke-width:1.0;"/><text fill="#000000" font-family="sans-serif" font-size="13" lengthAdjust="spacing" textLength="24" x="1694.1333" y="2158.895">0..1</text><text fill="#000000" font-family="sans-serif" font-size="13" lengthAdjust="spacing" textLength="23" x="1694.1333" y="2214.0278">0..*</text><line style="stroke:#181818;stroke-width:1.0;" x1="857.3" x2="857.3" y1="1389.1289" y2="1477.4688"/><polygon fill="none" points="857.3,1389.1289,853.3,1395.1289,857.3,1401.1289,861.3,1395.1289,857.3,1389.1289" style="stroke:#181818;stroke-width:1.0;"/><text fill="#000000" font-family="sans-serif" font-size="13" lengthAdjust="spacing" textLength="24" x="860.3" y="1403.1958">0..1</text><text fill="#000000" font-family="sans-serif" font-size="13" lengthAdjust="spacing" textLength="8" x="860.3" y="1472.4028">1</text><line style="stroke:#181818;stroke-width:1.0;" x1="793.8" x2="793.8" y1="1389.1289" y2="1430.3359"/><line style="stroke:#181818;stroke-width:1.0;" x1="793.8" x2="591.8" y1="1430.3359" y2="1430.3359"/><line style="stroke:#181818;stroke-width:1.0;" x1="591.8" x2="591.8" y1="1430.3359" y2="1477.4688"/><polygon fill="none" points="793.8,1389.1289,789.8,1395.1289,793.8,1401.1289,797.8,1395.1289,793.8,1389.1289" style="stroke:#181818;stroke-width:1.0;"/><text fill="#000000" font-family="sans-serif" font-size="13" lengthAdjust="spacing" textLength="23" x="796.8" y="1403.1958">0..*</text><text fill="#000000" font-family="sans-serif" font-size="13" lengthAdjust="spacing" textLength="8" x="594.8" y="1472.4028">1</text><line style="stroke:#181818;stroke-width:1.0;" x1="730.3" x2="730.3" y1="1389.1289" y2="1420.3359"/><line style="stroke:#181818;stroke-width:1.0;" x1="730.3" x2="458.3" y1="1420.3359" y2="1420.3359"/><line style="stroke:#181818;stroke-width:1.0;" x1="458.3" x2="458.3" y1="1420.3359" y2="1477.4688"/><text fill="#000000" font-family="sans-serif" font-size="13" lengthAdjust="spacing" textLength="23" x="733.3" y="1403.1958">0..*</text><text fill="#000000" font-family="sans-serif" font-size="13" lengthAdjust="spacing" textLength="24" x="461.3" y="1472.4028">0..1</text><line style="stroke:#181818;stroke-width:1.0;" x1="708.3" x2="698.3" y1="1558.6563" y2="1558.6563"/><line style="stroke:#181818;stroke-width:1.0;" x1="698.3" x2="698.3" y1="1558.6563" y2="1639.8438"/><line style="stroke:#181818;stroke-width:1.0;" x1="698.3" x2="708.3" y1="1639.8438" y2="1639.8438"/><polygon fill="none" points="708.3,1558.6563,704.3,1564.6563,708.3,1570.6563,712.3,1564.6563,708.3,1558.6563" style="stroke:#181818;stroke-width:1.0;"/><text fill="#000000" font-family="sans-serif" font-size="13" lengthAdjust="spacing" textLength="24" x="672.3" y="1596.1841">0..1</text><text fill="#000000" font-family="sans-serif" font-size="13" lengthAdjust="spacing" textLength="23" x="673.3" y="1611.3169">0..*</text><line style="stroke:#181818;stroke-width:1.0;" x1="767.9" x2="767.9" y1="1721.0313" y2="2460.8984"/><line style="stroke:#181818;stroke-width:1.0;" x1="767.9" x2="1233.1333" y1="2460.8984" y2="2460.8984"/><line style="stroke:#181818;stroke-width:1.0;" x1="1233.1333" x2="1233.1333" y1="2460.8984" y2="2488.0313"/><polygon fill="none" points="767.9,1721.0313,763.9,1727.0313,767.9,1733.0313,771.9,1727.0313,767.9,1721.0313" style="stroke:#181818;stroke-width:1.0;"/><text fill="#000000" font-family="sans-serif" font-size="13" lengthAdjust="spacing" textLength="23" x="770.9" y="1735.0981">0..*</text><text fill="#000000" font-family="sans-serif" font-size="13" lengthAdjust="spacing" textLength="8" x="1236.1333" y="2482.9653">1</text><line style="stroke:#181818;stroke-width:1.0;" x1="887.1" x2="887.1" y1="1721.0313" y2="1768.1641"/><line style="stroke:#181818;stroke-width:1.0;" x1="887.1" x2="1167.8" y1="1768.1641" y2="1768.1641"/><line style="stroke:#181818;stroke-width:1.0;" x1="1167.8" x2="1167.8" y1="1768.1641" y2="1795.2969"/><text fill="#000000" font-family="sans-serif" font-size="13" lengthAdjust="spacing" textLength="23" x="890.1" y="1735.0981">0..*</text><text fill="#000000" font-family="sans-serif" font-size="13" lengthAdjust="spacing" textLength="24" x="1170.8" y="1790.231">0..1</text><line style="stroke:#181818;stroke-width:1.0;" x1="827.5" x2="827.5" y1="1721.0313" y2="2191.9609"/><line style="stroke:#181818;stroke-width:1.0;" x1="827.5" x2="1262.9667" y1="2191.9609" y2="2191.9609"/><line style="stroke:#181818;stroke-width:1.0;" x1="1262.9667" x2="1262.9667" y1="2191.9609" y2="2219.0938"/><text fill="#000000" font-family="sans-serif" font-size="13" lengthAdjust="spacing" textLength="23" x="830.5" y="1735.0981">0..*</text><text fill="#000000" font-family="sans-serif" font-size="13" lengthAdjust="spacing" textLength="24" x="1265.9667" y="2214.0278">0..1</text><line style="stroke:#181818;stroke-width:1.0;" x1="946.7" x2="946.7" y1="1721.0313" y2="1748.1641"/><line style="stroke:#181818;stroke-width:1.0;" x1="946.7" x2="1346.1333" y1="1748.1641" y2="1748.1641"/><line style="stroke:#181818;stroke-width:1.0;" x1="1346.1333" x2="1346.1333" y1="1748.1641" y2="1795.2969"/><text fill="#000000" font-family="sans-serif" font-size="13" lengthAdjust="spacing" textLength="23" x="949.7" y="1735.0981">0..*</text><text fill="#000000" font-family="sans-serif" font-size="13" lengthAdjust="spacing" textLength="24" x="1349.1333" y="1790.231">0..1</text><line style="stroke:#181818;stroke-width:1.0;" x1="980.55" x2="980.55" y1="607.875" y2="635.0078"/><line style="stroke:#181818;stroke-width:1.0;" x1="980.55" x2="206.6" y1="635.0078" y2="635.0078"/><line style="stroke:#181818;stroke-width:1.0;" x1="206.6" x2="206.6" y1="635.0078" y2="1236.5859"/><line style="stroke:#181818;stroke-width:1.0;" x1="206.6" x2="194.2" y1="1236.5859" y2="1236.5859"/><line style="stroke:#181818;stroke-width:1.0;" x1="194.2" x2="194.2" y1="1236.5859" y2="1278.8516"/><polygon fill="none" points="980.55,607.875,976.55,613.875,980.55,619.875,984.55,613.875,980.55,607.875" style="stroke:#181818;stroke-width:1.0;"/><text fill="#000000" font-family="sans-serif" font-size="13" lengthAdjust="spacing" textLength="24" x="983.55" y="621.9419">0..1</text><text fill="#000000" font-family="sans-serif" font-size="13" lengthAdjust="spacing" textLength="23" x="197.2" y="1273.7856">0..*</text><line style="stroke:#181818;stroke-width:1.0;" x1="1036.8833" x2="1036.8833" y1="607.875" y2="682.1406"/><text fill="#000000" font-family="sans-serif" font-size="13" lengthAdjust="spacing" textLength="23" x="1039.8833" y="621.9419">0..*</text><text fill="#000000" font-family="sans-serif" font-size="13" lengthAdjust="spacing" textLength="24" x="1039.8833" y="677.0747">0..1</text><line style="stroke:#181818;stroke-width:1.0;" x1="1265.1167" x2="1265.1167" y1="394.125" y2="891.3516"/><line style="stroke:#181818;stroke-width:1.0;" x1="1265.1167" x2="430.3" y1="891.3516" y2="891.3516"/><line style="stroke:#181818;stroke-width:1.0;" x1="430.3" x2="430.3" y1="891.3516" y2="1236.5859"/><line style="stroke:#181818;stroke-width:1.0;" x1="430.3" x2="254.8" y1="1236.5859" y2="1236.5859"/><line style="stroke:#181818;stroke-width:1.0;" x1="254.8" x2="254.8" y1="1236.5859" y2="1278.8516"/><polygon fill="none" points="1265.1167,394.125,1261.1167,400.125,1265.1167,406.125,1269.1167,400.125,1265.1167,394.125" style="stroke:#181818;stroke-width:1.0;"/><text fill="#000000" font-family="sans-serif" font-size="13" lengthAdjust="spacing" textLength="24" x="1268.1167" y="408.1919">0..1</text><text fill="#000000" font-family="sans-serif" font-size="13" lengthAdjust="spacing" textLength="23" x="257.8" y="1258.6528">0..*</text><line style="stroke:#181818;stroke-width:1.0;" x1="1331.3667" x2="1331.3667" y1="394.125" y2="1026.7094"/><polygon fill="none" points="1331.3667,394.125,1327.3667,400.125,1331.3667,406.125,1335.3667,400.125,1331.3667,394.125" style="stroke:#181818;stroke-width:1.0;"/><text fill="#000000" font-family="sans-serif" font-size="13" lengthAdjust="spacing" textLength="8" x="1334.3667" y="408.1919">1</text><text fill="#000000" font-family="sans-serif" font-size="13" lengthAdjust="spacing" textLength="23" x="1334.3667" y="1021.6435">0..*</text><line style="stroke:#181818;stroke-width:1.0;" x1="1198.8667" x2="1198.8667" y1="394.125" y2="441.2578"/><line style="stroke:#181818;stroke-width:1.0;" x1="1198.8667" x2="1059.4167" y1="441.2578" y2="441.2578"/><line style="stroke:#181818;stroke-width:1.0;" x1="1059.4167" x2="1059.4167" y1="441.2578" y2="478.3906"/><text fill="#000000" font-family="sans-serif" font-size="13" lengthAdjust="spacing" textLength="23" x="1201.8667" y="408.1919">0..*</text><text fill="#000000" font-family="sans-serif" font-size="13" lengthAdjust="spacing" textLength="23" x="1062.4167" y="473.3247">0..*</text><line style="stroke:#181818;stroke-width:1.0;" x1="1266.2667" x2="1266.2667" y1="1139.8969" y2="1186.5859"/><line style="stroke:#181818;stroke-width:1.0;" x1="1266.2667" x2="1030.1333" y1="1186.5859" y2="1186.5859"/><line style="stroke:#181818;stroke-width:1.0;" x1="1030.1333" x2="1030.1333" y1="1186.5859" y2="1278.8516"/><polygon fill="none" points="1266.2667,1139.8969,1262.2667,1145.8969,1266.2667,1151.8969,1270.2667,1145.8969,1266.2667,1139.8969" style="stroke:#181818;stroke-width:1.0;"/><text fill="#000000" font-family="sans-serif" font-size="13" lengthAdjust="spacing" textLength="23" x="1269.2667" y="1153.9638">0..*</text><text fill="#000000" font-family="sans-serif" font-size="13" lengthAdjust="spacing" textLength="8" x="1033.1333" y="1273.7856">1</text><line style="stroke:#181818;stroke-width:1.0;" x1="1353.0667" x2="1353.0667" y1="1139.8969" y2="1206.5859"/><line style="stroke:#181818;stroke-width:1.0;" x1="1353.0667" x2="1221.8" y1="1206.5859" y2="1206.5859"/><line style="stroke:#181818;stroke-width:1.0;" x1="1221.8" x2="1221.8" y1="1206.5859" y2="1795.2969"/><text fill="#000000" font-family="sans-serif" font-size="13" lengthAdjust="spacing" textLength="23" x="1356.0667" y="1153.9638">0..*</text><text fill="#000000" font-family="sans-serif" font-size="13" lengthAdjust="spacing" textLength="24" x="1224.8" y="1790.231">0..1</text><line style="stroke:#181818;stroke-width:1.0;" x1="1309.6667" x2="1309.6667" y1="1139.8969" y2="1196.5859"/><line style="stroke:#181818;stroke-width:1.0;" x1="1309.6667" x2="1172.8" y1="1196.5859" y2="1196.5859"/><line style="stroke:#181818;stroke-width:1.0;" x1="1172.8" x2="1172.8" y1="1196.5859" y2="1278.8516"/><text fill="#000000" font-family="sans-serif" font-size="13" lengthAdjust="spacing" textLength="23" x="1312.6667" y="1153.9638">0..*</text><text fill="#000000" font-family="sans-serif" font-size="13" lengthAdjust="spacing" textLength="24" x="1175.8" y="1273.7856">0..1</text><line style="stroke:#181818;stroke-width:1.0;" x1="1396.4667" x2="1396.4667" y1="1139.8969" y2="1795.2969"/><text fill="#000000" font-family="sans-serif" font-size="13" lengthAdjust="spacing" textLength="23" x="1399.4667" y="1153.9638">0..*</text><text fill="#000000" font-family="sans-serif" font-size="13" lengthAdjust="spacing" textLength="24" x="1399.4667" y="1790.231">0..1</text><line style="stroke:#181818;stroke-width:1.0;" x1="1014.1833" x2="1014.1833" y1="844.2188" y2="881.3516"/><line style="stroke:#181818;stroke-width:1.0;" x1="1014.1833" x2="220.6" y1="881.3516" y2="881.3516"/><line style="stroke:#181818;stroke-width:1.0;" x1="220.6" x2="220.6" y1="881.3516" y2="1236.5859"/><line style="stroke:#181818;stroke-width:1.0;" x1="220.6" x2="214.4" y1="1236.5859" y2="1236.5859"/><line style="stroke:#181818;stroke-width:1.0;" x1="214.4" x2="214.4" y1="1236.5859" y2="1278.8516"/><polygon fill="none" points="1014.1833,844.2188,1010.1833,850.2188,1014.1833,856.2188,1018.1833,850.2188,1014.1833,844.2188" style="stroke:#181818;stroke-width:1.0;"/><text fill="#000000" font-family="sans-serif" font-size="13" lengthAdjust="spacing" textLength="24" x="1017.1833" y="858.2856">0..1</text><text fill="#000000" font-family="sans-serif" font-size="13" lengthAdjust="spacing" textLength="23" x="217.4" y="1258.6528">0..*</text><line style="stroke:#181818;stroke-width:1.0;" x1="1059.5833" x2="1059.5833" y1="844.2188" y2="901.3516"/><line style="stroke:#181818;stroke-width:1.0;" x1="1059.5833" x2="955.4667" y1="901.3516" y2="901.3516"/><line style="stroke:#181818;stroke-width:1.0;" x1="955.4667" x2="955.4667" y1="901.3516" y2="948.4844"/><polygon fill="none" points="1059.5833,844.2188,1055.5833,850.2188,1059.5833,856.2188,1063.5833,850.2188,1059.5833,844.2188" style="stroke:#181818;stroke-width:1.0;"/><text fill="#000000" font-family="sans-serif" font-size="13" lengthAdjust="spacing" textLength="8" x="1062.5833" y="858.2856">1</text><text fill="#000000" font-family="sans-serif" font-size="13" lengthAdjust="spacing" textLength="23" x="958.4667" y="943.4185">0..*</text><line style="stroke:#181818;stroke-width:1.0;" x1="968.7833" x2="968.7833" y1="844.2188" y2="871.3516"/><line style="stroke:#181818;stroke-width:1.0;" x1="968.7833" x2="92.6667" y1="871.3516" y2="871.3516"/><line style="stroke:#181818;stroke-width:1.0;" x1="92.6667" x2="92.6667" y1="871.3516" y2="1236.5859"/><line style="stroke:#181818;stroke-width:1.0;" x1="92.6667" x2="59.3333" y1="1236.5859" y2="1236.5859"/><line style="stroke:#181818;stroke-width:1.0;" x1="59.3333" x2="59.3333" y1="1236.5859" y2="1278.8516"/><polygon fill="none" points="968.7833,844.2188,964.7833,850.2188,968.7833,856.2188,972.7833,850.2188,968.7833,844.2188" style="stroke:#181818;stroke-width:1.0;"/><text fill="#000000" font-family="sans-serif" font-size="13" lengthAdjust="spacing" textLength="8" x="971.7833" y="858.2856">1</text><text fill="#000000" font-family="sans-serif" font-size="13" lengthAdjust="spacing" textLength="23" x="62.3333" y="1273.7856">0..*</text><line style="stroke:#181818;stroke-width:1.0;" x1="1104.9833" x2="1104.9833" y1="844.2188" y2="1236.5859"/><line style="stroke:#181818;stroke-width:1.0;" x1="1104.9833" x2="1133.8" y1="1236.5859" y2="1236.5859"/><line style="stroke:#181818;stroke-width:1.0;" x1="1133.8" x2="1133.8" y1="1236.5859" y2="1278.8516"/><text fill="#000000" font-family="sans-serif" font-size="13" lengthAdjust="spacing" textLength="23" x="1107.9833" y="858.2856">0..*</text><text fill="#000000" font-family="sans-serif" font-size="13" lengthAdjust="spacing" textLength="24" x="1136.8" y="1273.7856">0..1</text><line style="stroke:#181818;stroke-width:1.0;" x1="1371.3" x2="1371.3" y1="1941.0781" y2="2015.3438"/><text fill="#000000" font-family="sans-serif" font-size="13" lengthAdjust="spacing" textLength="23" x="1374.3" y="1955.145">0..*</text><text fill="#000000" font-family="sans-serif" font-size="13" lengthAdjust="spacing" textLength="24" x="1374.3" y="2010.2778">0..1</text><line style="stroke:#181818;stroke-width:1.0;" x1="831.6167" x2="831.6167" y1="394.125" y2="441.2578"/><line style="stroke:#181818;stroke-width:1.0;" x1="831.6167" x2="991.8167" y1="441.2578" y2="441.2578"/><line style="stroke:#181818;stroke-width:1.0;" x1="991.8167" x2="991.8167" y1="441.2578" y2="478.3906"/><text fill="#000000" font-family="sans-serif" font-size="13" lengthAdjust="spacing" textLength="23" x="834.6167" y="408.1919">0..*</text><text fill="#000000" font-family="sans-serif" font-size="13" lengthAdjust="spacing" textLength="23" x="994.8167" y="473.3247">0..*</text><line style="stroke:#181818;stroke-width:1.0;" x1="1025.6167" x2="1025.6167" y1="394.125" y2="478.3906"/><text fill="#000000" font-family="sans-serif" font-size="13" lengthAdjust="spacing" textLength="23" x="1028.6167" y="408.1919">0..*</text><text fill="#000000" font-family="sans-serif" font-size="13" lengthAdjust="spacing" textLength="23" x="1028.6167" y="473.3247">0..*</text><line style="stroke:#181818;stroke-width:1.0;" x1="1204.7833" x2="1204.7833" y1="157.7813" y2="184.9141"/><line style="stroke:#181818;stroke-width:1.0;" x1="1204.7833" x2="723.6167" y1="184.9141" y2="184.9141"/><line style="stroke:#181818;stroke-width:1.0;" x1="723.6167" x2="723.6167" y1="184.9141" y2="451.2578"/><line style="stroke:#181818;stroke-width:1.0;" x1="723.6167" x2="958.0167" y1="451.2578" y2="451.2578"/><line style="stroke:#181818;stroke-width:1.0;" x1="958.0167" x2="958.0167" y1="451.2578" y2="478.3906"/><text fill="#000000" font-family="sans-serif" font-size="13" lengthAdjust="spacing" textLength="23" x="1207.7833" y="171.8481">0..*</text><text fill="#000000" font-family="sans-serif" font-size="13" lengthAdjust="spacing" textLength="23" x="961.0167" y="473.3247">0..*</text><line style="stroke:#181818;stroke-width:1.0;" x1="1265.1167" x2="1265.1167" y1="157.7813" y2="232.0469"/><text fill="#000000" font-family="sans-serif" font-size="13" lengthAdjust="spacing" textLength="23" x="1268.1167" y="171.8481">0..*</text><text fill="#000000" font-family="sans-serif" font-size="13" lengthAdjust="spacing" textLength="23" x="1268.1167" y="226.981">0..*</text><line style="stroke:#181818;stroke-width:1.0;" x1="444.3" x2="444.3" y1="1393.2031" y2="1450.3359"/><line style="stroke:#181818;stroke-width:1.0;" x1="444.3" x2="405.3" y1="1450.3359" y2="1450.3359"/><line style="stroke:#181818;stroke-width:1.0;" x1="405.3" x2="405.3" y1="1450.3359" y2="1477.4688"/><polygon fill="none" points="444.3,1393.2031,440.3,1399.2031,444.3,1405.2031,448.3,1399.2031,444.3,1393.2031" style="stroke:#181818;stroke-width:1.0;"/><text fill="#000000" font-family="sans-serif" font-size="13" lengthAdjust="spacing" textLength="8" x="447.3" y="1407.27">1</text><text fill="#000000" font-family="sans-serif" font-size="13" lengthAdjust="spacing" textLength="23" x="408.3" y="1472.4028">0..*</text><line style="stroke:#181818;stroke-width:1.0;" x1="925.1333" x2="925.1333" y1="1159.4531" y2="1196.5859"/><line style="stroke:#181818;stroke-width:1.0;" x1="925.1333" x2="234.6" y1="1196.5859" y2="1196.5859"/><line style="stroke:#181818;stroke-width:1.0;" x1="234.6" x2="234.6" y1="1196.5859" y2="1278.8516"/><polygon fill="none" points="925.1333,1159.4531,921.1333,1165.4531,925.1333,1171.4531,929.1333,1165.4531,925.1333,1159.4531" style="stroke:#181818;stroke-width:1.0;"/><text fill="#000000" font-family="sans-serif" font-size="13" lengthAdjust="spacing" textLength="24" x="928.1333" y="1173.52">0..1</text><text fill="#000000" font-family="sans-serif" font-size="13" lengthAdjust="spacing" textLength="23" x="237.6" y="1273.7856">0..*</text><line style="stroke:#181818;stroke-width:1.0;" x1="985.8" x2="985.8" y1="1159.4531" y2="1216.5859"/><line style="stroke:#181818;stroke-width:1.0;" x1="985.8" x2="793.8" y1="1216.5859" y2="1216.5859"/><line style="stroke:#181818;stroke-width:1.0;" x1="793.8" x2="793.8" y1="1216.5859" y2="1275.9414"/><polygon fill="none" points="985.8,1159.4531,981.8,1165.4531,985.8,1171.4531,989.8,1165.4531,985.8,1159.4531" style="stroke:#181818;stroke-width:1.0;"/><text fill="#000000" font-family="sans-serif" font-size="13" lengthAdjust="spacing" textLength="24" x="988.8" y="1173.52">0..1</text><text fill="#000000" font-family="sans-serif" font-size="13" lengthAdjust="spacing" textLength="23" x="796.8" y="1270.8755">0..*</text><line style="stroke:#181818;stroke-width:1.0;" x1="1016.1333" x2="1016.1333" y1="1159.4531" y2="1236.5859"/><line style="stroke:#181818;stroke-width:1.0;" x1="1016.1333" x2="985.4667" y1="1236.5859" y2="1236.5859"/><line style="stroke:#181818;stroke-width:1.0;" x1="985.4667" x2="985.4667" y1="1236.5859" y2="1278.8516"/><polygon fill="none" points="1016.1333,1159.4531,1012.1333,1165.4531,1016.1333,1171.4531,1020.1333,1165.4531,1016.1333,1159.4531" style="stroke:#181818;stroke-width:1.0;"/><text fill="#000000" font-family="sans-serif" font-size="13" lengthAdjust="spacing" textLength="23" x="1019.1333" y="1173.52">0..*</text><text fill="#000000" font-family="sans-serif" font-size="13" lengthAdjust="spacing" textLength="8" x="988.4667" y="1273.7856">1</text><line style="stroke:#181818;stroke-width:1.0;" x1="955.4667" x2="955.4667" y1="1159.4531" y2="1206.5859"/><line style="stroke:#181818;stroke-width:1.0;" x1="955.4667" x2="444.3" y1="1206.5859" y2="1206.5859"/><line style="stroke:#181818;stroke-width:1.0;" x1="444.3" x2="444.3" y1="1206.5859" y2="1263.7188"/><text fill="#000000" font-family="sans-serif" font-size="13" lengthAdjust="spacing" textLength="23" x="958.4667" y="1173.52">0..*</text><text fill="#000000" font-family="sans-serif" font-size="13" lengthAdjust="spacing" textLength="24" x="447.3" y="1258.6528">0..1</text><line style="stroke:#181818;stroke-width:1.0;" x1="894.8" x2="894.8" y1="1159.4531" y2="1186.5859"/><line style="stroke:#181818;stroke-width:1.0;" x1="894.8" x2="106.6667" y1="1186.5859" y2="1186.5859"/><line style="stroke:#181818;stroke-width:1.0;" x1="106.6667" x2="106.6667" y1="1186.5859" y2="1278.8516"/><text fill="#000000" font-family="sans-serif" font-size="13" lengthAdjust="spacing" textLength="23" x="897.8" y="1173.52">0..*</text><text fill="#000000" font-family="sans-serif" font-size="13" lengthAdjust="spacing" textLength="24" x="109.6667" y="1273.7856">0..1</text><!--SRC=[fLTBSzme43wRNw7CCIdRcwgjFUJcs9wrAm-dF8vpIEN0I7Y63G8j8AydgVdl0GbGWyJ8gRtOelcw- -i73VEYaNXJuuBXdMXrGTXtX539i5B5cMf8gOkVwBegb9QKRz17N1F_lMhNFK8LNx_rNsYFdDBYzQ8GnyNYZvEJbmjdAJ7yKLGaQ_nM23tiVCAISB0-tr9MNLVMiPESyP8eBMGal22g9BpgL85uZmOcseZMhRP4tf6Tjt-FMHket4YweRmOAvzliSIb9f8gJSjiA1TKDIQxdpdLNdItQqXX_w0FbFVECD-X3_XfM9mn9luZLIUmvAris3N9ZzrRI2mnL1E6jXfHNHA52VZB7cwqEheXT67otUHx8xOKPVyjLYJT3cg2FnAfgE1TEDtAe2wVDE5MQaDodiUnZD4GQn2viEEOlb2zJLER2_DWB7FbUNwmKvHcQ_axgcFV82b651VQoUwnf7ZDI96iqSfumep-mDfOAg8L-YI55gLWAxAfeoEzzsOXlTUBaN686fepTf9WZht9n7aIOuWdL-rhTIzeLQo5OEYcflgoRlIkNmu7sXxCs9whRXn5fcd00OSHtJJQjOd3sM5oInw86OjbuBTiUMbnWxb-q4uaESGwrGjJ-OuKag6GWOIqk-a_1nity46uZnPKCMbYKyYb57KOkW9CP8rjuYZNV_s9baBMBSFXic6u95l1AY9XzS7Wlo2Fj8pxvBqeCPjkct37TFUaNw3UY4qWh8ypFIfBgZTAns0kPddUVKEgrpNUa2cYemZ_bg9jyiS1sZcNr5OEcn21xf8o8_LxZdfq6_YzrLP83QxpwPpv_FJ4PfFaO15cZjrW6juO_Tv4Tc8RDbUcQsqRs_u3tyyudA1UuuwOSXOVHUXiLYSzcyzN02n_Goizh4EtvfzDvl4cQJVumekJoE3GDWPS-qqWdyxeJ6jrd6OxgqT5aDXf7j2pJPpbCkpIvTCtzyQSoPzx4mmcRgk7Zi8m08AdqNJkTJsZgtQT9NE5rJPkQZSTewVvQ1GOxzRguQDd49SLrV_BT- -eCtFOcLKzdFPnZgEfE14bE3CfgU0kmsfclsyiHzq_TGuaYbUCo73fnKyZIonzBPaEC61C-zr0EtYAkttqrag8ENcM7xYCtC5vxdqxLPJCKFPamEN8crQ35nkwQNKYoGmGUBp1JycztpWqLB8GxnC2faT-WXYzURE0Q2p56VVtFmXd9j5TrGXlQyZDM3WwMf174yW2BIJvr_oWjL-Tv5LO7-rxpVZdGwVxL3E3_qS9RlwPGKVviIPFGCVT90QwrRfHRqvFLRabDJuHSdDwrq6dTYp93P7JcqicS4RlhNdp4ympHZMftrELKLrfsPQwbUwNlGtX5m00]--></g></svg>