<?xml version="1.0" encoding="us-ascii" standalone="no"?><svg xmlns="http://www.w3.org/2000/svg" xmlns:xlink="http://www.w3.org/1999/xlink" contentStyleType="text/css" height="2630px" preserveAspectRatio="none" style="width:1525px;height:2630px;background:#FFFFFF;" version="1.1" viewBox="0 0 1525 2630" width="1525px" zoomAndPan="magnify"><defs/><g><!--class Interaction--><g id="elem_Interaction"><rect codeLine="3" fill="#F1F1F1" height="96.8906" id="Interaction" rx="2.5" ry="2.5" style="stroke:#181818;stroke-width:0.5;" width="134" x="464.6667" y="1268.8516"/><ellipse cx="489.5667" cy="1284.8516" fill="#EB937F" rx="11" ry="11" style="stroke:#181818;stroke-width:1.0;"/><path d="M488.3635,1285.7266 L489.8167,1285.7266 L489.8167,1285.8359 C489.8167,1286.2422 489.8479,1286.3984 489.926,1286.5547 C490.0823,1286.8047 490.3635,1286.9609 490.6604,1286.9609 C490.9104,1286.9609 491.176,1286.8203 491.3323,1286.6016 C491.4573,1286.4453 491.4885,1286.2891 491.4885,1285.8359 L491.4885,1283.9141 C491.4885,1283.7578 491.4885,1283.7109 491.4729,1283.5547 C491.4104,1283.0859 491.0979,1282.7734 490.6448,1282.7734 C490.3948,1282.7734 490.1292,1282.9141 489.9573,1283.1328 C489.8479,1283.3047 489.8167,1283.4609 489.8167,1283.9141 L489.8167,1284.0391 L488.3635,1284.0391 L488.3635,1281.6328 L492.3479,1281.6328 L492.3479,1282.4922 C492.3479,1282.8984 492.3792,1283.0703 492.4573,1283.2266 C492.6292,1283.4766 492.9104,1283.6328 493.1917,1283.6328 C493.4573,1283.6328 493.7229,1283.4922 493.8948,1283.2734 C494.0042,1283.1016 494.0354,1282.9609 494.0354,1282.4922 L494.0354,1279.9453 L486.4104,1279.9453 C485.9729,1279.9453 485.8479,1279.9609 485.6917,1280.0547 C485.4417,1280.2109 485.2854,1280.5078 485.2854,1280.7891 C485.2854,1281.0703 485.426,1281.3203 485.6448,1281.4922 C485.801,1281.6016 485.9885,1281.6328 486.4104,1281.6328 L486.6604,1281.6328 L486.6604,1288.1484 L486.4104,1288.1484 C486.0042,1288.1484 485.8479,1288.1641 485.6917,1288.2734 C485.4417,1288.4453 485.2854,1288.7109 485.2854,1289.0078 C485.2854,1289.2734 485.426,1289.5234 485.6448,1289.6797 C485.7854,1289.8047 486.0198,1289.8516 486.4104,1289.8516 L494.4104,1289.8516 L494.4104,1287.2734 C494.4104,1286.8359 494.3792,1286.6953 494.301,1286.5391 C494.1292,1286.2891 493.8479,1286.1328 493.5667,1286.1328 C493.301,1286.1328 493.0354,1286.2422 492.8635,1286.4922 C492.7542,1286.6484 492.7229,1286.7891 492.7229,1287.2734 L492.7229,1288.1484 L488.3635,1288.1484 L488.3635,1285.7266 Z " fill="#000000"/><text fill="#000000" font-family="sans-serif" font-size="14" lengthAdjust="spacing" textLength="80" x="505.7667" y="1289.6982">Interaction</text><line style="stroke:#181818;stroke-width:0.5;" x1="465.6667" x2="597.6667" y1="1300.8516" y2="1300.8516"/><text fill="#000000" font-family="sans-serif" font-size="14" lengthAdjust="spacing" textLength="56" x="470.6667" y="1317.8467">"event"</text><text fill="#000000" font-family="sans-serif" font-size="14" lengthAdjust="spacing" textLength="69" x="470.6667" y="1334.1436">"request"</text><text fill="#000000" font-family="sans-serif" font-size="14" lengthAdjust="spacing" textLength="122" x="470.6667" y="1350.4404">"event+request"</text><line style="stroke:#181818;stroke-width:0.5;" x1="465.6667" x2="597.6667" y1="1357.7422" y2="1357.7422"/></g><!--class Serialization--><g id="elem_Serialization"><rect codeLine="9" fill="#F1F1F1" height="96.8906" id="Serialization" rx="2.5" ry="2.5" style="stroke:#181818;stroke-width:0.5;" width="121" x="992.1667" y="1457.4688"/><ellipse cx="1007.1667" cy="1473.4688" fill="#EB937F" rx="11" ry="11" style="stroke:#181818;stroke-width:1.0;"/><path d="M1005.9635,1474.3438 L1007.4167,1474.3438 L1007.4167,1474.4531 C1007.4167,1474.8594 1007.4479,1475.0156 1007.526,1475.1719 C1007.6823,1475.4219 1007.9635,1475.5781 1008.2604,1475.5781 C1008.5104,1475.5781 1008.776,1475.4375 1008.9323,1475.2188 C1009.0573,1475.0625 1009.0885,1474.9063 1009.0885,1474.4531 L1009.0885,1472.5313 C1009.0885,1472.375 1009.0885,1472.3281 1009.0729,1472.1719 C1009.0104,1471.7031 1008.6979,1471.3906 1008.2448,1471.3906 C1007.9948,1471.3906 1007.7292,1471.5313 1007.5573,1471.75 C1007.4479,1471.9219 1007.4167,1472.0781 1007.4167,1472.5313 L1007.4167,1472.6563 L1005.9635,1472.6563 L1005.9635,1470.25 L1009.9479,1470.25 L1009.9479,1471.1094 C1009.9479,1471.5156 1009.9792,1471.6875 1010.0573,1471.8438 C1010.2292,1472.0938 1010.5104,1472.25 1010.7917,1472.25 C1011.0573,1472.25 1011.3229,1472.1094 1011.4948,1471.8906 C1011.6042,1471.7188 1011.6354,1471.5781 1011.6354,1471.1094 L1011.6354,1468.5625 L1004.0104,1468.5625 C1003.5729,1468.5625 1003.4479,1468.5781 1003.2917,1468.6719 C1003.0417,1468.8281 1002.8854,1469.125 1002.8854,1469.4063 C1002.8854,1469.6875 1003.026,1469.9375 1003.2448,1470.1094 C1003.401,1470.2188 1003.5885,1470.25 1004.0104,1470.25 L1004.2604,1470.25 L1004.2604,1476.7656 L1004.0104,1476.7656 C1003.6042,1476.7656 1003.4479,1476.7813 1003.2917,1476.8906 C1003.0417,1477.0625 1002.8854,1477.3281 1002.8854,1477.625 C1002.8854,1477.8906 1003.026,1478.1406 1003.2448,1478.2969 C1003.3854,1478.4219 1003.6198,1478.4688 1004.0104,1478.4688 L1012.0104,1478.4688 L1012.0104,1475.8906 C1012.0104,1475.4531 1011.9792,1475.3125 1011.901,1475.1563 C1011.7292,1474.9063 1011.4479,1474.75 1011.1667,1474.75 C1010.901,1474.75 1010.6354,1474.8594 1010.4635,1475.1094 C1010.3542,1475.2656 1010.3229,1475.4063 1010.3229,1475.8906 L1010.3229,1476.7656 L1005.9635,1476.7656 L1005.9635,1474.3438 Z " fill="#000000"/><text fill="#000000" font-family="sans-serif" font-size="14" lengthAdjust="spacing" textLength="89" x="1021.1667" y="1478.3154">Serialization</text><line style="stroke:#181818;stroke-width:0.5;" x1="993.1667" x2="1112.1667" y1="1489.4688" y2="1489.4688"/><text fill="#000000" font-family="sans-serif" font-size="14" lengthAdjust="spacing" textLength="40" x="998.1667" y="1506.4639">"xml"</text><text fill="#000000" font-family="sans-serif" font-size="14" lengthAdjust="spacing" textLength="43" x="998.1667" y="1522.7607">"json"</text><text fill="#000000" font-family="sans-serif" font-size="14" lengthAdjust="spacing" textLength="86" x="998.1667" y="1539.0576">"plain-text"</text><line style="stroke:#181818;stroke-width:0.5;" x1="993.1667" x2="1112.1667" y1="1546.3594" y2="1546.3594"/></g><!--class Type--><g id="elem_Type"><rect codeLine="15" fill="#F1F1F1" height="145.7813" id="Type" rx="2.5" ry="2.5" style="stroke:#181818;stroke-width:0.5;" width="286" x="1232.8" y="2478.0313"/><ellipse cx="1353.55" cy="2494.0313" fill="#EB937F" rx="11" ry="11" style="stroke:#181818;stroke-width:1.0;"/><path d="M1352.3469,2494.9063 L1353.8,2494.9063 L1353.8,2495.0156 C1353.8,2495.4219 1353.8313,2495.5781 1353.9094,2495.7344 C1354.0656,2495.9844 1354.3469,2496.1406 1354.6438,2496.1406 C1354.8938,2496.1406 1355.1594,2496 1355.3156,2495.7813 C1355.4406,2495.625 1355.4719,2495.4688 1355.4719,2495.0156 L1355.4719,2493.0938 C1355.4719,2492.9375 1355.4719,2492.8906 1355.4563,2492.7344 C1355.3938,2492.2656 1355.0813,2491.9531 1354.6281,2491.9531 C1354.3781,2491.9531 1354.1125,2492.0938 1353.9406,2492.3125 C1353.8313,2492.4844 1353.8,2492.6406 1353.8,2493.0938 L1353.8,2493.2188 L1352.3469,2493.2188 L1352.3469,2490.8125 L1356.3313,2490.8125 L1356.3313,2491.6719 C1356.3313,2492.0781 1356.3625,2492.25 1356.4406,2492.4063 C1356.6125,2492.6563 1356.8938,2492.8125 1357.175,2492.8125 C1357.4406,2492.8125 1357.7063,2492.6719 1357.8781,2492.4531 C1357.9875,2492.2813 1358.0188,2492.1406 1358.0188,2491.6719 L1358.0188,2489.125 L1350.3938,2489.125 C1349.9563,2489.125 1349.8313,2489.1406 1349.675,2489.2344 C1349.425,2489.3906 1349.2688,2489.6875 1349.2688,2489.9688 C1349.2688,2490.25 1349.4094,2490.5 1349.6281,2490.6719 C1349.7844,2490.7813 1349.9719,2490.8125 1350.3938,2490.8125 L1350.6438,2490.8125 L1350.6438,2497.3281 L1350.3938,2497.3281 C1349.9875,2497.3281 1349.8313,2497.3438 1349.675,2497.4531 C1349.425,2497.625 1349.2688,2497.8906 1349.2688,2498.1875 C1349.2688,2498.4531 1349.4094,2498.7031 1349.6281,2498.8594 C1349.7688,2498.9844 1350.0031,2499.0313 1350.3938,2499.0313 L1358.3938,2499.0313 L1358.3938,2496.4531 C1358.3938,2496.0156 1358.3625,2495.875 1358.2844,2495.7188 C1358.1125,2495.4688 1357.8313,2495.3125 1357.55,2495.3125 C1357.2844,2495.3125 1357.0188,2495.4219 1356.8469,2495.6719 C1356.7375,2495.8281 1356.7063,2495.9688 1356.7063,2496.4531 L1356.7063,2497.3281 L1352.3469,2497.3281 L1352.3469,2494.9063 Z " fill="#000000"/><text fill="#000000" font-family="sans-serif" font-size="14" lengthAdjust="spacing" textLength="36" x="1374.05" y="2498.8779">Type</text><line style="stroke:#181818;stroke-width:0.5;" x1="1233.8" x2="1517.8" y1="2510.0313" y2="2510.0313"/><text fill="#000000" font-family="sans-serif" font-size="14" lengthAdjust="spacing" textLength="191" x="1238.8" y="2527.0264">"https://schema.org/Text"</text><text fill="#000000" font-family="sans-serif" font-size="14" lengthAdjust="spacing" textLength="211" x="1238.8" y="2543.3232">"https://schema.org/Integer"</text><text fill="#000000" font-family="sans-serif" font-size="14" lengthAdjust="spacing" textLength="194" x="1238.8" y="2559.6201">"https://schema.org/Float"</text><text fill="#000000" font-family="sans-serif" font-size="14" lengthAdjust="spacing" textLength="216" x="1238.8" y="2575.917">"https://schema.org/Boolean"</text><text fill="#000000" font-family="sans-serif" font-size="14" lengthAdjust="spacing" textLength="218" x="1238.8" y="2592.2139">"https://schema.org/ItemList"</text><text fill="#000000" font-family="sans-serif" font-size="14" lengthAdjust="spacing" textLength="274" x="1238.8" y="2608.5107">"https://schema.org/StructuredValue"</text><line style="stroke:#181818;stroke-width:0.5;" x1="1233.8" x2="1517.8" y1="2615.8125" y2="2615.8125"/></g><!--class Device--><g id="elem_Device"><rect codeLine="25" fill="#F1F1F1" height="129.4844" id="Device" rx="2.5" ry="2.5" style="stroke:#181818;stroke-width:0.5;" width="169" x="1282.4667" y="488.3906"/><ellipse cx="1338.2167" cy="504.3906" fill="#ADD1B2" rx="11" ry="11" style="stroke:#181818;stroke-width:1.0;"/><path d="M1340.5604,500.0625 C1339.6229,499.625 1339.0292,499.4844 1338.1542,499.4844 C1335.5292,499.4844 1333.5292,501.5625 1333.5292,504.2813 L1333.5292,505.4063 C1333.5292,507.9844 1335.6385,509.875 1338.5292,509.875 C1339.7479,509.875 1340.9042,509.5781 1341.6542,509.0313 C1342.2323,508.625 1342.5604,508.1719 1342.5604,507.7813 C1342.5604,507.3281 1342.1698,506.9375 1341.701,506.9375 C1341.4823,506.9375 1341.2792,507.0156 1341.0917,507.2031 C1340.6385,507.6875 1340.6385,507.6875 1340.451,507.7813 C1340.0292,508.0469 1339.3417,508.1719 1338.576,508.1719 C1336.5292,508.1719 1335.2323,507.0781 1335.2323,505.375 L1335.2323,504.2813 C1335.2323,502.5 1336.4823,501.1875 1338.2167,501.1875 C1338.7948,501.1875 1339.4042,501.3438 1339.8729,501.5938 C1340.3573,501.875 1340.5292,502.0938 1340.6229,502.5 C1340.6854,502.9063 1340.7167,503.0313 1340.8573,503.1563 C1340.9979,503.2969 1341.2323,503.4063 1341.451,503.4063 C1341.7167,503.4063 1341.9823,503.2656 1342.1542,503.0469 C1342.2635,502.8906 1342.2948,502.7031 1342.2948,502.2813 L1342.2948,500.8594 C1342.2948,500.4219 1342.2792,500.2969 1342.1854,500.1406 C1342.0292,499.875 1341.7479,499.7344 1341.451,499.7344 C1341.1542,499.7344 1340.951,499.8281 1340.7323,500.1406 L1340.5604,500.0625 Z " fill="#000000"/><text fill="#000000" font-family="sans-serif" font-size="14" lengthAdjust="spacing" textLength="49" x="1358.7167" y="509.2373">Device</text><line style="stroke:#181818;stroke-width:0.5;" x1="1283.4667" x2="1450.4667" y1="520.3906" y2="520.3906"/><text fill="#000000" font-family="sans-serif" font-size="14" lengthAdjust="spacing" textLength="59" x="1288.4667" y="537.3857">Id string</text><text fill="#000000" font-family="sans-serif" font-size="14" lengthAdjust="spacing" textLength="96" x="1288.4667" y="553.6826">LocalId string</text><text fill="#000000" font-family="sans-serif" font-size="14" lengthAdjust="spacing" textLength="87" x="1288.4667" y="569.9795">Name string</text><text fill="#000000" font-family="sans-serif" font-size="14" lengthAdjust="spacing" textLength="157" x="1288.4667" y="586.2764">Attributes []Attribute</text><text fill="#000000" font-family="sans-serif" font-size="14" lengthAdjust="spacing" textLength="144" x="1288.4667" y="602.5732">DeviceTypeId string</text><line style="stroke:#181818;stroke-width:0.5;" x1="1283.4667" x2="1450.4667" y1="609.875" y2="609.875"/></g><!--class Attribute--><g id="elem_Attribute"><rect codeLine="161" fill="#F1F1F1" height="96.8906" id="Attribute" rx="2.5" ry="2.5" style="stroke:#181818;stroke-width:0.5;" width="101" x="1380.6667" y="1268.8516"/><ellipse cx="1396.1167" cy="1284.8516" fill="#ADD1B2" rx="11" ry="11" style="stroke:#181818;stroke-width:1.0;"/><path d="M1398.4604,1280.5234 C1397.5229,1280.0859 1396.9292,1279.9453 1396.0542,1279.9453 C1393.4292,1279.9453 1391.4292,1282.0234 1391.4292,1284.7422 L1391.4292,1285.8672 C1391.4292,1288.4453 1393.5385,1290.3359 1396.4292,1290.3359 C1397.6479,1290.3359 1398.8042,1290.0391 1399.5542,1289.4922 C1400.1323,1289.0859 1400.4604,1288.6328 1400.4604,1288.2422 C1400.4604,1287.7891 1400.0698,1287.3984 1399.601,1287.3984 C1399.3823,1287.3984 1399.1792,1287.4766 1398.9917,1287.6641 C1398.5385,1288.1484 1398.5385,1288.1484 1398.351,1288.2422 C1397.9292,1288.5078 1397.2417,1288.6328 1396.476,1288.6328 C1394.4292,1288.6328 1393.1323,1287.5391 1393.1323,1285.8359 L1393.1323,1284.7422 C1393.1323,1282.9609 1394.3823,1281.6484 1396.1167,1281.6484 C1396.6948,1281.6484 1397.3042,1281.8047 1397.7729,1282.0547 C1398.2573,1282.3359 1398.4292,1282.5547 1398.5229,1282.9609 C1398.5854,1283.3672 1398.6167,1283.4922 1398.7573,1283.6172 C1398.8979,1283.7578 1399.1323,1283.8672 1399.351,1283.8672 C1399.6167,1283.8672 1399.8823,1283.7266 1400.0542,1283.5078 C1400.1635,1283.3516 1400.1948,1283.1641 1400.1948,1282.7422 L1400.1948,1281.3203 C1400.1948,1280.8828 1400.1792,1280.7578 1400.0854,1280.6016 C1399.9292,1280.3359 1399.6479,1280.1953 1399.351,1280.1953 C1399.0542,1280.1953 1398.851,1280.2891 1398.6323,1280.6016 L1398.4604,1280.5234 Z " fill="#000000"/><text fill="#000000" font-family="sans-serif" font-size="14" lengthAdjust="spacing" textLength="68" x="1410.2167" y="1289.6982">Attribute</text><line style="stroke:#181818;stroke-width:0.5;" x1="1381.6667" x2="1480.6667" y1="1300.8516" y2="1300.8516"/><text fill="#000000" font-family="sans-serif" font-size="14" lengthAdjust="spacing" textLength="73" x="1386.6667" y="1317.8467">Key string</text><text fill="#000000" font-family="sans-serif" font-size="14" lengthAdjust="spacing" textLength="85" x="1386.6667" y="1334.1436">Value string</text><text fill="#000000" font-family="sans-serif" font-size="14" lengthAdjust="spacing" textLength="89" x="1386.6667" y="1350.4404">Origin string</text><line style="stroke:#181818;stroke-width:0.5;" x1="1381.6667" x2="1480.6667" y1="1357.7422" y2="1357.7422"/></g><!--class DeviceType--><g id="elem_DeviceType"><rect codeLine="128" fill="#F1F1F1" height="162.0781" id="DeviceType" rx="2.5" ry="2.5" style="stroke:#181818;stroke-width:0.5;" width="227" x="1158.1333" y="692.1406"/><ellipse cx="1224.8833" cy="708.1406" fill="#ADD1B2" rx="11" ry="11" style="stroke:#181818;stroke-width:1.0;"/><path d="M1227.2271,703.8125 C1226.2896,703.375 1225.6958,703.2344 1224.8208,703.2344 C1222.1958,703.2344 1220.1958,705.3125 1220.1958,708.0313 L1220.1958,709.1563 C1220.1958,711.7344 1222.3052,713.625 1225.1958,713.625 C1226.4146,713.625 1227.5708,713.3281 1228.3208,712.7813 C1228.899,712.375 1229.2271,711.9219 1229.2271,711.5313 C1229.2271,711.0781 1228.8365,710.6875 1228.3677,710.6875 C1228.149,710.6875 1227.9458,710.7656 1227.7583,710.9531 C1227.3052,711.4375 1227.3052,711.4375 1227.1177,711.5313 C1226.6958,711.7969 1226.0083,711.9219 1225.2427,711.9219 C1223.1958,711.9219 1221.899,710.8281 1221.899,709.125 L1221.899,708.0313 C1221.899,706.25 1223.149,704.9375 1224.8833,704.9375 C1225.4615,704.9375 1226.0708,705.0938 1226.5396,705.3438 C1227.024,705.625 1227.1958,705.8438 1227.2896,706.25 C1227.3521,706.6563 1227.3833,706.7813 1227.524,706.9063 C1227.6646,707.0469 1227.899,707.1563 1228.1177,707.1563 C1228.3833,707.1563 1228.649,707.0156 1228.8208,706.7969 C1228.9302,706.6406 1228.9615,706.4531 1228.9615,706.0313 L1228.9615,704.6094 C1228.9615,704.1719 1228.9458,704.0469 1228.8521,703.8906 C1228.6958,703.625 1228.4146,703.4844 1228.1177,703.4844 C1227.8208,703.4844 1227.6177,703.5781 1227.399,703.8906 L1227.2271,703.8125 Z " fill="#000000"/><text fill="#000000" font-family="sans-serif" font-size="14" lengthAdjust="spacing" textLength="85" x="1245.3833" y="712.9873">DeviceType</text><line style="stroke:#181818;stroke-width:0.5;" x1="1159.1333" x2="1384.1333" y1="724.1406" y2="724.1406"/><text fill="#000000" font-family="sans-serif" font-size="14" lengthAdjust="spacing" textLength="59" x="1164.1333" y="741.1357">Id string</text><text fill="#000000" font-family="sans-serif" font-size="14" lengthAdjust="spacing" textLength="87" x="1164.1333" y="757.4326">Name string</text><text fill="#000000" font-family="sans-serif" font-size="14" lengthAdjust="spacing" textLength="130" x="1164.1333" y="773.7295">Description string</text><text fill="#000000" font-family="sans-serif" font-size="14" lengthAdjust="spacing" textLength="215" x="1164.1333" y="790.0264">ServiceGroups []ServiceGroup</text><text fill="#000000" font-family="sans-serif" font-size="14" lengthAdjust="spacing" textLength="127" x="1164.1333" y="806.3232">Services []Service</text><text fill="#000000" font-family="sans-serif" font-size="14" lengthAdjust="spacing" textLength="144" x="1164.1333" y="822.6201">DeviceClassId string</text><text fill="#000000" font-family="sans-serif" font-size="14" lengthAdjust="spacing" textLength="157" x="1164.1333" y="838.917">Attributes []Attribute</text><line style="stroke:#181818;stroke-width:0.5;" x1="1159.1333" x2="1384.1333" y1="846.2188" y2="846.2188"/></g><!--class Location--><g id="elem_Location"><rect codeLine="35" fill="#F1F1F1" height="145.7813" id="Location" rx="2.5" ry="2.5" style="stroke:#181818;stroke-width:0.5;" width="181" x="1057.5" y="12"/><ellipse cx="1112.75" cy="28" fill="#ADD1B2" rx="11" ry="11" style="stroke:#181818;stroke-width:1.0;"/><path d="M1115.0938,23.6719 C1114.1563,23.2344 1113.5625,23.0938 1112.6875,23.0938 C1110.0625,23.0938 1108.0625,25.1719 1108.0625,27.8906 L1108.0625,29.0156 C1108.0625,31.5938 1110.1719,33.4844 1113.0625,33.4844 C1114.2813,33.4844 1115.4375,33.1875 1116.1875,32.6406 C1116.7656,32.2344 1117.0938,31.7813 1117.0938,31.3906 C1117.0938,30.9375 1116.7031,30.5469 1116.2344,30.5469 C1116.0156,30.5469 1115.8125,30.625 1115.625,30.8125 C1115.1719,31.2969 1115.1719,31.2969 1114.9844,31.3906 C1114.5625,31.6563 1113.875,31.7813 1113.1094,31.7813 C1111.0625,31.7813 1109.7656,30.6875 1109.7656,28.9844 L1109.7656,27.8906 C1109.7656,26.1094 1111.0156,24.7969 1112.75,24.7969 C1113.3281,24.7969 1113.9375,24.9531 1114.4063,25.2031 C1114.8906,25.4844 1115.0625,25.7031 1115.1563,26.1094 C1115.2188,26.5156 1115.25,26.6406 1115.3906,26.7656 C1115.5313,26.9063 1115.7656,27.0156 1115.9844,27.0156 C1116.25,27.0156 1116.5156,26.875 1116.6875,26.6563 C1116.7969,26.5 1116.8281,26.3125 1116.8281,25.8906 L1116.8281,24.4688 C1116.8281,24.0313 1116.8125,23.9063 1116.7188,23.75 C1116.5625,23.4844 1116.2813,23.3438 1115.9844,23.3438 C1115.6875,23.3438 1115.4844,23.4375 1115.2656,23.75 L1115.0938,23.6719 Z " fill="#000000"/><text fill="#000000" font-family="sans-serif" font-size="14" lengthAdjust="spacing" textLength="62" x="1133.25" y="32.8467">Location</text><line style="stroke:#181818;stroke-width:0.5;" x1="1058.5" x2="1237.5" y1="44" y2="44"/><text fill="#000000" font-family="sans-serif" font-size="14" lengthAdjust="spacing" textLength="59" x="1063.5" y="60.9951">Id string</text><text fill="#000000" font-family="sans-serif" font-size="14" lengthAdjust="spacing" textLength="87" x="1063.5" y="77.292">Name string</text><text fill="#000000" font-family="sans-serif" font-size="14" lengthAdjust="spacing" textLength="130" x="1063.5" y="93.5889">Description string</text><text fill="#000000" font-family="sans-serif" font-size="14" lengthAdjust="spacing" textLength="90" x="1063.5" y="109.8857">Image string</text><text fill="#000000" font-family="sans-serif" font-size="14" lengthAdjust="spacing" textLength="125" x="1063.5" y="126.1826">DeviceIds []string</text><text fill="#000000" font-family="sans-serif" font-size="14" lengthAdjust="spacing" textLength="169" x="1063.5" y="142.4795">DeviceGroupIds []string</text><line style="stroke:#181818;stroke-width:0.5;" x1="1058.5" x2="1237.5" y1="149.7813" y2="149.7813"/></g><!--class DeviceGroup--><g id="elem_DeviceGroup"><rect codeLine="104" fill="#F1F1F1" height="162.0781" id="DeviceGroup" rx="2.5" ry="2.5" style="stroke:#181818;stroke-width:0.5;" width="265" x="1045.6667" y="232.0469"/><ellipse cx="1127.4167" cy="248.0469" fill="#ADD1B2" rx="11" ry="11" style="stroke:#181818;stroke-width:1.0;"/><path d="M1129.7604,243.7188 C1128.8229,243.2813 1128.2292,243.1406 1127.3542,243.1406 C1124.7292,243.1406 1122.7292,245.2188 1122.7292,247.9375 L1122.7292,249.0625 C1122.7292,251.6406 1124.8385,253.5313 1127.7292,253.5313 C1128.9479,253.5313 1130.1042,253.2344 1130.8542,252.6875 C1131.4323,252.2813 1131.7604,251.8281 1131.7604,251.4375 C1131.7604,250.9844 1131.3698,250.5938 1130.901,250.5938 C1130.6823,250.5938 1130.4792,250.6719 1130.2917,250.8594 C1129.8385,251.3438 1129.8385,251.3438 1129.651,251.4375 C1129.2292,251.7031 1128.5417,251.8281 1127.776,251.8281 C1125.7292,251.8281 1124.4323,250.7344 1124.4323,249.0313 L1124.4323,247.9375 C1124.4323,246.1563 1125.6823,244.8438 1127.4167,244.8438 C1127.9948,244.8438 1128.6042,245 1129.0729,245.25 C1129.5573,245.5313 1129.7292,245.75 1129.8229,246.1563 C1129.8854,246.5625 1129.9167,246.6875 1130.0573,246.8125 C1130.1979,246.9531 1130.4323,247.0625 1130.651,247.0625 C1130.9167,247.0625 1131.1823,246.9219 1131.3542,246.7031 C1131.4635,246.5469 1131.4948,246.3594 1131.4948,245.9375 L1131.4948,244.5156 C1131.4948,244.0781 1131.4792,243.9531 1131.3854,243.7969 C1131.2292,243.5313 1130.9479,243.3906 1130.651,243.3906 C1130.3542,243.3906 1130.151,243.4844 1129.9323,243.7969 L1129.7604,243.7188 Z " fill="#000000"/><text fill="#000000" font-family="sans-serif" font-size="14" lengthAdjust="spacing" textLength="93" x="1147.9167" y="252.8936">DeviceGroup</text><line style="stroke:#181818;stroke-width:0.5;" x1="1046.6667" x2="1309.6667" y1="264.0469" y2="264.0469"/><text fill="#000000" font-family="sans-serif" font-size="14" lengthAdjust="spacing" textLength="59" x="1051.6667" y="281.042">Id string</text><text fill="#000000" font-family="sans-serif" font-size="14" lengthAdjust="spacing" textLength="87" x="1051.6667" y="297.3389">Name string</text><text fill="#000000" font-family="sans-serif" font-size="14" lengthAdjust="spacing" textLength="90" x="1051.6667" y="313.6357">Image string</text><text fill="#000000" font-family="sans-serif" font-size="14" lengthAdjust="spacing" textLength="253" x="1051.6667" y="329.9326">Criteria []DeviceGroupFilterCriteria</text><text fill="#000000" font-family="sans-serif" font-size="14" lengthAdjust="spacing" textLength="125" x="1051.6667" y="346.2295">DeviceIds []string</text><text fill="#000000" font-family="sans-serif" font-size="14" lengthAdjust="spacing" textLength="150" x="1051.6667" y="362.5264">CriteriaShort []string</text><text fill="#000000" font-family="sans-serif" font-size="14" lengthAdjust="spacing" textLength="157" x="1051.6667" y="378.8232">Attributes []Attribute</text><line style="stroke:#181818;stroke-width:0.5;" x1="1046.6667" x2="1309.6667" y1="386.125" y2="386.125"/></g><!--class Protocol--><g id="elem_Protocol"><rect codeLine="47" fill="#F1F1F1" height="129.4844" id="Protocol" rx="2.5" ry="2.5" style="stroke:#181818;stroke-width:0.5;" width="287" x="618.6667" y="1253.7188"/><ellipse cx="727.4167" cy="1269.7188" fill="#ADD1B2" rx="11" ry="11" style="stroke:#181818;stroke-width:1.0;"/><path d="M729.7604,1265.3906 C728.8229,1264.9531 728.2292,1264.8125 727.3542,1264.8125 C724.7292,1264.8125 722.7292,1266.8906 722.7292,1269.6094 L722.7292,1270.7344 C722.7292,1273.3125 724.8385,1275.2031 727.7292,1275.2031 C728.9479,1275.2031 730.1042,1274.9063 730.8542,1274.3594 C731.4323,1273.9531 731.7604,1273.5 731.7604,1273.1094 C731.7604,1272.6563 731.3698,1272.2656 730.901,1272.2656 C730.6823,1272.2656 730.4792,1272.3438 730.2917,1272.5313 C729.8385,1273.0156 729.8385,1273.0156 729.651,1273.1094 C729.2292,1273.375 728.5417,1273.5 727.776,1273.5 C725.7292,1273.5 724.4323,1272.4063 724.4323,1270.7031 L724.4323,1269.6094 C724.4323,1267.8281 725.6823,1266.5156 727.4167,1266.5156 C727.9948,1266.5156 728.6042,1266.6719 729.0729,1266.9219 C729.5573,1267.2031 729.7292,1267.4219 729.8229,1267.8281 C729.8854,1268.2344 729.9167,1268.3594 730.0573,1268.4844 C730.1979,1268.625 730.4323,1268.7344 730.651,1268.7344 C730.9167,1268.7344 731.1823,1268.5938 731.3542,1268.375 C731.4635,1268.2188 731.4948,1268.0313 731.4948,1267.6094 L731.4948,1266.1875 C731.4948,1265.75 731.4792,1265.625 731.3854,1265.4688 C731.2292,1265.2031 730.9479,1265.0625 730.651,1265.0625 C730.3542,1265.0625 730.151,1265.1563 729.9323,1265.4688 L729.7604,1265.3906 Z " fill="#000000"/><text fill="#000000" font-family="sans-serif" font-size="14" lengthAdjust="spacing" textLength="61" x="747.9167" y="1274.5654">Protocol</text><line style="stroke:#181818;stroke-width:0.5;" x1="619.6667" x2="904.6667" y1="1285.7188" y2="1285.7188"/><text fill="#000000" font-family="sans-serif" font-size="14" lengthAdjust="spacing" textLength="59" x="624.6667" y="1302.7139">Id string</text><text fill="#000000" font-family="sans-serif" font-size="14" lengthAdjust="spacing" textLength="87" x="624.6667" y="1319.0107">Name string</text><text fill="#000000" font-family="sans-serif" font-size="14" lengthAdjust="spacing" textLength="101" x="624.6667" y="1335.3076">Handler string</text><text fill="#000000" font-family="sans-serif" font-size="14" lengthAdjust="spacing" textLength="275" x="624.6667" y="1351.6045">ProtocolSegments []ProtocolSegment</text><text fill="#000000" font-family="sans-serif" font-size="14" lengthAdjust="spacing" textLength="139" x="624.6667" y="1367.9014">Constraints []string</text><line style="stroke:#181818;stroke-width:0.5;" x1="619.6667" x2="904.6667" y1="1375.2031" y2="1375.2031"/></g><!--class ProtocolSegment--><g id="elem_ProtocolSegment"><rect codeLine="57" fill="#F1F1F1" height="80.5938" id="ProtocolSegment" rx="2.5" ry="2.5" style="stroke:#181818;stroke-width:0.5;" width="159" x="813.1667" y="1457.4688"/><ellipse cx="828.1667" cy="1473.4688" fill="#ADD1B2" rx="11" ry="11" style="stroke:#181818;stroke-width:1.0;"/><path d="M830.5104,1469.1406 C829.5729,1468.7031 828.9792,1468.5625 828.1042,1468.5625 C825.4792,1468.5625 823.4792,1470.6406 823.4792,1473.3594 L823.4792,1474.4844 C823.4792,1477.0625 825.5885,1478.9531 828.4792,1478.9531 C829.6979,1478.9531 830.8542,1478.6563 831.6042,1478.1094 C832.1823,1477.7031 832.5104,1477.25 832.5104,1476.8594 C832.5104,1476.4063 832.1198,1476.0156 831.651,1476.0156 C831.4323,1476.0156 831.2292,1476.0938 831.0417,1476.2813 C830.5885,1476.7656 830.5885,1476.7656 830.401,1476.8594 C829.9792,1477.125 829.2917,1477.25 828.526,1477.25 C826.4792,1477.25 825.1823,1476.1563 825.1823,1474.4531 L825.1823,1473.3594 C825.1823,1471.5781 826.4323,1470.2656 828.1667,1470.2656 C828.7448,1470.2656 829.3542,1470.4219 829.8229,1470.6719 C830.3073,1470.9531 830.4792,1471.1719 830.5729,1471.5781 C830.6354,1471.9844 830.6667,1472.1094 830.8073,1472.2344 C830.9479,1472.375 831.1823,1472.4844 831.401,1472.4844 C831.6667,1472.4844 831.9323,1472.3438 832.1042,1472.125 C832.2135,1471.9688 832.2448,1471.7813 832.2448,1471.3594 L832.2448,1469.9375 C832.2448,1469.5 832.2292,1469.375 832.1354,1469.2188 C831.9792,1468.9531 831.6979,1468.8125 831.401,1468.8125 C831.1042,1468.8125 830.901,1468.9063 830.6823,1469.2188 L830.5104,1469.1406 Z " fill="#000000"/><text fill="#000000" font-family="sans-serif" font-size="14" lengthAdjust="spacing" textLength="127" x="842.1667" y="1478.3154">ProtocolSegment</text><line style="stroke:#181818;stroke-width:0.5;" x1="814.1667" x2="971.1667" y1="1489.4688" y2="1489.4688"/><text fill="#000000" font-family="sans-serif" font-size="14" lengthAdjust="spacing" textLength="59" x="819.1667" y="1506.4639">Id string</text><text fill="#000000" font-family="sans-serif" font-size="14" lengthAdjust="spacing" textLength="87" x="819.1667" y="1522.7607">Name string</text><line style="stroke:#181818;stroke-width:0.5;" x1="814.1667" x2="971.1667" y1="1530.0625" y2="1530.0625"/></g><!--class Aspect--><g id="elem_Aspect"><rect codeLine="64" fill="#F1F1F1" height="96.8906" id="Aspect" rx="2.5" ry="2.5" style="stroke:#181818;stroke-width:0.5;" width="162" x="1175.9667" y="1775.2969"/><ellipse cx="1227.2167" cy="1791.2969" fill="#ADD1B2" rx="11" ry="11" style="stroke:#181818;stroke-width:1.0;"/><path d="M1229.5604,1786.9688 C1228.6229,1786.5313 1228.0292,1786.3906 1227.1542,1786.3906 C1224.5292,1786.3906 1222.5292,1788.4688 1222.5292,1791.1875 L1222.5292,1792.3125 C1222.5292,1794.8906 1224.6385,1796.7813 1227.5292,1796.7813 C1228.7479,1796.7813 1229.9042,1796.4844 1230.6542,1795.9375 C1231.2323,1795.5313 1231.5604,1795.0781 1231.5604,1794.6875 C1231.5604,1794.2344 1231.1698,1793.8438 1230.701,1793.8438 C1230.4823,1793.8438 1230.2792,1793.9219 1230.0917,1794.1094 C1229.6385,1794.5938 1229.6385,1794.5938 1229.451,1794.6875 C1229.0292,1794.9531 1228.3417,1795.0781 1227.576,1795.0781 C1225.5292,1795.0781 1224.2323,1793.9844 1224.2323,1792.2813 L1224.2323,1791.1875 C1224.2323,1789.4063 1225.4823,1788.0938 1227.2167,1788.0938 C1227.7948,1788.0938 1228.4042,1788.25 1228.8729,1788.5 C1229.3573,1788.7813 1229.5292,1789 1229.6229,1789.4063 C1229.6854,1789.8125 1229.7167,1789.9375 1229.8573,1790.0625 C1229.9979,1790.2031 1230.2323,1790.3125 1230.451,1790.3125 C1230.7167,1790.3125 1230.9823,1790.1719 1231.1542,1789.9531 C1231.2635,1789.7969 1231.2948,1789.6094 1231.2948,1789.1875 L1231.2948,1787.7656 C1231.2948,1787.3281 1231.2792,1787.2031 1231.1854,1787.0469 C1231.0292,1786.7813 1230.7479,1786.6406 1230.451,1786.6406 C1230.1542,1786.6406 1229.951,1786.7344 1229.7323,1787.0469 L1229.5604,1786.9688 Z " fill="#000000"/><text fill="#000000" font-family="sans-serif" font-size="14" lengthAdjust="spacing" textLength="51" x="1247.7167" y="1796.1436">Aspect</text><line style="stroke:#181818;stroke-width:0.5;" x1="1176.9667" x2="1336.9667" y1="1807.2969" y2="1807.2969"/><text fill="#000000" font-family="sans-serif" font-size="14" lengthAdjust="spacing" textLength="59" x="1181.9667" y="1824.292">Id string</text><text fill="#000000" font-family="sans-serif" font-size="14" lengthAdjust="spacing" textLength="87" x="1181.9667" y="1840.5889">Name string</text><text fill="#000000" font-family="sans-serif" font-size="14" lengthAdjust="spacing" textLength="150" x="1181.9667" y="1856.8857">SubAspects []Aspect</text><line style="stroke:#181818;stroke-width:0.5;" x1="1176.9667" x2="1336.9667" y1="1864.1875" y2="1864.1875"/></g><!--class AspectNode--><g id="elem_AspectNode"><rect codeLine="72" fill="#F1F1F1" height="162.0781" id="AspectNode" rx="2.5" ry="2.5" style="stroke:#181818;stroke-width:0.5;" width="175" x="862.5" y="12.418"/><ellipse cx="902.25" cy="28.418" fill="#ADD1B2" rx="11" ry="11" style="stroke:#181818;stroke-width:1.0;"/><path d="M904.5937,24.0898 C903.6562,23.6523 903.0625,23.5117 902.1875,23.5117 C899.5625,23.5117 897.5625,25.5898 897.5625,28.3086 L897.5625,29.4336 C897.5625,32.0117 899.6719,33.9023 902.5625,33.9023 C903.7812,33.9023 904.9375,33.6055 905.6875,33.0586 C906.2656,32.6523 906.5937,32.1992 906.5937,31.8086 C906.5937,31.3555 906.2031,30.9648 905.7344,30.9648 C905.5156,30.9648 905.3125,31.043 905.125,31.2305 C904.6719,31.7148 904.6719,31.7148 904.4844,31.8086 C904.0625,32.0742 903.375,32.1992 902.6094,32.1992 C900.5625,32.1992 899.2656,31.1055 899.2656,29.4023 L899.2656,28.3086 C899.2656,26.5273 900.5156,25.2148 902.25,25.2148 C902.8281,25.2148 903.4375,25.3711 903.9062,25.6211 C904.3906,25.9023 904.5625,26.1211 904.6562,26.5273 C904.7187,26.9336 904.75,27.0586 904.8906,27.1836 C905.0312,27.3242 905.2656,27.4336 905.4844,27.4336 C905.75,27.4336 906.0156,27.293 906.1875,27.0742 C906.2969,26.918 906.3281,26.7305 906.3281,26.3086 L906.3281,24.8867 C906.3281,24.4492 906.3125,24.3242 906.2187,24.168 C906.0625,23.9023 905.7812,23.7617 905.4844,23.7617 C905.1875,23.7617 904.9844,23.8555 904.7656,24.168 L904.5937,24.0898 Z " fill="#000000"/><text fill="#000000" font-family="sans-serif" font-size="14" lengthAdjust="spacing" textLength="88" x="921.75" y="33.2646">AspectNode</text><line style="stroke:#181818;stroke-width:0.5;" x1="863.5" x2="1036.5" y1="44.418" y2="44.418"/><text fill="#000000" font-family="sans-serif" font-size="14" lengthAdjust="spacing" textLength="59" x="868.5" y="61.4131">Id string</text><text fill="#000000" font-family="sans-serif" font-size="14" lengthAdjust="spacing" textLength="87" x="868.5" y="77.71">Name string</text><text fill="#000000" font-family="sans-serif" font-size="14" lengthAdjust="spacing" textLength="94" x="868.5" y="94.0068">RootId string</text><text fill="#000000" font-family="sans-serif" font-size="14" lengthAdjust="spacing" textLength="107" x="868.5" y="110.3037">ParentId string</text><text fill="#000000" font-family="sans-serif" font-size="14" lengthAdjust="spacing" textLength="112" x="868.5" y="126.6006">ChildIds []string</text><text fill="#000000" font-family="sans-serif" font-size="14" lengthAdjust="spacing" textLength="141" x="868.5" y="142.8975">AncestorIds []string</text><text fill="#000000" font-family="sans-serif" font-size="14" lengthAdjust="spacing" textLength="163" x="868.5" y="159.1943">DescendentIds []string</text><line style="stroke:#181818;stroke-width:0.5;" x1="863.5" x2="1036.5" y1="166.4961" y2="166.4961"/></g><!--class ContentVariable--><g id="elem_ContentVariable"><rect codeLine="84" fill="#F1F1F1" height="243.5625" id="ContentVariable" rx="2.5" ry="2.5" style="stroke:#181818;stroke-width:0.5;" width="298" x="1169.1667" y="1457.4688"/><ellipse cx="1254.4167" cy="1473.4688" fill="#ADD1B2" rx="11" ry="11" style="stroke:#181818;stroke-width:1.0;"/><path d="M1256.7604,1469.1406 C1255.8229,1468.7031 1255.2292,1468.5625 1254.3542,1468.5625 C1251.7292,1468.5625 1249.7292,1470.6406 1249.7292,1473.3594 L1249.7292,1474.4844 C1249.7292,1477.0625 1251.8385,1478.9531 1254.7292,1478.9531 C1255.9479,1478.9531 1257.1042,1478.6563 1257.8542,1478.1094 C1258.4323,1477.7031 1258.7604,1477.25 1258.7604,1476.8594 C1258.7604,1476.4063 1258.3698,1476.0156 1257.901,1476.0156 C1257.6823,1476.0156 1257.4792,1476.0938 1257.2917,1476.2813 C1256.8385,1476.7656 1256.8385,1476.7656 1256.651,1476.8594 C1256.2292,1477.125 1255.5417,1477.25 1254.776,1477.25 C1252.7292,1477.25 1251.4323,1476.1563 1251.4323,1474.4531 L1251.4323,1473.3594 C1251.4323,1471.5781 1252.6823,1470.2656 1254.4167,1470.2656 C1254.9948,1470.2656 1255.6042,1470.4219 1256.0729,1470.6719 C1256.5573,1470.9531 1256.7292,1471.1719 1256.8229,1471.5781 C1256.8854,1471.9844 1256.9167,1472.1094 1257.0573,1472.2344 C1257.1979,1472.375 1257.4323,1472.4844 1257.651,1472.4844 C1257.9167,1472.4844 1258.1823,1472.3438 1258.3542,1472.125 C1258.4635,1471.9688 1258.4948,1471.7813 1258.4948,1471.3594 L1258.4948,1469.9375 C1258.4948,1469.5 1258.4792,1469.375 1258.3854,1469.2188 C1258.2292,1468.9531 1257.9479,1468.8125 1257.651,1468.8125 C1257.3542,1468.8125 1257.151,1468.9063 1256.9323,1469.2188 L1256.7604,1469.1406 Z " fill="#000000"/><text fill="#000000" font-family="sans-serif" font-size="14" lengthAdjust="spacing" textLength="119" x="1274.9167" y="1478.3154">ContentVariable</text><line style="stroke:#181818;stroke-width:0.5;" x1="1170.1667" x2="1466.1667" y1="1489.4688" y2="1489.4688"/><text fill="#000000" font-family="sans-serif" font-size="14" lengthAdjust="spacing" textLength="59" x="1175.1667" y="1506.4639">Id string</text><text fill="#000000" font-family="sans-serif" font-size="14" lengthAdjust="spacing" textLength="87" x="1175.1667" y="1522.7607">Name string</text><text fill="#000000" font-family="sans-serif" font-size="14" lengthAdjust="spacing" textLength="79" x="1175.1667" y="1539.0576">IsVoid bool</text><text fill="#000000" font-family="sans-serif" font-size="14" lengthAdjust="spacing" textLength="120" x="1175.1667" y="1555.3545">OmitEmpty bool</text><text fill="#000000" font-family="sans-serif" font-size="14" lengthAdjust="spacing" textLength="76" x="1175.1667" y="1571.6514">Type Type</text><text fill="#000000" font-family="sans-serif" font-size="14" lengthAdjust="spacing" textLength="286" x="1175.1667" y="1587.9482">SubContentVariables []ContentVariable</text><text fill="#000000" font-family="sans-serif" font-size="14" lengthAdjust="spacing" textLength="160" x="1175.1667" y="1604.2451">CharacteristicId string</text><text fill="#000000" font-family="sans-serif" font-size="14" lengthAdjust="spacing" textLength="68" x="1175.1667" y="1620.542">Value any</text><text fill="#000000" font-family="sans-serif" font-size="14" lengthAdjust="spacing" textLength="202" x="1175.1667" y="1636.8389">SerializationOptions []string</text><text fill="#000000" font-family="sans-serif" font-size="14" lengthAdjust="spacing" textLength="150" x="1175.1667" y="1653.1357">UnitReference string</text><text fill="#000000" font-family="sans-serif" font-size="14" lengthAdjust="spacing" textLength="121" x="1175.1667" y="1669.4326">FunctionId string</text><text fill="#000000" font-family="sans-serif" font-size="14" lengthAdjust="spacing" textLength="110" x="1175.1667" y="1685.7295">AspectId string</text><line style="stroke:#181818;stroke-width:0.5;" x1="1170.1667" x2="1466.1667" y1="1693.0313" y2="1693.0313"/></g><!--class Characteristic--><g id="elem_Characteristic"><rect codeLine="169" fill="#F1F1F1" height="194.6719" id="Characteristic" rx="2.5" ry="2.5" style="stroke:#181818;stroke-width:0.5;" width="262" x="1151.4667" y="2209.0938"/><ellipse cx="1227.7167" cy="2225.0938" fill="#ADD1B2" rx="11" ry="11" style="stroke:#181818;stroke-width:1.0;"/><path d="M1230.0604,2220.7656 C1229.1229,2220.3281 1228.5292,2220.1875 1227.6542,2220.1875 C1225.0292,2220.1875 1223.0292,2222.2656 1223.0292,2224.9844 L1223.0292,2226.1094 C1223.0292,2228.6875 1225.1385,2230.5781 1228.0292,2230.5781 C1229.2479,2230.5781 1230.4042,2230.2813 1231.1542,2229.7344 C1231.7323,2229.3281 1232.0604,2228.875 1232.0604,2228.4844 C1232.0604,2228.0313 1231.6698,2227.6406 1231.201,2227.6406 C1230.9823,2227.6406 1230.7792,2227.7188 1230.5917,2227.9063 C1230.1385,2228.3906 1230.1385,2228.3906 1229.951,2228.4844 C1229.5292,2228.75 1228.8417,2228.875 1228.076,2228.875 C1226.0292,2228.875 1224.7323,2227.7813 1224.7323,2226.0781 L1224.7323,2224.9844 C1224.7323,2223.2031 1225.9823,2221.8906 1227.7167,2221.8906 C1228.2948,2221.8906 1228.9042,2222.0469 1229.3729,2222.2969 C1229.8573,2222.5781 1230.0292,2222.7969 1230.1229,2223.2031 C1230.1854,2223.6094 1230.2167,2223.7344 1230.3573,2223.8594 C1230.4979,2224 1230.7323,2224.1094 1230.951,2224.1094 C1231.2167,2224.1094 1231.4823,2223.9688 1231.6542,2223.75 C1231.7635,2223.5938 1231.7948,2223.4063 1231.7948,2222.9844 L1231.7948,2221.5625 C1231.7948,2221.125 1231.7792,2221 1231.6854,2220.8438 C1231.5292,2220.5781 1231.2479,2220.4375 1230.951,2220.4375 C1230.6542,2220.4375 1230.451,2220.5313 1230.2323,2220.8438 L1230.0604,2220.7656 Z " fill="#000000"/><text fill="#000000" font-family="sans-serif" font-size="14" lengthAdjust="spacing" textLength="101" x="1248.2167" y="2229.9404">Characteristic</text><line style="stroke:#181818;stroke-width:0.5;" x1="1152.4667" x2="1412.4667" y1="2241.0938" y2="2241.0938"/><text fill="#000000" font-family="sans-serif" font-size="14" lengthAdjust="spacing" textLength="59" x="1157.4667" y="2258.0889">Id string</text><text fill="#000000" font-family="sans-serif" font-size="14" lengthAdjust="spacing" textLength="87" x="1157.4667" y="2274.3857">Name string</text><text fill="#000000" font-family="sans-serif" font-size="14" lengthAdjust="spacing" textLength="127" x="1157.4667" y="2290.6826">DisplayUnit string</text><text fill="#000000" font-family="sans-serif" font-size="14" lengthAdjust="spacing" textLength="76" x="1157.4667" y="2306.9795">Type Type</text><text fill="#000000" font-family="sans-serif" font-size="14" lengthAdjust="spacing" textLength="93" x="1157.4667" y="2323.2764">MinValue any</text><text fill="#000000" font-family="sans-serif" font-size="14" lengthAdjust="spacing" textLength="96" x="1157.4667" y="2339.5732">MaxValue any</text><text fill="#000000" font-family="sans-serif" font-size="14" lengthAdjust="spacing" textLength="141" x="1157.4667" y="2355.8701">AllowedValues []any</text><text fill="#000000" font-family="sans-serif" font-size="14" lengthAdjust="spacing" textLength="68" x="1157.4667" y="2372.167">Value any</text><text fill="#000000" font-family="sans-serif" font-size="14" lengthAdjust="spacing" textLength="250" x="1157.4667" y="2388.4639">SubCharacteristics []Characteristic</text><line style="stroke:#181818;stroke-width:0.5;" x1="1152.4667" x2="1412.4667" y1="2395.7656" y2="2395.7656"/></g><!--class Function--><g id="elem_Function"><rect codeLine="233" fill="#F1F1F1" height="145.7813" id="Function" rx="2.5" ry="2.5" style="stroke:#181818;stroke-width:0.5;" width="151" x="342" y="1775.2969"/><ellipse cx="382.65" cy="1791.2969" fill="#ADD1B2" rx="11" ry="11" style="stroke:#181818;stroke-width:1.0;"/><path d="M384.9938,1786.9688 C384.0563,1786.5313 383.4625,1786.3906 382.5875,1786.3906 C379.9625,1786.3906 377.9625,1788.4688 377.9625,1791.1875 L377.9625,1792.3125 C377.9625,1794.8906 380.0719,1796.7813 382.9625,1796.7813 C384.1813,1796.7813 385.3375,1796.4844 386.0875,1795.9375 C386.6656,1795.5313 386.9938,1795.0781 386.9938,1794.6875 C386.9938,1794.2344 386.6031,1793.8438 386.1344,1793.8438 C385.9156,1793.8438 385.7125,1793.9219 385.525,1794.1094 C385.0719,1794.5938 385.0719,1794.5938 384.8844,1794.6875 C384.4625,1794.9531 383.775,1795.0781 383.0094,1795.0781 C380.9625,1795.0781 379.6656,1793.9844 379.6656,1792.2813 L379.6656,1791.1875 C379.6656,1789.4063 380.9156,1788.0938 382.65,1788.0938 C383.2281,1788.0938 383.8375,1788.25 384.3063,1788.5 C384.7906,1788.7813 384.9625,1789 385.0563,1789.4063 C385.1188,1789.8125 385.15,1789.9375 385.2906,1790.0625 C385.4313,1790.2031 385.6656,1790.3125 385.8844,1790.3125 C386.15,1790.3125 386.4156,1790.1719 386.5875,1789.9531 C386.6969,1789.7969 386.7281,1789.6094 386.7281,1789.1875 L386.7281,1787.7656 C386.7281,1787.3281 386.7125,1787.2031 386.6188,1787.0469 C386.4625,1786.7813 386.1813,1786.6406 385.8844,1786.6406 C385.5875,1786.6406 385.3844,1786.7344 385.1656,1787.0469 L384.9938,1786.9688 Z " fill="#000000"/><text fill="#000000" font-family="sans-serif" font-size="14" lengthAdjust="spacing" textLength="62" x="402.35" y="1796.1436">Function</text><line style="stroke:#181818;stroke-width:0.5;" x1="343" x2="492" y1="1807.2969" y2="1807.2969"/><text fill="#000000" font-family="sans-serif" font-size="14" lengthAdjust="spacing" textLength="59" x="348" y="1824.292">Id string</text><text fill="#000000" font-family="sans-serif" font-size="14" lengthAdjust="spacing" textLength="87" x="348" y="1840.5889">Name string</text><text fill="#000000" font-family="sans-serif" font-size="14" lengthAdjust="spacing" textLength="139" x="348" y="1856.8857">DisplayName string</text><text fill="#000000" font-family="sans-serif" font-size="14" lengthAdjust="spacing" textLength="130" x="348" y="1873.1826">Description string</text><text fill="#000000" font-family="sans-serif" font-size="14" lengthAdjust="spacing" textLength="121" x="348" y="1889.4795">ConceptId string</text><text fill="#000000" font-family="sans-serif" font-size="14" lengthAdjust="spacing" textLength="107" x="348" y="1905.7764">RdfType string</text><line style="stroke:#181818;stroke-width:0.5;" x1="343" x2="492" y1="1913.0781" y2="1913.0781"/></g><!--class DeviceGroupFilterCriteria--><g id="elem_DeviceGroupFilterCriteria"><rect codeLine="117" fill="#F1F1F1" height="113.1875" id="DeviceGroupFilterCriteria" rx="2.5" ry="2.5" style="stroke:#181818;stroke-width:0.5;" width="217" x="164.6667" y="1016.7094"/><ellipse cx="179.6667" cy="1032.7094" fill="#ADD1B2" rx="11" ry="11" style="stroke:#181818;stroke-width:1.0;"/><path d="M182.0104,1028.3813 C181.0729,1027.9438 180.4792,1027.8031 179.6042,1027.8031 C176.9792,1027.8031 174.9792,1029.8813 174.9792,1032.6 L174.9792,1033.725 C174.9792,1036.3031 177.0885,1038.1938 179.9792,1038.1938 C181.1979,1038.1938 182.3542,1037.8969 183.1042,1037.35 C183.6823,1036.9438 184.0104,1036.4906 184.0104,1036.1 C184.0104,1035.6469 183.6198,1035.2563 183.151,1035.2563 C182.9323,1035.2563 182.7292,1035.3344 182.5417,1035.5219 C182.0885,1036.0063 182.0885,1036.0063 181.901,1036.1 C181.4792,1036.3656 180.7917,1036.4906 180.026,1036.4906 C177.9792,1036.4906 176.6823,1035.3969 176.6823,1033.6938 L176.6823,1032.6 C176.6823,1030.8188 177.9323,1029.5063 179.6667,1029.5063 C180.2448,1029.5063 180.8542,1029.6625 181.3229,1029.9125 C181.8073,1030.1938 181.9792,1030.4125 182.0729,1030.8188 C182.1354,1031.225 182.1667,1031.35 182.3073,1031.475 C182.4479,1031.6156 182.6823,1031.725 182.901,1031.725 C183.1667,1031.725 183.4323,1031.5844 183.6042,1031.3656 C183.7135,1031.2094 183.7448,1031.0219 183.7448,1030.6 L183.7448,1029.1781 C183.7448,1028.7406 183.7292,1028.6156 183.6354,1028.4594 C183.4792,1028.1938 183.1979,1028.0531 182.901,1028.0531 C182.6042,1028.0531 182.401,1028.1469 182.1823,1028.4594 L182.0104,1028.3813 Z " fill="#000000"/><text fill="#000000" font-family="sans-serif" font-size="14" lengthAdjust="spacing" textLength="185" x="193.6667" y="1037.5561">DeviceGroupFilterCriteria</text><line style="stroke:#181818;stroke-width:0.5;" x1="165.6667" x2="380.6667" y1="1048.7094" y2="1048.7094"/><text fill="#000000" font-family="sans-serif" font-size="14" lengthAdjust="spacing" textLength="164" x="170.6667" y="1065.7045">Interaction Interaction</text><text fill="#000000" font-family="sans-serif" font-size="14" lengthAdjust="spacing" textLength="121" x="170.6667" y="1082.0014">FunctionId string</text><text fill="#000000" font-family="sans-serif" font-size="14" lengthAdjust="spacing" textLength="110" x="170.6667" y="1098.2982">AspectId string</text><text fill="#000000" font-family="sans-serif" font-size="14" lengthAdjust="spacing" textLength="144" x="170.6667" y="1114.5951">DeviceClassId string</text><line style="stroke:#181818;stroke-width:0.5;" x1="165.6667" x2="380.6667" y1="1121.8969" y2="1121.8969"/></g><!--class DeviceClass--><g id="elem_DeviceClass"><rect codeLine="215" fill="#F1F1F1" height="96.8906" id="DeviceClass" rx="2.5" ry="2.5" style="stroke:#181818;stroke-width:0.5;" width="117" x="326.6667" y="1268.8516"/><ellipse cx="341.6667" cy="1284.8516" fill="#ADD1B2" rx="11" ry="11" style="stroke:#181818;stroke-width:1.0;"/><path d="M344.0104,1280.5234 C343.0729,1280.0859 342.4792,1279.9453 341.6042,1279.9453 C338.9792,1279.9453 336.9792,1282.0234 336.9792,1284.7422 L336.9792,1285.8672 C336.9792,1288.4453 339.0885,1290.3359 341.9792,1290.3359 C343.1979,1290.3359 344.3542,1290.0391 345.1042,1289.4922 C345.6823,1289.0859 346.0104,1288.6328 346.0104,1288.2422 C346.0104,1287.7891 345.6198,1287.3984 345.151,1287.3984 C344.9323,1287.3984 344.7292,1287.4766 344.5417,1287.6641 C344.0885,1288.1484 344.0885,1288.1484 343.901,1288.2422 C343.4792,1288.5078 342.7917,1288.6328 342.026,1288.6328 C339.9792,1288.6328 338.6823,1287.5391 338.6823,1285.8359 L338.6823,1284.7422 C338.6823,1282.9609 339.9323,1281.6484 341.6667,1281.6484 C342.2448,1281.6484 342.8542,1281.8047 343.3229,1282.0547 C343.8073,1282.3359 343.9792,1282.5547 344.0729,1282.9609 C344.1354,1283.3672 344.1667,1283.4922 344.3073,1283.6172 C344.4479,1283.7578 344.6823,1283.8672 344.901,1283.8672 C345.1667,1283.8672 345.4323,1283.7266 345.6042,1283.5078 C345.7135,1283.3516 345.7448,1283.1641 345.7448,1282.7422 L345.7448,1281.3203 C345.7448,1280.8828 345.7292,1280.7578 345.6354,1280.6016 C345.4792,1280.3359 345.1979,1280.1953 344.901,1280.1953 C344.6042,1280.1953 344.401,1280.2891 344.1823,1280.6016 L344.0104,1280.5234 Z " fill="#000000"/><text fill="#000000" font-family="sans-serif" font-size="14" lengthAdjust="spacing" textLength="85" x="355.6667" y="1289.6982">DeviceClass</text><line style="stroke:#181818;stroke-width:0.5;" x1="327.6667" x2="442.6667" y1="1300.8516" y2="1300.8516"/><text fill="#000000" font-family="sans-serif" font-size="14" lengthAdjust="spacing" textLength="59" x="332.6667" y="1317.8467">Id string</text><text fill="#000000" font-family="sans-serif" font-size="14" lengthAdjust="spacing" textLength="90" x="332.6667" y="1334.1436">Image string</text><text fill="#000000" font-family="sans-serif" font-size="14" lengthAdjust="spacing" textLength="87" x="332.6667" y="1350.4404">Name string</text><line style="stroke:#181818;stroke-width:0.5;" x1="327.6667" x2="442.6667" y1="1357.7422" y2="1357.7422"/></g><!--class ServiceGroup--><g id="elem_ServiceGroup"><rect codeLine="262" fill="#F1F1F1" height="96.8906" id="ServiceGroup" rx="2.5" ry="2.5" style="stroke:#181818;stroke-width:0.5;" width="142" x="1199.6667" y="1268.8516"/><ellipse cx="1220.5167" cy="1284.8516" fill="#ADD1B2" rx="11" ry="11" style="stroke:#181818;stroke-width:1.0;"/><path d="M1222.8604,1280.5234 C1221.9229,1280.0859 1221.3292,1279.9453 1220.4542,1279.9453 C1217.8292,1279.9453 1215.8292,1282.0234 1215.8292,1284.7422 L1215.8292,1285.8672 C1215.8292,1288.4453 1217.9385,1290.3359 1220.8292,1290.3359 C1222.0479,1290.3359 1223.2042,1290.0391 1223.9542,1289.4922 C1224.5323,1289.0859 1224.8604,1288.6328 1224.8604,1288.2422 C1224.8604,1287.7891 1224.4698,1287.3984 1224.001,1287.3984 C1223.7823,1287.3984 1223.5792,1287.4766 1223.3917,1287.6641 C1222.9385,1288.1484 1222.9385,1288.1484 1222.751,1288.2422 C1222.3292,1288.5078 1221.6417,1288.6328 1220.876,1288.6328 C1218.8292,1288.6328 1217.5323,1287.5391 1217.5323,1285.8359 L1217.5323,1284.7422 C1217.5323,1282.9609 1218.7823,1281.6484 1220.5167,1281.6484 C1221.0948,1281.6484 1221.7042,1281.8047 1222.1729,1282.0547 C1222.6573,1282.3359 1222.8292,1282.5547 1222.9229,1282.9609 C1222.9854,1283.3672 1223.0167,1283.4922 1223.1573,1283.6172 C1223.2979,1283.7578 1223.5323,1283.8672 1223.751,1283.8672 C1224.0167,1283.8672 1224.2823,1283.7266 1224.4542,1283.5078 C1224.5635,1283.3516 1224.5948,1283.1641 1224.5948,1282.7422 L1224.5948,1281.3203 C1224.5948,1280.8828 1224.5792,1280.7578 1224.4854,1280.6016 C1224.3292,1280.3359 1224.0479,1280.1953 1223.751,1280.1953 C1223.4542,1280.1953 1223.251,1280.2891 1223.0323,1280.6016 L1222.8604,1280.5234 Z " fill="#000000"/><text fill="#000000" font-family="sans-serif" font-size="14" lengthAdjust="spacing" textLength="97" x="1235.8167" y="1289.6982">ServiceGroup</text><line style="stroke:#181818;stroke-width:0.5;" x1="1200.6667" x2="1340.6667" y1="1300.8516" y2="1300.8516"/><text fill="#000000" font-family="sans-serif" font-size="14" lengthAdjust="spacing" textLength="73" x="1205.6667" y="1317.8467">Key string</text><text fill="#000000" font-family="sans-serif" font-size="14" lengthAdjust="spacing" textLength="87" x="1205.6667" y="1334.1436">Name string</text><text fill="#000000" font-family="sans-serif" font-size="14" lengthAdjust="spacing" textLength="130" x="1205.6667" y="1350.4404">Description string</text><line style="stroke:#181818;stroke-width:0.5;" x1="1200.6667" x2="1340.6667" y1="1357.7422" y2="1357.7422"/></g><!--class Service--><g id="elem_Service"><rect codeLine="244" fill="#F1F1F1" height="210.9688" id="Service" rx="2.5" ry="2.5" style="stroke:#181818;stroke-width:0.5;" width="182" x="961.6667" y="938.4844"/><ellipse cx="1021.9167" cy="954.4844" fill="#ADD1B2" rx="11" ry="11" style="stroke:#181818;stroke-width:1.0;"/><path d="M1024.2604,950.1563 C1023.3229,949.7188 1022.7292,949.5781 1021.8542,949.5781 C1019.2292,949.5781 1017.2292,951.6563 1017.2292,954.375 L1017.2292,955.5 C1017.2292,958.0781 1019.3385,959.9688 1022.2292,959.9688 C1023.4479,959.9688 1024.6042,959.6719 1025.3542,959.125 C1025.9323,958.7188 1026.2604,958.2656 1026.2604,957.875 C1026.2604,957.4219 1025.8698,957.0313 1025.401,957.0313 C1025.1823,957.0313 1024.9792,957.1094 1024.7917,957.2969 C1024.3385,957.7813 1024.3385,957.7813 1024.151,957.875 C1023.7292,958.1406 1023.0417,958.2656 1022.276,958.2656 C1020.2292,958.2656 1018.9323,957.1719 1018.9323,955.4688 L1018.9323,954.375 C1018.9323,952.5938 1020.1823,951.2813 1021.9167,951.2813 C1022.4948,951.2813 1023.1042,951.4375 1023.5729,951.6875 C1024.0573,951.9688 1024.2292,952.1875 1024.3229,952.5938 C1024.3854,953 1024.4167,953.125 1024.5573,953.25 C1024.6979,953.3906 1024.9323,953.5 1025.151,953.5 C1025.4167,953.5 1025.6823,953.3594 1025.8542,953.1406 C1025.9635,952.9844 1025.9948,952.7969 1025.9948,952.375 L1025.9948,950.9531 C1025.9948,950.5156 1025.9792,950.3906 1025.8854,950.2344 C1025.7292,949.9688 1025.4479,949.8281 1025.151,949.8281 C1024.8542,949.8281 1024.651,949.9219 1024.4323,950.2344 L1024.2604,950.1563 Z " fill="#000000"/><text fill="#000000" font-family="sans-serif" font-size="14" lengthAdjust="spacing" textLength="53" x="1042.4167" y="959.3311">Service</text><line style="stroke:#181818;stroke-width:0.5;" x1="962.6667" x2="1142.6667" y1="970.4844" y2="970.4844"/><text fill="#000000" font-family="sans-serif" font-size="14" lengthAdjust="spacing" textLength="59" x="967.6667" y="987.4795">Id string</text><text fill="#000000" font-family="sans-serif" font-size="14" lengthAdjust="spacing" textLength="96" x="967.6667" y="1003.7764">LocalId string</text><text fill="#000000" font-family="sans-serif" font-size="14" lengthAdjust="spacing" textLength="87" x="967.6667" y="1020.0732">Name string</text><text fill="#000000" font-family="sans-serif" font-size="14" lengthAdjust="spacing" textLength="130" x="967.6667" y="1036.3701">Description string</text><text fill="#000000" font-family="sans-serif" font-size="14" lengthAdjust="spacing" textLength="164" x="967.6667" y="1052.667">Interaction Interaction</text><text fill="#000000" font-family="sans-serif" font-size="14" lengthAdjust="spacing" textLength="120" x="967.6667" y="1068.9639">ProtocolId string</text><text fill="#000000" font-family="sans-serif" font-size="14" lengthAdjust="spacing" textLength="119" x="967.6667" y="1085.2607">Inputs []Content</text><text fill="#000000" font-family="sans-serif" font-size="14" lengthAdjust="spacing" textLength="132" x="967.6667" y="1101.5576">Outputs []Content</text><text fill="#000000" font-family="sans-serif" font-size="14" lengthAdjust="spacing" textLength="157" x="967.6667" y="1117.8545">Attributes []Attribute</text><text fill="#000000" font-family="sans-serif" font-size="14" lengthAdjust="spacing" textLength="170" x="967.6667" y="1134.1514">ServiceGroupKey string</text><line style="stroke:#181818;stroke-width:0.5;" x1="962.6667" x2="1142.6667" y1="1141.4531" y2="1141.4531"/></g><!--class Hub--><g id="elem_Hub"><rect codeLine="142" fill="#F1F1F1" height="129.4844" id="Hub" rx="2.5" ry="2.5" style="stroke:#181818;stroke-width:0.5;" width="174" x="1330.6667" y="264.6406"/><ellipse cx="1399.4167" cy="280.6406" fill="#ADD1B2" rx="11" ry="11" style="stroke:#181818;stroke-width:1.0;"/><path d="M1401.7604,276.3125 C1400.8229,275.875 1400.2292,275.7344 1399.3542,275.7344 C1396.7292,275.7344 1394.7292,277.8125 1394.7292,280.5313 L1394.7292,281.6563 C1394.7292,284.2344 1396.8385,286.125 1399.7292,286.125 C1400.9479,286.125 1402.1042,285.8281 1402.8542,285.2813 C1403.4323,284.875 1403.7604,284.4219 1403.7604,284.0313 C1403.7604,283.5781 1403.3698,283.1875 1402.901,283.1875 C1402.6823,283.1875 1402.4792,283.2656 1402.2917,283.4531 C1401.8385,283.9375 1401.8385,283.9375 1401.651,284.0313 C1401.2292,284.2969 1400.5417,284.4219 1399.776,284.4219 C1397.7292,284.4219 1396.4323,283.3281 1396.4323,281.625 L1396.4323,280.5313 C1396.4323,278.75 1397.6823,277.4375 1399.4167,277.4375 C1399.9948,277.4375 1400.6042,277.5938 1401.0729,277.8438 C1401.5573,278.125 1401.7292,278.3438 1401.8229,278.75 C1401.8854,279.1563 1401.9167,279.2813 1402.0573,279.4063 C1402.1979,279.5469 1402.4323,279.6563 1402.651,279.6563 C1402.9167,279.6563 1403.1823,279.5156 1403.3542,279.2969 C1403.4635,279.1406 1403.4948,278.9531 1403.4948,278.5313 L1403.4948,277.1094 C1403.4948,276.6719 1403.4792,276.5469 1403.3854,276.3906 C1403.2292,276.125 1402.9479,275.9844 1402.651,275.9844 C1402.3542,275.9844 1402.151,276.0781 1401.9323,276.3906 L1401.7604,276.3125 Z " fill="#000000"/><text fill="#000000" font-family="sans-serif" font-size="14" lengthAdjust="spacing" textLength="28" x="1419.9167" y="285.4873">Hub</text><line style="stroke:#181818;stroke-width:0.5;" x1="1331.6667" x2="1503.6667" y1="296.6406" y2="296.6406"/><text fill="#000000" font-family="sans-serif" font-size="14" lengthAdjust="spacing" textLength="59" x="1336.6667" y="313.6357">Id string</text><text fill="#000000" font-family="sans-serif" font-size="14" lengthAdjust="spacing" textLength="87" x="1336.6667" y="329.9326">Name string</text><text fill="#000000" font-family="sans-serif" font-size="14" lengthAdjust="spacing" textLength="80" x="1336.6667" y="346.2295">Hash string</text><text fill="#000000" font-family="sans-serif" font-size="14" lengthAdjust="spacing" textLength="162" x="1336.6667" y="362.5264">DeviceLocalIds []string</text><text fill="#000000" font-family="sans-serif" font-size="14" lengthAdjust="spacing" textLength="125" x="1336.6667" y="378.8232">DeviceIds []string</text><line style="stroke:#181818;stroke-width:0.5;" x1="1331.6667" x2="1503.6667" y1="386.125" y2="386.125"/></g><!--class HubEdit--><g id="elem_HubEdit"><rect codeLine="152" fill="#F1F1F1" height="113.1875" id="HubEdit" rx="2.5" ry="2.5" style="stroke:#181818;stroke-width:0.5;" width="174" x="827.6667" y="280.9375"/><ellipse cx="881.9167" cy="296.9375" fill="#ADD1B2" rx="11" ry="11" style="stroke:#181818;stroke-width:1.0;"/><path d="M884.2604,292.6094 C883.3229,292.1719 882.7292,292.0313 881.8542,292.0313 C879.2292,292.0313 877.2292,294.1094 877.2292,296.8281 L877.2292,297.9531 C877.2292,300.5313 879.3385,302.4219 882.2292,302.4219 C883.4479,302.4219 884.6042,302.125 885.3542,301.5781 C885.9323,301.1719 886.2604,300.7188 886.2604,300.3281 C886.2604,299.875 885.8698,299.4844 885.401,299.4844 C885.1823,299.4844 884.9792,299.5625 884.7917,299.75 C884.3385,300.2344 884.3385,300.2344 884.151,300.3281 C883.7292,300.5938 883.0417,300.7188 882.276,300.7188 C880.2292,300.7188 878.9323,299.625 878.9323,297.9219 L878.9323,296.8281 C878.9323,295.0469 880.1823,293.7344 881.9167,293.7344 C882.4948,293.7344 883.1042,293.8906 883.5729,294.1406 C884.0573,294.4219 884.2292,294.6406 884.3229,295.0469 C884.3854,295.4531 884.4167,295.5781 884.5573,295.7031 C884.6979,295.8438 884.9323,295.9531 885.151,295.9531 C885.4167,295.9531 885.6823,295.8125 885.8542,295.5938 C885.9635,295.4375 885.9948,295.25 885.9948,294.8281 L885.9948,293.4063 C885.9948,292.9688 885.9792,292.8438 885.8854,292.6875 C885.7292,292.4219 885.4479,292.2813 885.151,292.2813 C884.8542,292.2813 884.651,292.375 884.4323,292.6875 L884.2604,292.6094 Z " fill="#000000"/><text fill="#000000" font-family="sans-serif" font-size="14" lengthAdjust="spacing" textLength="57" x="902.4167" y="301.7842">HubEdit</text><line style="stroke:#181818;stroke-width:0.5;" x1="828.6667" x2="1000.6667" y1="312.9375" y2="312.9375"/><text fill="#000000" font-family="sans-serif" font-size="14" lengthAdjust="spacing" textLength="59" x="833.6667" y="329.9326">Id string</text><text fill="#000000" font-family="sans-serif" font-size="14" lengthAdjust="spacing" textLength="87" x="833.6667" y="346.2295">Name string</text><text fill="#000000" font-family="sans-serif" font-size="14" lengthAdjust="spacing" textLength="80" x="833.6667" y="362.5264">Hash string</text><text fill="#000000" font-family="sans-serif" font-size="14" lengthAdjust="spacing" textLength="162" x="833.6667" y="378.8232">DeviceLocalIds []string</text><line style="stroke:#181818;stroke-width:0.5;" x1="828.6667" x2="1000.6667" y1="386.125" y2="386.125"/></g><!--class Concept--><g id="elem_Concept"><rect codeLine="184" fill="#F1F1F1" height="129.4844" id="Concept" rx="2.5" ry="2.5" style="stroke:#181818;stroke-width:0.5;" width="257" x="289" y="1995.3438"/><ellipse cx="382.25" cy="2011.3438" fill="#ADD1B2" rx="11" ry="11" style="stroke:#181818;stroke-width:1.0;"/><path d="M384.5938,2007.0156 C383.6563,2006.5781 383.0625,2006.4375 382.1875,2006.4375 C379.5625,2006.4375 377.5625,2008.5156 377.5625,2011.2344 L377.5625,2012.3594 C377.5625,2014.9375 379.6719,2016.8281 382.5625,2016.8281 C383.7813,2016.8281 384.9375,2016.5313 385.6875,2015.9844 C386.2656,2015.5781 386.5938,2015.125 386.5938,2014.7344 C386.5938,2014.2813 386.2031,2013.8906 385.7344,2013.8906 C385.5156,2013.8906 385.3125,2013.9688 385.125,2014.1563 C384.6719,2014.6406 384.6719,2014.6406 384.4844,2014.7344 C384.0625,2015 383.375,2015.125 382.6094,2015.125 C380.5625,2015.125 379.2656,2014.0313 379.2656,2012.3281 L379.2656,2011.2344 C379.2656,2009.4531 380.5156,2008.1406 382.25,2008.1406 C382.8281,2008.1406 383.4375,2008.2969 383.9063,2008.5469 C384.3906,2008.8281 384.5625,2009.0469 384.6563,2009.4531 C384.7188,2009.8594 384.75,2009.9844 384.8906,2010.1094 C385.0313,2010.25 385.2656,2010.3594 385.4844,2010.3594 C385.75,2010.3594 386.0156,2010.2188 386.1875,2010 C386.2969,2009.8438 386.3281,2009.6563 386.3281,2009.2344 L386.3281,2007.8125 C386.3281,2007.375 386.3125,2007.25 386.2188,2007.0938 C386.0625,2006.8281 385.7813,2006.6875 385.4844,2006.6875 C385.1875,2006.6875 384.9844,2006.7813 384.7656,2007.0938 L384.5938,2007.0156 Z " fill="#000000"/><text fill="#000000" font-family="sans-serif" font-size="14" lengthAdjust="spacing" textLength="62" x="402.75" y="2016.1904">Concept</text><line style="stroke:#181818;stroke-width:0.5;" x1="290" x2="545" y1="2027.3438" y2="2027.3438"/><text fill="#000000" font-family="sans-serif" font-size="14" lengthAdjust="spacing" textLength="59" x="295" y="2044.3389">Id string</text><text fill="#000000" font-family="sans-serif" font-size="14" lengthAdjust="spacing" textLength="87" x="295" y="2060.6357">Name string</text><text fill="#000000" font-family="sans-serif" font-size="14" lengthAdjust="spacing" textLength="177" x="295" y="2076.9326">CharacteristicIds []string</text><text fill="#000000" font-family="sans-serif" font-size="14" lengthAdjust="spacing" textLength="194" x="295" y="2093.2295">BaseCharacteristicId string</text><text fill="#000000" font-family="sans-serif" font-size="14" lengthAdjust="spacing" textLength="245" x="295" y="2109.5264">Conversions []ConverterExtension</text><line style="stroke:#181818;stroke-width:0.5;" x1="290" x2="545" y1="2116.8281" y2="2116.8281"/></g><!--class ConverterExtension--><g id="elem_ConverterExtension"><rect codeLine="194" fill="#F1F1F1" height="129.4844" id="ConverterExtension" rx="2.5" ry="2.5" style="stroke:#181818;stroke-width:0.5;" width="183" x="47.3333" y="2209.0938"/><ellipse cx="65.4833" cy="2225.0938" fill="#ADD1B2" rx="11" ry="11" style="stroke:#181818;stroke-width:1.0;"/><path d="M67.8271,2220.7656 C66.8896,2220.3281 66.2958,2220.1875 65.4208,2220.1875 C62.7958,2220.1875 60.7958,2222.2656 60.7958,2224.9844 L60.7958,2226.1094 C60.7958,2228.6875 62.9052,2230.5781 65.7958,2230.5781 C67.0146,2230.5781 68.1708,2230.2813 68.9208,2229.7344 C69.499,2229.3281 69.8271,2228.875 69.8271,2228.4844 C69.8271,2228.0313 69.4365,2227.6406 68.9677,2227.6406 C68.749,2227.6406 68.5458,2227.7188 68.3583,2227.9063 C67.9052,2228.3906 67.9052,2228.3906 67.7177,2228.4844 C67.2958,2228.75 66.6083,2228.875 65.8427,2228.875 C63.7958,2228.875 62.499,2227.7813 62.499,2226.0781 L62.499,2224.9844 C62.499,2223.2031 63.749,2221.8906 65.4833,2221.8906 C66.0615,2221.8906 66.6708,2222.0469 67.1396,2222.2969 C67.624,2222.5781 67.7958,2222.7969 67.8896,2223.2031 C67.9521,2223.6094 67.9833,2223.7344 68.124,2223.8594 C68.2646,2224 68.499,2224.1094 68.7177,2224.1094 C68.9833,2224.1094 69.249,2223.9688 69.4208,2223.75 C69.5302,2223.5938 69.5615,2223.4063 69.5615,2222.9844 L69.5615,2221.5625 C69.5615,2221.125 69.5458,2221 69.4521,2220.8438 C69.2958,2220.5781 69.0146,2220.4375 68.7177,2220.4375 C68.4208,2220.4375 68.2177,2220.5313 67.999,2220.8438 L67.8271,2220.7656 Z " fill="#000000"/><text fill="#000000" font-family="sans-serif" font-size="14" lengthAdjust="spacing" textLength="144" x="80.1833" y="2229.9404">ConverterExtension</text><line style="stroke:#181818;stroke-width:0.5;" x1="48.3333" x2="229.3333" y1="2241.0938" y2="2241.0938"/><text fill="#000000" font-family="sans-serif" font-size="14" lengthAdjust="spacing" textLength="83" x="53.3333" y="2258.0889">From string</text><text fill="#000000" font-family="sans-serif" font-size="14" lengthAdjust="spacing" textLength="64" x="53.3333" y="2274.3857">To string</text><text fill="#000000" font-family="sans-serif" font-size="14" lengthAdjust="spacing" textLength="104" x="53.3333" y="2290.6826">Distance int64</text><text fill="#000000" font-family="sans-serif" font-size="14" lengthAdjust="spacing" textLength="103" x="53.3333" y="2306.9795">Formula string</text><text fill="#000000" font-family="sans-serif" font-size="14" lengthAdjust="spacing" textLength="171" x="53.3333" y="2323.2764">PlaceholderName string</text><line style="stroke:#181818;stroke-width:0.5;" x1="48.3333" x2="229.3333" y1="2330.5781" y2="2330.5781"/></g><!--class ConceptWithCharacteristics--><g id="elem_ConceptWithCharacteristics"><rect codeLine="204" fill="#F1F1F1" height="129.4844" id="ConceptWithCharacteristics" rx="2.5" ry="2.5" style="stroke:#181818;stroke-width:0.5;" width="257" x="12" y="1995.3438"/><ellipse cx="36.45" cy="2011.3438" fill="#ADD1B2" rx="11" ry="11" style="stroke:#181818;stroke-width:1.0;"/><path d="M38.7938,2007.0156 C37.8563,2006.5781 37.2625,2006.4375 36.3875,2006.4375 C33.7625,2006.4375 31.7625,2008.5156 31.7625,2011.2344 L31.7625,2012.3594 C31.7625,2014.9375 33.8719,2016.8281 36.7625,2016.8281 C37.9813,2016.8281 39.1375,2016.5313 39.8875,2015.9844 C40.4656,2015.5781 40.7938,2015.125 40.7938,2014.7344 C40.7938,2014.2813 40.4031,2013.8906 39.9344,2013.8906 C39.7156,2013.8906 39.5125,2013.9688 39.325,2014.1563 C38.8719,2014.6406 38.8719,2014.6406 38.6844,2014.7344 C38.2625,2015 37.575,2015.125 36.8094,2015.125 C34.7625,2015.125 33.4656,2014.0313 33.4656,2012.3281 L33.4656,2011.2344 C33.4656,2009.4531 34.7156,2008.1406 36.45,2008.1406 C37.0281,2008.1406 37.6375,2008.2969 38.1063,2008.5469 C38.5906,2008.8281 38.7625,2009.0469 38.8563,2009.4531 C38.9188,2009.8594 38.95,2009.9844 39.0906,2010.1094 C39.2313,2010.25 39.4656,2010.3594 39.6844,2010.3594 C39.95,2010.3594 40.2156,2010.2188 40.3875,2010 C40.4969,2009.8438 40.5281,2009.6563 40.5281,2009.2344 L40.5281,2007.8125 C40.5281,2007.375 40.5125,2007.25 40.4188,2007.0938 C40.2625,2006.8281 39.9813,2006.6875 39.6844,2006.6875 C39.3875,2006.6875 39.1844,2006.7813 38.9656,2007.0938 L38.7938,2007.0156 Z " fill="#000000"/><text fill="#000000" font-family="sans-serif" font-size="14" lengthAdjust="spacing" textLength="204" x="52.55" y="2016.1904">ConceptWithCharacteristics</text><line style="stroke:#181818;stroke-width:0.5;" x1="13" x2="268" y1="2027.3438" y2="2027.3438"/><text fill="#000000" font-family="sans-serif" font-size="14" lengthAdjust="spacing" textLength="59" x="18" y="2044.3389">Id string</text><text fill="#000000" font-family="sans-serif" font-size="14" lengthAdjust="spacing" textLength="87" x="18" y="2060.6357">Name string</text><text fill="#000000" font-family="sans-serif" font-size="14" lengthAdjust="spacing" textLength="194" x="18" y="2076.9326">BaseCharacteristicId string</text><text fill="#000000" font-family="sans-serif" font-size="14" lengthAdjust="spacing" textLength="223" x="18" y="2093.2295">Characteristics []Characteristic</text><text fill="#000000" font-family="sans-serif" font-size="14" lengthAdjust="spacing" textLength="245" x="18" y="2109.5264">Conversions []ConverterExtension</text><line style="stroke:#181818;stroke-width:0.5;" x1="13" x2="268" y1="2116.8281" y2="2116.8281"/></g><!--class Content--><g id="elem_Content"><rect codeLine="223" fill="#F1F1F1" height="113.1875" id="Content" rx="2.5" ry="2.5" style="stroke:#181818;stroke-width:0.5;" width="254" x="925.6667" y="1265.9414"/><ellipse cx="1018.4167" cy="1281.9414" fill="#ADD1B2" rx="11" ry="11" style="stroke:#181818;stroke-width:1.0;"/><path d="M1020.7604,1277.6133 C1019.8229,1277.1758 1019.2292,1277.0352 1018.3542,1277.0352 C1015.7292,1277.0352 1013.7292,1279.1133 1013.7292,1281.832 L1013.7292,1282.957 C1013.7292,1285.5352 1015.8385,1287.4258 1018.7292,1287.4258 C1019.9479,1287.4258 1021.1042,1287.1289 1021.8542,1286.582 C1022.4323,1286.1758 1022.7604,1285.7227 1022.7604,1285.332 C1022.7604,1284.8789 1022.3698,1284.4883 1021.901,1284.4883 C1021.6823,1284.4883 1021.4792,1284.5664 1021.2917,1284.7539 C1020.8385,1285.2383 1020.8385,1285.2383 1020.651,1285.332 C1020.2292,1285.5977 1019.5417,1285.7227 1018.776,1285.7227 C1016.7292,1285.7227 1015.4323,1284.6289 1015.4323,1282.9258 L1015.4323,1281.832 C1015.4323,1280.0508 1016.6823,1278.7383 1018.4167,1278.7383 C1018.9948,1278.7383 1019.6042,1278.8945 1020.0729,1279.1445 C1020.5573,1279.4258 1020.7292,1279.6445 1020.8229,1280.0508 C1020.8854,1280.457 1020.9167,1280.582 1021.0573,1280.707 C1021.1979,1280.8477 1021.4323,1280.957 1021.651,1280.957 C1021.9167,1280.957 1022.1823,1280.8164 1022.3542,1280.5977 C1022.4635,1280.4414 1022.4948,1280.2539 1022.4948,1279.832 L1022.4948,1278.4102 C1022.4948,1277.9727 1022.4792,1277.8477 1022.3854,1277.6914 C1022.2292,1277.4258 1021.9479,1277.2852 1021.651,1277.2852 C1021.3542,1277.2852 1021.151,1277.3789 1020.9323,1277.6914 L1020.7604,1277.6133 Z " fill="#000000"/><text fill="#000000" font-family="sans-serif" font-size="14" lengthAdjust="spacing" textLength="60" x="1038.9167" y="1286.7881">Content</text><line style="stroke:#181818;stroke-width:0.5;" x1="926.6667" x2="1178.6667" y1="1297.9414" y2="1297.9414"/><text fill="#000000" font-family="sans-serif" font-size="14" lengthAdjust="spacing" textLength="59" x="931.6667" y="1314.9365">Id string</text><text fill="#000000" font-family="sans-serif" font-size="14" lengthAdjust="spacing" textLength="242" x="931.6667" y="1331.2334">ContentVariable ContentVariable</text><text fill="#000000" font-family="sans-serif" font-size="14" lengthAdjust="spacing" textLength="182" x="931.6667" y="1347.5303">Serialization Serialization</text><text fill="#000000" font-family="sans-serif" font-size="14" lengthAdjust="spacing" textLength="186" x="931.6667" y="1363.8271">ProtocolSegmentId string</text><line style="stroke:#181818;stroke-width:0.5;" x1="926.6667" x2="1178.6667" y1="1371.1289" y2="1371.1289"/></g><line style="stroke:#181818;stroke-width:1.0;" x1="1395.1333" x2="1395.1333" y1="617.875" y2="1206.5859"/><line style="stroke:#181818;stroke-width:1.0;" x1="1395.1333" x2="1441.2667" y1="1206.5859" y2="1206.5859"/><line style="stroke:#181818;stroke-width:1.0;" x1="1441.2667" x2="1441.2667" y1="1206.5859" y2="1268.8516"/><polygon fill="none" points="1395.1333,617.875,1391.1333,623.875,1395.1333,629.875,1399.1333,623.875,1395.1333,617.875" style="stroke:#181818;stroke-width:1.0;"/><text fill="#000000" font-family="sans-serif" font-size="13" lengthAdjust="spacing" textLength="24" x="1398.1333" y="631.9419">0..1</text><text fill="#000000" font-family="sans-serif" font-size="13" lengthAdjust="spacing" textLength="23" x="1444.2667" y="1263.7856">0..*</text><line style="stroke:#181818;stroke-width:1.0;" x1="1338.8" x2="1338.8" y1="617.875" y2="645.0078"/><line style="stroke:#181818;stroke-width:1.0;" x1="1338.8" x2="1271.6333" y1="645.0078" y2="645.0078"/><line style="stroke:#181818;stroke-width:1.0;" x1="1271.6333" x2="1271.6333" y1="645.0078" y2="692.1406"/><text fill="#000000" font-family="sans-serif" font-size="13" lengthAdjust="spacing" textLength="23" x="1341.8" y="631.9419">0..*</text><text fill="#000000" font-family="sans-serif" font-size="13" lengthAdjust="spacing" textLength="24" x="1274.6333" y="687.0747">0..1</text><line style="stroke:#181818;stroke-width:1.0;" x1="1117.8333" x2="1117.8333" y1="157.7813" y2="184.9141"/><line style="stroke:#181818;stroke-width:1.0;" x1="1117.8333" x2="1024.6667" y1="184.9141" y2="184.9141"/><line style="stroke:#181818;stroke-width:1.0;" x1="1024.6667" x2="1024.6667" y1="184.9141" y2="451.2578"/><line style="stroke:#181818;stroke-width:1.0;" x1="1024.6667" x2="1350.0667" y1="451.2578" y2="451.2578"/><line style="stroke:#181818;stroke-width:1.0;" x1="1350.0667" x2="1350.0667" y1="451.2578" y2="488.3906"/><text fill="#000000" font-family="sans-serif" font-size="13" lengthAdjust="spacing" textLength="23" x="1120.8333" y="171.8481">0..*</text><text fill="#000000" font-family="sans-serif" font-size="13" lengthAdjust="spacing" textLength="23" x="1353.0667" y="483.3247">0..*</text><line style="stroke:#181818;stroke-width:1.0;" x1="1178.1667" x2="1178.1667" y1="157.7813" y2="232.0469"/><text fill="#000000" font-family="sans-serif" font-size="13" lengthAdjust="spacing" textLength="23" x="1181.1667" y="171.8481">0..*</text><text fill="#000000" font-family="sans-serif" font-size="13" lengthAdjust="spacing" textLength="23" x="1181.1667" y="226.981">0..*</text><line style="stroke:#181818;stroke-width:1.0;" x1="762.1667" x2="762.1667" y1="1383.2031" y2="1430.3359"/><line style="stroke:#181818;stroke-width:1.0;" x1="762.1667" x2="866.1667" y1="1430.3359" y2="1430.3359"/><line style="stroke:#181818;stroke-width:1.0;" x1="866.1667" x2="866.1667" y1="1430.3359" y2="1457.4688"/><polygon fill="none" points="762.1667,1383.2031,758.1667,1389.2031,762.1667,1395.2031,766.1667,1389.2031,762.1667,1383.2031" style="stroke:#181818;stroke-width:1.0;"/><text fill="#000000" font-family="sans-serif" font-size="13" lengthAdjust="spacing" textLength="8" x="765.1667" y="1397.27">1</text><text fill="#000000" font-family="sans-serif" font-size="13" lengthAdjust="spacing" textLength="23" x="869.1667" y="1452.4028">0..*</text><line style="stroke:#181818;stroke-width:1.0;" x1="1175.9667" x2="1165.9667" y1="1807.5938" y2="1807.5938"/><line style="stroke:#181818;stroke-width:1.0;" x1="1165.9667" x2="1165.9667" y1="1807.5938" y2="1839.8906"/><line style="stroke:#181818;stroke-width:1.0;" x1="1165.9667" x2="1175.9667" y1="1839.8906" y2="1839.8906"/><polygon fill="none" points="1175.9667,1807.5938,1171.9667,1813.5938,1175.9667,1819.5938,1179.9667,1813.5938,1175.9667,1807.5938" style="stroke:#181818;stroke-width:1.0;"/><text fill="#000000" font-family="sans-serif" font-size="13" lengthAdjust="spacing" textLength="8" x="1155.9667" y="1820.6763">1</text><text fill="#000000" font-family="sans-serif" font-size="13" lengthAdjust="spacing" textLength="23" x="1140.9667" y="1835.8091">0..*</text><line style="stroke:#181818;stroke-width:1.0;" x1="1407.5667" x2="1407.5667" y1="1701.0313" y2="1728.1641"/><line style="stroke:#181818;stroke-width:1.0;" x1="1407.5667" x2="1423.4667" y1="1728.1641" y2="1728.1641"/><line style="stroke:#181818;stroke-width:1.0;" x1="1423.4667" x2="1423.4667" y1="1728.1641" y2="2478.0313"/><polygon fill="none" points="1407.5667,1701.0313,1403.5667,1707.0313,1407.5667,1713.0313,1411.5667,1707.0313,1407.5667,1701.0313" style="stroke:#181818;stroke-width:1.0;"/><text fill="#000000" font-family="sans-serif" font-size="13" lengthAdjust="spacing" textLength="24" x="1410.5667" y="1715.0981">0..1</text><text fill="#000000" font-family="sans-serif" font-size="13" lengthAdjust="spacing" textLength="24" x="1426.4667" y="2472.9653">0..1</text><line style="stroke:#181818;stroke-width:1.0;" x1="1169.1667" x2="1159.1667" y1="1538.6563" y2="1538.6563"/><line style="stroke:#181818;stroke-width:1.0;" x1="1159.1667" x2="1159.1667" y1="1538.6563" y2="1619.8438"/><line style="stroke:#181818;stroke-width:1.0;" x1="1159.1667" x2="1169.1667" y1="1619.8438" y2="1619.8438"/><polygon fill="none" points="1169.1667,1538.6563,1165.1667,1544.6563,1169.1667,1550.6563,1173.1667,1544.6563,1169.1667,1538.6563" style="stroke:#181818;stroke-width:1.0;"/><text fill="#000000" font-family="sans-serif" font-size="13" lengthAdjust="spacing" textLength="24" x="1133.1667" y="1576.1841">0..1</text><text fill="#000000" font-family="sans-serif" font-size="13" lengthAdjust="spacing" textLength="23" x="1134.1667" y="1591.3169">0..*</text><line style="stroke:#181818;stroke-width:1.0;" x1="1347.9667" x2="1347.9667" y1="1701.0313" y2="2209.0938"/><text fill="#000000" font-family="sans-serif" font-size="13" lengthAdjust="spacing" textLength="23" x="1350.9667" y="1715.0981">0..*</text><text fill="#000000" font-family="sans-serif" font-size="13" lengthAdjust="spacing" textLength="24" x="1350.9667" y="2204.0278">0..1</text><line style="stroke:#181818;stroke-width:1.0;" x1="1228.7667" x2="1228.7667" y1="1701.0313" y2="1728.1641"/><line style="stroke:#181818;stroke-width:1.0;" x1="1228.7667" x2="442.6667" y1="1728.1641" y2="1728.1641"/><line style="stroke:#181818;stroke-width:1.0;" x1="442.6667" x2="442.6667" y1="1728.1641" y2="1775.2969"/><text fill="#000000" font-family="sans-serif" font-size="13" lengthAdjust="spacing" textLength="23" x="1231.7667" y="1715.0981">0..*</text><text fill="#000000" font-family="sans-serif" font-size="13" lengthAdjust="spacing" textLength="24" x="445.6667" y="1770.231">0..1</text><line style="stroke:#181818;stroke-width:1.0;" x1="1288.3667" x2="1288.3667" y1="1701.0313" y2="1728.1641"/><line style="stroke:#181818;stroke-width:1.0;" x1="1288.3667" x2="1283.9667" y1="1728.1641" y2="1728.1641"/><line style="stroke:#181818;stroke-width:1.0;" x1="1283.9667" x2="1283.9667" y1="1728.1641" y2="1775.2969"/><text fill="#000000" font-family="sans-serif" font-size="13" lengthAdjust="spacing" textLength="23" x="1291.3667" y="1715.0981">0..*</text><text fill="#000000" font-family="sans-serif" font-size="13" lengthAdjust="spacing" textLength="24" x="1286.9667" y="1770.231">0..1</text><line style="stroke:#181818;stroke-width:1.0;" x1="1111.9167" x2="1111.9167" y1="394.125" y2="421.2578"/><line style="stroke:#181818;stroke-width:1.0;" x1="1111.9167" x2="273.1667" y1="421.2578" y2="421.2578"/><line style="stroke:#181818;stroke-width:1.0;" x1="273.1667" x2="273.1667" y1="421.2578" y2="1016.7094"/><polygon fill="none" points="1111.9167,394.125,1107.9167,400.125,1111.9167,406.125,1115.9167,400.125,1111.9167,394.125" style="stroke:#181818;stroke-width:1.0;"/><text fill="#000000" font-family="sans-serif" font-size="13" lengthAdjust="spacing" textLength="8" x="1114.9167" y="408.1919">1</text><text fill="#000000" font-family="sans-serif" font-size="13" lengthAdjust="spacing" textLength="23" x="276.1667" y="1011.6435">0..*</text><line style="stroke:#181818;stroke-width:1.0;" x1="1244.4167" x2="1244.4167" y1="394.125" y2="421.2578"/><line style="stroke:#181818;stroke-width:1.0;" x1="1244.4167" x2="1461.4667" y1="421.2578" y2="421.2578"/><line style="stroke:#181818;stroke-width:1.0;" x1="1461.4667" x2="1461.4667" y1="421.2578" y2="1268.8516"/><polygon fill="none" points="1244.4167,394.125,1240.4167,400.125,1244.4167,406.125,1248.4167,400.125,1244.4167,394.125" style="stroke:#181818;stroke-width:1.0;"/><text fill="#000000" font-family="sans-serif" font-size="13" lengthAdjust="spacing" textLength="24" x="1247.4167" y="408.1919">0..1</text><text fill="#000000" font-family="sans-serif" font-size="13" lengthAdjust="spacing" textLength="23" x="1464.4667" y="1248.6528">0..*</text><line style="stroke:#181818;stroke-width:1.0;" x1="1178.1667" x2="1178.1667" y1="394.125" y2="441.2578"/><line style="stroke:#181818;stroke-width:1.0;" x1="1178.1667" x2="1383.8667" y1="441.2578" y2="441.2578"/><line style="stroke:#181818;stroke-width:1.0;" x1="1383.8667" x2="1383.8667" y1="441.2578" y2="488.3906"/><text fill="#000000" font-family="sans-serif" font-size="13" lengthAdjust="spacing" textLength="23" x="1181.1667" y="408.1919">0..*</text><text fill="#000000" font-family="sans-serif" font-size="13" lengthAdjust="spacing" textLength="23" x="1386.8667" y="483.3247">0..*</text><line style="stroke:#181818;stroke-width:1.0;" x1="338.2667" x2="338.2667" y1="1129.8969" y2="1176.5859"/><line style="stroke:#181818;stroke-width:1.0;" x1="338.2667" x2="509.3333" y1="1176.5859" y2="1176.5859"/><line style="stroke:#181818;stroke-width:1.0;" x1="509.3333" x2="509.3333" y1="1176.5859" y2="1268.8516"/><polygon fill="none" points="338.2667,1129.8969,334.2667,1135.8969,338.2667,1141.8969,342.2667,1135.8969,338.2667,1129.8969" style="stroke:#181818;stroke-width:1.0;"/><text fill="#000000" font-family="sans-serif" font-size="13" lengthAdjust="spacing" textLength="24" x="341.2667" y="1143.9638">0..1</text><text fill="#000000" font-family="sans-serif" font-size="13" lengthAdjust="spacing" textLength="24" x="512.3333" y="1263.7856">0..1</text><line style="stroke:#181818;stroke-width:1.0;" x1="208.0667" x2="208.0667" y1="1129.8969" y2="1176.5859"/><line style="stroke:#181818;stroke-width:1.0;" x1="208.0667" x2="237.4667" y1="1176.5859" y2="1176.5859"/><line style="stroke:#181818;stroke-width:1.0;" x1="237.4667" x2="237.4667" y1="1176.5859" y2="1748.1641"/><line style="stroke:#181818;stroke-width:1.0;" x1="237.4667" x2="392.3333" y1="1748.1641" y2="1748.1641"/><line style="stroke:#181818;stroke-width:1.0;" x1="392.3333" x2="392.3333" y1="1748.1641" y2="1775.2969"/><text fill="#000000" font-family="sans-serif" font-size="13" lengthAdjust="spacing" textLength="23" x="211.0667" y="1143.9638">0..*</text><text fill="#000000" font-family="sans-serif" font-size="13" lengthAdjust="spacing" textLength="24" x="395.3333" y="1770.231">0..1</text><line style="stroke:#181818;stroke-width:1.0;" x1="294.8667" x2="294.8667" y1="1129.8969" y2="1186.5859"/><line style="stroke:#181818;stroke-width:1.0;" x1="294.8667" x2="453.6667" y1="1186.5859" y2="1186.5859"/><line style="stroke:#181818;stroke-width:1.0;" x1="453.6667" x2="453.6667" y1="1186.5859" y2="1748.1641"/><line style="stroke:#181818;stroke-width:1.0;" x1="453.6667" x2="1229.9667" y1="1748.1641" y2="1748.1641"/><line style="stroke:#181818;stroke-width:1.0;" x1="1229.9667" x2="1229.9667" y1="1748.1641" y2="1775.2969"/><text fill="#000000" font-family="sans-serif" font-size="13" lengthAdjust="spacing" textLength="23" x="297.8667" y="1143.9638">0..*</text><text fill="#000000" font-family="sans-serif" font-size="13" lengthAdjust="spacing" textLength="24" x="1232.9667" y="1770.231">0..1</text><line style="stroke:#181818;stroke-width:1.0;" x1="251.4667" x2="251.4667" y1="1129.8969" y2="1206.5859"/><line style="stroke:#181818;stroke-width:1.0;" x1="251.4667" x2="365.6667" y1="1206.5859" y2="1206.5859"/><line style="stroke:#181818;stroke-width:1.0;" x1="365.6667" x2="365.6667" y1="1206.5859" y2="1268.8516"/><text fill="#000000" font-family="sans-serif" font-size="13" lengthAdjust="spacing" textLength="23" x="254.4667" y="1143.9638">0..*</text><text fill="#000000" font-family="sans-serif" font-size="13" lengthAdjust="spacing" textLength="24" x="368.6667" y="1263.7856">0..1</text><line style="stroke:#181818;stroke-width:1.0;" x1="1294.3333" x2="1294.3333" y1="854.2188" y2="1268.8516"/><polygon fill="none" points="1294.3333,854.2188,1290.3333,860.2188,1294.3333,866.2188,1298.3333,860.2188,1294.3333,854.2188" style="stroke:#181818;stroke-width:1.0;"/><text fill="#000000" font-family="sans-serif" font-size="13" lengthAdjust="spacing" textLength="8" x="1297.3333" y="868.2856">1</text><text fill="#000000" font-family="sans-serif" font-size="13" lengthAdjust="spacing" textLength="23" x="1297.3333" y="1263.7856">0..*</text><line style="stroke:#181818;stroke-width:1.0;" x1="1248.9333" x2="1248.9333" y1="854.2188" y2="891.3516"/><line style="stroke:#181818;stroke-width:1.0;" x1="1248.9333" x2="1052.6667" y1="891.3516" y2="891.3516"/><line style="stroke:#181818;stroke-width:1.0;" x1="1052.6667" x2="1052.6667" y1="891.3516" y2="938.4844"/><polygon fill="none" points="1248.9333,854.2188,1244.9333,860.2188,1248.9333,866.2188,1252.9333,860.2188,1248.9333,854.2188" style="stroke:#181818;stroke-width:1.0;"/><text fill="#000000" font-family="sans-serif" font-size="13" lengthAdjust="spacing" textLength="8" x="1251.9333" y="868.2856">1</text><text fill="#000000" font-family="sans-serif" font-size="13" lengthAdjust="spacing" textLength="23" x="1055.6667" y="933.4185">0..*</text><line style="stroke:#181818;stroke-width:1.0;" x1="1339.7333" x2="1339.7333" y1="854.2188" y2="881.3516"/><line style="stroke:#181818;stroke-width:1.0;" x1="1339.7333" x2="1381.1333" y1="881.3516" y2="881.3516"/><line style="stroke:#181818;stroke-width:1.0;" x1="1381.1333" x2="1381.1333" y1="881.3516" y2="1216.5859"/><line style="stroke:#181818;stroke-width:1.0;" x1="1381.1333" x2="1421.0667" y1="1216.5859" y2="1216.5859"/><line style="stroke:#181818;stroke-width:1.0;" x1="1421.0667" x2="1421.0667" y1="1216.5859" y2="1268.8516"/><polygon fill="none" points="1339.7333,854.2188,1335.7333,860.2188,1339.7333,866.2188,1343.7333,860.2188,1339.7333,854.2188" style="stroke:#181818;stroke-width:1.0;"/><text fill="#000000" font-family="sans-serif" font-size="13" lengthAdjust="spacing" textLength="24" x="1342.7333" y="868.2856">0..1</text><text fill="#000000" font-family="sans-serif" font-size="13" lengthAdjust="spacing" textLength="23" x="1424.0667" y="1248.6528">0..*</text><line style="stroke:#181818;stroke-width:1.0;" x1="1203.5333" x2="1203.5333" y1="854.2188" y2="881.3516"/><line style="stroke:#181818;stroke-width:1.0;" x1="1203.5333" x2="404.6667" y1="881.3516" y2="881.3516"/><line style="stroke:#181818;stroke-width:1.0;" x1="404.6667" x2="404.6667" y1="881.3516" y2="1268.8516"/><text fill="#000000" font-family="sans-serif" font-size="13" lengthAdjust="spacing" textLength="23" x="1206.5333" y="868.2856">0..*</text><text fill="#000000" font-family="sans-serif" font-size="13" lengthAdjust="spacing" textLength="24" x="407.6667" y="1263.7856">0..1</text><line style="stroke:#181818;stroke-width:1.0;" x1="1417.6667" x2="1417.6667" y1="394.125" y2="488.3906"/><text fill="#000000" font-family="sans-serif" font-size="13" lengthAdjust="spacing" textLength="23" x="1420.6667" y="408.1919">0..*</text><text fill="#000000" font-family="sans-serif" font-size="13" lengthAdjust="spacing" textLength="23" x="1420.6667" y="483.3247">0..*</text><line style="stroke:#181818;stroke-width:1.0;" x1="914.6667" x2="914.6667" y1="394.125" y2="461.2578"/><line style="stroke:#181818;stroke-width:1.0;" x1="914.6667" x2="1316.2667" y1="461.2578" y2="461.2578"/><line style="stroke:#181818;stroke-width:1.0;" x1="1316.2667" x2="1316.2667" y1="461.2578" y2="488.3906"/><text fill="#000000" font-family="sans-serif" font-size="13" lengthAdjust="spacing" textLength="23" x="917.6667" y="408.1919">0..*</text><text fill="#000000" font-family="sans-serif" font-size="13" lengthAdjust="spacing" textLength="23" x="1319.2667" y="483.3247">0..*</text><line style="stroke:#181818;stroke-width:1.0;" x1="1151.4667" x2="1141.4667" y1="2273.9844" y2="2273.9844"/><line style="stroke:#181818;stroke-width:1.0;" x1="1141.4667" x2="1141.4667" y1="2273.9844" y2="2338.875"/><line style="stroke:#181818;stroke-width:1.0;" x1="1141.4667" x2="1151.4667" y1="2338.875" y2="2338.875"/><polygon fill="none" points="1151.4667,2273.9844,1147.4667,2279.9844,1151.4667,2285.9844,1155.4667,2279.9844,1151.4667,2273.9844" style="stroke:#181818;stroke-width:1.0;"/><text fill="#000000" font-family="sans-serif" font-size="13" lengthAdjust="spacing" textLength="24" x="1115.4667" y="2303.3638">0..1</text><text fill="#000000" font-family="sans-serif" font-size="13" lengthAdjust="spacing" textLength="23" x="1116.4667" y="2318.4966">0..*</text><line style="stroke:#181818;stroke-width:1.0;" x1="1282.4667" x2="1282.4667" y1="2403.7656" y2="2450.8984"/><line style="stroke:#181818;stroke-width:1.0;" x1="1282.4667" x2="1328.1333" y1="2450.8984" y2="2450.8984"/><line style="stroke:#181818;stroke-width:1.0;" x1="1328.1333" x2="1328.1333" y1="2450.8984" y2="2478.0313"/><polygon fill="none" points="1282.4667,2403.7656,1278.4667,2409.7656,1282.4667,2415.7656,1286.4667,2409.7656,1282.4667,2403.7656" style="stroke:#181818;stroke-width:1.0;"/><text fill="#000000" font-family="sans-serif" font-size="13" lengthAdjust="spacing" textLength="24" x="1285.4667" y="2417.8325">0..1</text><text fill="#000000" font-family="sans-serif" font-size="13" lengthAdjust="spacing" textLength="24" x="1331.1333" y="2472.9653">0..1</text><line style="stroke:#181818;stroke-width:1.0;" x1="374.6667" x2="374.6667" y1="2124.8281" y2="2151.9609"/><line style="stroke:#181818;stroke-width:1.0;" x1="374.6667" x2="169.3333" y1="2151.9609" y2="2151.9609"/><line style="stroke:#181818;stroke-width:1.0;" x1="169.3333" x2="169.3333" y1="2151.9609" y2="2209.0938"/><polygon fill="none" points="374.6667,2124.8281,370.6667,2130.8281,374.6667,2136.8281,378.6667,2130.8281,374.6667,2124.8281" style="stroke:#181818;stroke-width:1.0;"/><text fill="#000000" font-family="sans-serif" font-size="13" lengthAdjust="spacing" textLength="24" x="377.6667" y="2138.895">0..1</text><text fill="#000000" font-family="sans-serif" font-size="13" lengthAdjust="spacing" textLength="23" x="172.3333" y="2204.0278">0..*</text><line style="stroke:#181818;stroke-width:1.0;" x1="460.3333" x2="460.3333" y1="2124.8281" y2="2171.9609"/><line style="stroke:#181818;stroke-width:1.0;" x1="460.3333" x2="1282.4667" y1="2171.9609" y2="2171.9609"/><line style="stroke:#181818;stroke-width:1.0;" x1="1282.4667" x2="1282.4667" y1="2171.9609" y2="2209.0938"/><text fill="#000000" font-family="sans-serif" font-size="13" lengthAdjust="spacing" textLength="23" x="463.3333" y="2138.895">0..*</text><text fill="#000000" font-family="sans-serif" font-size="13" lengthAdjust="spacing" textLength="23" x="1285.4667" y="2204.0278">0..*</text><line style="stroke:#181818;stroke-width:1.0;" x1="183.3333" x2="183.3333" y1="2124.8281" y2="2181.9609"/><line style="stroke:#181818;stroke-width:1.0;" x1="183.3333" x2="1216.9667" y1="2181.9609" y2="2181.9609"/><line style="stroke:#181818;stroke-width:1.0;" x1="1216.9667" x2="1216.9667" y1="2181.9609" y2="2209.0938"/><polygon fill="none" points="183.3333,2124.8281,179.3333,2130.8281,183.3333,2136.8281,187.3333,2130.8281,183.3333,2124.8281" style="stroke:#181818;stroke-width:1.0;"/><text fill="#000000" font-family="sans-serif" font-size="13" lengthAdjust="spacing" textLength="24" x="186.3333" y="2138.895">0..1</text><text fill="#000000" font-family="sans-serif" font-size="13" lengthAdjust="spacing" textLength="23" x="1219.9667" y="2204.0278">0..*</text><line style="stroke:#181818;stroke-width:1.0;" x1="97.6667" x2="97.6667" y1="2124.8281" y2="2151.9609"/><line style="stroke:#181818;stroke-width:1.0;" x1="97.6667" x2="108.3333" y1="2151.9609" y2="2151.9609"/><line style="stroke:#181818;stroke-width:1.0;" x1="108.3333" x2="108.3333" y1="2151.9609" y2="2209.0938"/><polygon fill="none" points="97.6667,2124.8281,93.6667,2130.8281,97.6667,2136.8281,101.6667,2130.8281,97.6667,2124.8281" style="stroke:#181818;stroke-width:1.0;"/><text fill="#000000" font-family="sans-serif" font-size="13" lengthAdjust="spacing" textLength="24" x="100.6667" y="2138.895">0..1</text><text fill="#000000" font-family="sans-serif" font-size="13" lengthAdjust="spacing" textLength="23" x="111.3333" y="2204.0278">0..*</text><line style="stroke:#181818;stroke-width:1.0;" x1="1116.1667" x2="1116.1667" y1="1379.1289" y2="1410.3359"/><line style="stroke:#181818;stroke-width:1.0;" x1="1116.1667" x2="1318.1667" y1="1410.3359" y2="1410.3359"/><line style="stroke:#181818;stroke-width:1.0;" x1="1318.1667" x2="1318.1667" y1="1410.3359" y2="1457.4688"/><polygon fill="none" points="1116.1667,1379.1289,1112.1667,1385.1289,1116.1667,1391.1289,1120.1667,1385.1289,1116.1667,1379.1289" style="stroke:#181818;stroke-width:1.0;"/><text fill="#000000" font-family="sans-serif" font-size="13" lengthAdjust="spacing" textLength="24" x="1119.1667" y="1393.1958">0..1</text><text fill="#000000" font-family="sans-serif" font-size="13" lengthAdjust="spacing" textLength="24" x="1321.1667" y="1452.4028">0..1</text><line style="stroke:#181818;stroke-width:1.0;" x1="1052.6667" x2="1052.6667" y1="1379.1289" y2="1457.4688"/><polygon fill="none" points="1052.6667,1379.1289,1048.6667,1385.1289,1052.6667,1391.1289,1056.6667,1385.1289,1052.6667,1379.1289" style="stroke:#181818;stroke-width:1.0;"/><text fill="#000000" font-family="sans-serif" font-size="13" lengthAdjust="spacing" textLength="8" x="1055.6667" y="1393.1958">1</text><text fill="#000000" font-family="sans-serif" font-size="13" lengthAdjust="spacing" textLength="24" x="1055.6667" y="1452.4028">0..1</text><line style="stroke:#181818;stroke-width:1.0;" x1="989.1667" x2="989.1667" y1="1379.1289" y2="1410.3359"/><line style="stroke:#181818;stroke-width:1.0;" x1="989.1667" x2="919.1667" y1="1410.3359" y2="1410.3359"/><line style="stroke:#181818;stroke-width:1.0;" x1="919.1667" x2="919.1667" y1="1410.3359" y2="1457.4688"/><text fill="#000000" font-family="sans-serif" font-size="13" lengthAdjust="spacing" textLength="23" x="992.1667" y="1393.1958">0..*</text><text fill="#000000" font-family="sans-serif" font-size="13" lengthAdjust="spacing" textLength="24" x="922.1667" y="1452.4028">0..1</text><line style="stroke:#181818;stroke-width:1.0;" x1="417.5" x2="417.5" y1="1921.0781" y2="1995.3438"/><text fill="#000000" font-family="sans-serif" font-size="13" lengthAdjust="spacing" textLength="23" x="420.5" y="1935.145">0..*</text><text fill="#000000" font-family="sans-serif" font-size="13" lengthAdjust="spacing" textLength="24" x="420.5" y="1990.2778">0..1</text><line style="stroke:#181818;stroke-width:1.0;" x1="1113.3333" x2="1113.3333" y1="1149.4531" y2="1176.5859"/><line style="stroke:#181818;stroke-width:1.0;" x1="1113.3333" x2="1370.1333" y1="1176.5859" y2="1176.5859"/><line style="stroke:#181818;stroke-width:1.0;" x1="1370.1333" x2="1370.1333" y1="1176.5859" y2="1226.5859"/><line style="stroke:#181818;stroke-width:1.0;" x1="1370.1333" x2="1400.8667" y1="1226.5859" y2="1226.5859"/><line style="stroke:#181818;stroke-width:1.0;" x1="1400.8667" x2="1400.8667" y1="1226.5859" y2="1268.8516"/><polygon fill="none" points="1113.3333,1149.4531,1109.3333,1155.4531,1113.3333,1161.4531,1117.3333,1155.4531,1113.3333,1149.4531" style="stroke:#181818;stroke-width:1.0;"/><text fill="#000000" font-family="sans-serif" font-size="13" lengthAdjust="spacing" textLength="24" x="1116.3333" y="1163.52">0..1</text><text fill="#000000" font-family="sans-serif" font-size="13" lengthAdjust="spacing" textLength="23" x="1403.8667" y="1263.7856">0..*</text><line style="stroke:#181818;stroke-width:1.0;" x1="992" x2="992" y1="1149.4531" y2="1176.5859"/><line style="stroke:#181818;stroke-width:1.0;" x1="992" x2="554" y1="1176.5859" y2="1176.5859"/><line style="stroke:#181818;stroke-width:1.0;" x1="554" x2="554" y1="1176.5859" y2="1268.8516"/><polygon fill="none" points="992,1149.4531,988,1155.4531,992,1161.4531,996,1155.4531,992,1149.4531" style="stroke:#181818;stroke-width:1.0;"/><text fill="#000000" font-family="sans-serif" font-size="13" lengthAdjust="spacing" textLength="24" x="995" y="1163.52">0..1</text><text fill="#000000" font-family="sans-serif" font-size="13" lengthAdjust="spacing" textLength="24" x="557" y="1263.7856">0..1</text><line style="stroke:#181818;stroke-width:1.0;" x1="1052.6667" x2="1052.6667" y1="1149.4531" y2="1265.9414"/><polygon fill="none" points="1052.6667,1149.4531,1048.6667,1155.4531,1052.6667,1161.4531,1056.6667,1155.4531,1052.6667,1149.4531" style="stroke:#181818;stroke-width:1.0;"/><text fill="#000000" font-family="sans-serif" font-size="13" lengthAdjust="spacing" textLength="24" x="1055.6667" y="1163.52">0..1</text><text fill="#000000" font-family="sans-serif" font-size="13" lengthAdjust="spacing" textLength="23" x="1055.6667" y="1260.8755">0..*</text><line style="stroke:#181818;stroke-width:1.0;" x1="1022.3333" x2="1022.3333" y1="1149.4531" y2="1186.5859"/><line style="stroke:#181818;stroke-width:1.0;" x1="1022.3333" x2="762.1667" y1="1186.5859" y2="1186.5859"/><line style="stroke:#181818;stroke-width:1.0;" x1="762.1667" x2="762.1667" y1="1186.5859" y2="1253.7188"/><text fill="#000000" font-family="sans-serif" font-size="13" lengthAdjust="spacing" textLength="23" x="1025.3333" y="1163.52">0..*</text><text fill="#000000" font-family="sans-serif" font-size="13" lengthAdjust="spacing" textLength="24" x="765.1667" y="1248.6528">0..1</text><line style="stroke:#181818;stroke-width:1.0;" x1="1083" x2="1083" y1="1149.4531" y2="1186.5859"/><line style="stroke:#181818;stroke-width:1.0;" x1="1083" x2="1247" y1="1186.5859" y2="1186.5859"/><line style="stroke:#181818;stroke-width:1.0;" x1="1247" x2="1247" y1="1186.5859" y2="1268.8516"/><text fill="#000000" font-family="sans-serif" font-size="13" lengthAdjust="spacing" textLength="23" x="1086" y="1163.52">0..*</text><text fill="#000000" font-family="sans-serif" font-size="13" lengthAdjust="spacing" textLength="24" x="1250" y="1263.7856">0..1</text><!--SRC=[fLTBRziu43v7lqBhOuiaBR3OGszf6c-DFbB4RNeeUg2bgSsM8hKabOrR-B-Nf4Y9f4ZBYprP7CvxXlED_sWvsZQe96ZFEba2-L4KGBkcN54975KICrh-AixE5l00L2wA1OT_EX3wor2U3kUpWnLT0yU8u9ze57viY1BuBXXLFor1c9vBUFI5FkvRw7btKhRYnUMbg7RGe0l6jvSV3M_gHhkv1Pw-N1A6Cd8l6IE0Q4QfXEOj5XdHjUHT9JiEzJqY7VGn51L1GfIlu05NEevLNGh9CTqMRrc5o7XyZnfmtrTI_Muw2QByydKu5BqIdP1Hx62fvUBPnSNpHSdEpTUJHHdBEVgvOntLEI-rIxOsQSTUWQWuRWsF9QqQjFNkjSfLhVqEI7zprhK1NULcC1TuziHvDdTlT3hNFt0cMSL8rlNNYDO4k3iw_ZLi6zMjsh68L5mpgfXLIyh0xS7I8aXtB1qxPkbP_tIlM94hqKALvrntcvx3T8VvKj9MA7JAteQAtxCQiihl69FZpGV4bS_Z-Ng7IHsKyOfMwf4p7jLSL41h8ngMt7cYSYlLzJrI4s53ykwin3t3TRbHhxAuRR2yQLgvxuzcC9ZkLGc9z6cZ4KdvZlJSKZD8I5oDvinZBH7T5y5ykZLTxdd_YM9v1zz0PQGQ_5jsr8p2KLsVO_-1nh66BrLzcI2ESwbQJk992FZFEuntbjr5CileUieVREOfveleZuXhZhLFI2NMarrYegZkBZL7tDrwnxZq-YyzAW_-t8aUnPnPApCtJqUsnEYQPYSqfNFb0QdtVK9BzLgljOKf4AICJJhEjtTSBDaYfulOPZbTm8ijJABT0qx69VMO1vkwD_opk_JewQJET9VnAMokmCmSLy0mrsy3rqowNdUR8o0eTc4NsIra0jZnuDPQZ_UwuhYfiVnVjdj3HirnOqDobBati0zdkJtSShp5D86luMJCDnKMQYFTwxdlI2FclCDq18vtw74yN172_hKxe0vDqpoCKLWLc3TG5OxgGuHL2Io8PlinTWSm7lHMqERh5EEaLvwNI40EHfNQ1-32OcP_KbmtZmfCDBK7GcCv1Mqnjy_hjq4K-HXJf425j-Ii6Gh7lAfAf15SxNL__Lai6MywWeQ5Xw0ATepKm3FBcNNiCvQxk92vZ1vDsrmpd9xNb4kpdVDVHAUsmn5jnb2GXG3vymcLyM8Sxo3nxXF-amnEyMQVsCIc3oIpM_bJ-_aYikChyqVov8z07wO3pxbnCmDhjc2ZYhlwcvbAOs87IvEDi9Tr7baGElLFQUg_NsQ5SIdm6e6sdVIsykAsan4bWxK-e7gJ_k0kZW5dcYNQVx9wd6C-GwhGMOPW5mYJxXPcBwAPN1z-0m00]--></g></svg>